<svg width="1444" height="1045" viewBox="0 0 1444 1045" fill="none" xmlns="http://www.w3.org/2000/svg">
<path fill-rule="evenodd" clip-rule="evenodd" d="M721.576 795.396L1440.37 761.435L721.576 727.464L2.47168 761.435L721.576 795.396Z" fill="#8817D1"/>
<path fill-rule="evenodd" clip-rule="evenodd" d="M721.569 919.939L1213.93 891.639L721.569 863.329L228.911 891.639L721.569 919.939Z" fill="#8817D1"/>
<path fill-rule="evenodd" clip-rule="evenodd" d="M721.578 1044.49L964.852 1016.18L721.578 987.877L478.005 1016.18L721.578 1044.49Z" fill="#8817D1"/>
<path fill-rule="evenodd" clip-rule="evenodd" d="M1444 631.659V632.852H1443.99H0C0 579.396 7.65392 526.828 21.9642 476.955L31.158 449.559L38.8985 427.018C55.1413 385.392 76.2011 345.757 102.536 309.186L121.048 280.59L141.523 255.901C174.273 217.146 211.982 181.837 253.829 150.63L757.562 131.506L307.221 114.421C424.588 42.2564 567.631 0 721.996 0C911.954 0 1084.73 63.9757 1213.63 168.93L757.562 186.224L1254.66 205.09C1303.02 251.342 1343.61 303.959 1374.65 361.396L1389.86 389.98L1400.69 416.042C1413.35 446.592 1423.36 478.264 1430.59 510.852L1439.07 558.65C1442.23 582.645 1443.94 606.637 1444 631.659ZM1186.28 314.564C1090.78 289.108 1030.9 305.91 948.216 350.762H948.218C940.621 354.884 931.837 359.859 922.179 365.329C864.679 397.892 776.169 448.018 722.318 440.397C681.122 434.579 632.975 401.107 587.029 369.165C554.2 346.342 522.495 324.301 495.252 313.686C441.085 292.597 411.676 295.428 356.113 311.265C253.448 340.503 198.495 418.717 140.749 500.904C117.135 534.514 93.0537 568.788 65.0518 600.649C119.055 585.55 148.092 544.408 176.728 503.837C207.511 460.222 237.829 417.266 298.197 408.03C414.709 390.212 554.76 416.672 614.705 504.536C575.202 534.576 524.518 554.062 471.254 559.687C619.555 607.357 793.005 590.669 921.262 516.377C906.091 504.15 890.905 491.911 875.722 479.672C940.181 416.929 1040.93 382.126 1140.5 388.21C1209.97 392.463 1246.83 459.01 1282.1 522.684C1297.38 550.273 1312.36 577.321 1329.56 598.53C1316.86 573.929 1307.4 538.931 1297.37 501.794C1275.77 421.831 1251.48 331.947 1186.28 314.564Z" fill="url(#paint0_linear_68_9)"/>
<defs>
<linearGradient id="paint0_linear_68_9" x1="721.998" y1="632.859" x2="721.998" y2="-0.0108639" gradientUnits="userSpaceOnUse">
<stop stop-color="#9900CC"/>
<stop offset="1" stop-color="#00CCFF"/>
</linearGradient>
</defs>
</svg>
