<svg width="36" height="36" viewBox="0 0 36 36" fill="none" xmlns="http://www.w3.org/2000/svg">
<rect x="0.5" y="0.5" width="35" height="35" rx="7.5" fill="#1F357D"/>
<path d="M24.3562 14.2398C24.3668 14.3823 24.3668 14.5241 24.3668 14.6658C24.3668 19.0026 21.067 24 15.0364 24C13.1785 24 11.4525 23.4617 10 22.5267C10.2638 22.5568 10.5178 22.5674 10.7922 22.5674C12.3253 22.5674 13.7362 22.0494 14.8638 21.1658C13.4219 21.1356 12.2137 20.1909 11.7969 18.8911C11.9996 18.9212 12.2031 18.9415 12.4164 18.9415C12.7104 18.9415 13.0059 18.9008 13.2803 18.83C11.7765 18.5254 10.6505 17.2052 10.6505 15.6105V15.5698C11.0877 15.8133 11.595 15.9656 12.1323 15.986C11.2489 15.3979 10.6701 14.3921 10.6701 13.2544C10.6701 12.6452 10.8321 12.0865 11.1162 11.5994C12.7307 13.5891 15.1577 14.8897 17.8787 15.0323C17.8282 14.7879 17.7973 14.5346 17.7973 14.2805C17.7973 12.4725 19.2595 11 21.0767 11C22.0212 11 22.8736 11.3958 23.4728 12.036C24.2137 11.8934 24.9237 11.619 25.5538 11.2435C25.3104 12.005 24.7918 12.6452 24.1119 13.0516C24.7722 12.9799 25.4122 12.7975 26 12.5434C25.5538 13.1933 24.9961 13.7723 24.3562 14.2398Z" fill="white"/>
<rect x="0.5" y="0.5" width="35" height="35" rx="7.5" stroke="url(#paint0_linear_1170_490)"/>
<defs>
<linearGradient id="paint0_linear_1170_490" x1="-1.45161" y1="-10.8583" x2="30.1447" y2="21.0347" gradientUnits="userSpaceOnUse">
<stop stop-color="#4866CB"/>
<stop offset="1" stop-color="#4866CB" stop-opacity="0"/>
</linearGradient>
</defs>
</svg>
