<svg width="36" height="36" viewBox="0 0 36 36" fill="none" xmlns="http://www.w3.org/2000/svg">
<rect x="0.5" y="0.5" width="35" height="35" rx="7.5" fill="#1F357D"/>
<path d="M17.9998 9.66663C13.4048 9.66663 9.6665 13.405 9.6665 18C9.6665 22.595 13.4048 26.3333 17.9998 26.3333C22.5948 26.3333 26.3332 22.595 26.3332 18C26.3332 13.405 22.5948 9.66663 17.9998 9.66663ZM24.609 17.1666H22.3057C22.2029 15.3427 21.6926 13.5649 20.8123 11.9641C21.8325 12.4408 22.7156 13.1678 23.3794 14.0774C24.0432 14.987 24.4662 16.0497 24.609 17.1666ZM18.4415 11.3558C19.304 12.4925 20.464 14.5058 20.6307 17.1666H15.5248C15.6407 15.0033 16.3532 12.9766 17.5673 11.355C17.7107 11.3466 17.854 11.3333 17.9998 11.3333C18.149 11.3333 18.2948 11.3466 18.4415 11.3558ZM15.2398 11.9391C14.4198 13.515 13.9465 15.3016 13.8582 17.1666H11.3907C11.5346 16.0398 11.9637 14.9684 12.6372 14.0536C13.3108 13.1389 14.2066 12.4111 15.2398 11.9391ZM11.3907 18.8333H13.869C13.9823 20.8158 14.4232 22.565 15.1657 24.025C14.1508 23.5466 13.2729 22.8201 12.6131 21.9127C11.9533 21.0053 11.5329 19.9462 11.3907 18.8333ZM17.5415 24.6441C16.374 23.2291 15.6848 21.2466 15.534 18.8333H20.6282C20.4548 21.1441 19.6973 23.1633 18.459 24.6433C18.3073 24.6533 18.1557 24.6666 17.9998 24.6666C17.8448 24.6666 17.694 24.6533 17.5415 24.6441ZM20.884 24.0008C21.6798 22.5058 22.1657 20.75 22.2932 18.8333H24.6082C24.4675 19.9369 24.0531 20.9877 23.4027 21.8903C22.7523 22.7928 21.8864 23.5183 20.884 24.0008Z" fill="white"/>
<rect x="0.5" y="0.5" width="35" height="35" rx="7.5" stroke="url(#paint0_linear_1170_497)"/>
<defs>
<linearGradient id="paint0_linear_1170_497" x1="-1.45161" y1="-10.8583" x2="30.1447" y2="21.0347" gradientUnits="userSpaceOnUse">
<stop stop-color="#4866CB"/>
<stop offset="1" stop-color="#4866CB" stop-opacity="0"/>
</linearGradient>
</defs>
</svg>
