<svg width="306" height="109" viewBox="0 0 306 109" fill="none" xmlns="http://www.w3.org/2000/svg">
<rect x="6" y="6" width="294" height="97" rx="2" fill="url(#paint0_linear_1173_255)"/>
<rect x="3" y="3" width="300" height="103" rx="5" stroke="#073A9A" stroke-opacity="0.3" stroke-width="6"/>
<path d="M61.426 25.5571C62.8395 24.8143 64.9904 24.8143 66.4039 25.5571L80.8276 33.1368C81.6789 33.5842 82.1464 34.2508 82.2302 34.939H82.2439V73.0387C82.2252 73.7893 81.7532 74.5349 80.8276 75.0215L66.4039 82.6012C64.9904 83.344 62.8395 83.344 61.426 82.6012L47.0024 75.0215C46.0806 74.5372 45.6382 73.7861 45.6163 73.0387C45.6141 72.9651 45.6139 72.9037 45.6159 72.8529L45.6159 35.1837C45.6144 35.1425 45.6143 35.1013 45.6154 35.0602L45.6163 34.939L45.6228 34.939C45.6868 34.2432 46.1331 33.5936 47.0024 33.1368L61.426 25.5571ZM79.9733 56.1946L66.4039 63.3254C64.9904 64.0683 62.8395 64.0683 61.426 63.3254L47.8863 56.2105V72.9633L61.426 80.0408C62.1906 80.4475 62.9841 80.8437 63.76 80.8941L63.915 80.8991C64.7235 80.9019 65.5085 80.4934 66.3045 80.1067L79.9733 72.9024V56.1946ZM43.2703 72.2104C43.2703 73.6698 43.4408 74.6294 43.7794 75.3055C44.06 75.8657 44.481 76.2937 45.2498 76.8149L45.2937 76.8444C45.4624 76.9575 45.6483 77.0761 45.8745 77.2152L46.1413 77.3778L46.9606 77.8699L45.7856 79.8028L44.8686 79.2516L44.7145 79.1576C44.4493 78.9944 44.2296 78.855 44.0246 78.7173C41.8335 77.2474 41.0164 75.6454 41.0002 72.3117L41 72.2104H43.2703ZM62.7795 45.9828C62.6745 46.0187 62.5761 46.0601 62.4863 46.1073L48.0627 53.687C48.0475 53.695 48.0331 53.7029 48.0194 53.7106L48.0072 53.7177L48.0298 53.7306L48.0627 53.7483L62.4863 61.3281C62.5761 61.3752 62.6745 61.4167 62.7795 61.4526V45.9828ZM65.0505 45.9828V61.4526C65.1555 61.4167 65.2539 61.3752 65.3436 61.3281L79.7673 53.7483C79.7824 53.7404 79.7968 53.7325 79.8106 53.7248L79.8228 53.7177L79.8001 53.7048L79.7673 53.687L65.3436 46.1073C65.2539 46.0601 65.1555 46.0187 65.0505 45.9828ZM79.9733 37.6417L67.0344 44.4412L79.9733 51.2407V37.6417ZM47.8863 37.6576V51.2248L60.7951 44.4412L47.8863 37.6576ZM65.3436 27.5545C64.5935 27.1603 63.2364 27.1603 62.4863 27.5545L48.0627 35.1343C48.0475 35.1422 48.0331 35.1501 48.0194 35.1578L48.0072 35.1649L48.0298 35.1778L48.0627 35.1955L62.4863 42.7753C63.2364 43.1694 64.5935 43.1694 65.3436 42.7753L79.7673 35.1955C79.7824 35.1876 79.7968 35.1797 79.8106 35.1719L79.8228 35.1649L79.8001 35.152L79.7673 35.1343L65.3436 27.5545ZM82.1049 28.3857L83.0219 28.9367L83.176 29.0308C83.4411 29.1937 83.6609 29.3336 83.8659 29.4711C86.0569 30.9408 86.8741 32.5432 86.89 35.8765L86.8905 35.9781H84.6202C84.6202 34.5183 84.4496 33.5589 84.1111 32.8829C83.8305 32.3227 83.4094 31.8946 82.6406 31.3736L82.5968 31.344C82.4281 31.2308 82.2422 31.1123 82.0159 30.9729L81.7491 30.8104L80.9299 30.3185L82.1049 28.3857Z" fill="white"/>
<path d="M109.954 71.4503V50.2028H115.846V46.3124H109.954V43.5193C109.954 40.3605 111.336 38.7811 114.099 38.7811C114.898 38.7811 115.747 38.9141 116.646 39.1801V35.0404C115.547 34.7079 114.332 34.5416 113 34.5416C110.437 34.5416 108.448 35.2731 107.033 36.7362C105.618 38.1992 104.911 40.3273 104.911 43.1204V46.3124H100.067V50.2028H104.911V71.4503H109.954ZM130.427 71.7992C132.358 71.7992 134.048 71.4003 135.496 70.602C136.944 69.8042 138.034 68.657 138.767 67.1608V71.4503H143.76V46.3124H138.767V50.4023C138.001 48.906 136.902 47.7505 135.471 46.9359C134.04 46.1212 132.358 45.7139 130.427 45.7139C128.264 45.7139 126.333 46.2626 124.635 47.3598C122.937 48.4571 121.614 50.0033 120.665 51.9983C119.717 53.9934 119.242 56.2877 119.242 58.8812C119.242 61.4748 119.708 63.7442 120.64 65.6894C121.572 67.6346 122.879 69.1392 124.56 70.2032C126.241 71.2672 128.197 71.7992 130.427 71.7992ZM131.626 67.8091C129.329 67.8091 127.539 67.0277 126.258 65.4649C124.976 63.9022 124.335 61.7076 124.335 58.8812C124.335 56.0217 124.976 53.7856 126.258 52.1729C127.539 50.5602 129.312 49.7539 131.576 49.7539C133.873 49.7539 135.646 50.5353 136.894 52.0981C138.142 53.6609 138.767 55.8887 138.767 58.7815C138.767 61.6411 138.142 63.8606 136.894 65.44C135.646 67.0194 133.89 67.8091 131.626 67.8091ZM156.144 71.4503V57.1356C156.144 54.9078 156.784 53.1289 158.066 51.7988C159.348 50.4688 161.054 49.8038 163.184 49.8038C165.049 49.8038 166.405 50.3025 167.254 51.3001C168.103 52.2976 168.527 53.8936 168.527 56.0882V71.4503H173.571V55.789C173.571 49.0723 170.558 45.7139 164.533 45.7139C162.602 45.7139 160.879 46.1379 159.364 46.9858C157.85 47.8336 156.693 49.0556 155.894 50.6517L155.444 46.3124H150.751C151.017 48.4072 151.15 50.768 151.15 53.3949V71.4503H156.144ZM190.448 71.7992C191.847 71.7992 193.095 71.6166 194.194 71.2508V67.1608C193.295 67.4267 192.413 67.5597 191.547 67.5597C190.215 67.5597 189.175 67.2023 188.426 66.4874C187.677 65.7725 187.302 64.5505 187.302 62.8215V50.2028H194.244V46.3124H187.302V38.2823L182.259 40.028V46.3124H177.366V50.2028H182.259V63.2205C182.259 66.0136 182.975 68.1416 184.406 69.6047C185.838 71.0677 187.852 71.7992 190.448 71.7992ZM209.723 71.7992C212.153 71.7992 214.301 71.2672 216.165 70.2032C218.029 69.1392 219.468 67.6262 220.484 65.6644C221.499 63.7027 222.007 61.4083 222.007 58.7815C222.007 56.1547 221.499 53.8521 220.484 51.8736C219.468 49.8952 218.029 48.374 216.165 47.3099C214.301 46.2459 212.153 45.7139 209.723 45.7139C207.26 45.7139 205.096 46.2459 203.232 47.3099C201.368 48.374 199.928 49.8952 198.912 51.8736C197.897 53.8521 197.389 56.1547 197.389 58.7815C197.389 61.4083 197.897 63.7027 198.912 65.6644C199.928 67.6262 201.368 69.1392 203.232 70.2032C205.096 71.2672 207.26 71.7992 209.723 71.7992ZM209.673 67.8091C207.376 67.8091 205.604 67.0443 204.355 65.5148C203.107 63.9853 202.483 61.7409 202.483 58.7815C202.483 55.8887 203.115 53.6609 204.38 52.0981C205.645 50.5353 207.426 49.7539 209.723 49.7539C211.987 49.7539 213.743 50.5353 214.991 52.0981C216.24 53.6609 216.864 55.8887 216.864 58.7815C216.864 61.7409 216.248 63.9853 215.016 65.5148C213.784 67.0443 212.003 67.8091 209.673 67.8091ZM232.893 71.4503V57.2353C232.893 54.941 233.459 53.1289 234.591 51.7988C235.722 50.4688 237.254 49.8038 239.185 49.8038C240.849 49.8038 242.056 50.3025 242.804 51.3001C243.554 52.2976 243.928 53.877 243.928 56.0383V71.4503H248.971V57.2353C248.971 54.941 249.529 53.1289 250.644 51.7988C251.759 50.4688 253.282 49.8038 255.214 49.8038C256.878 49.8038 258.085 50.3025 258.833 51.3001C259.583 52.2976 259.957 53.877 259.957 56.0383V71.4503H265V55.789C265 49.0723 262.204 45.7139 256.612 45.7139C254.747 45.7139 253.074 46.1462 251.593 47.0107C250.111 47.8752 248.988 49.0556 248.223 50.5519C247.024 47.3266 244.477 45.7139 240.583 45.7139C238.752 45.7139 237.154 46.1296 235.789 46.9608C234.424 47.7921 233.376 48.9725 232.643 50.5021L232.194 46.3124H227.5C227.766 48.4072 227.899 50.768 227.899 53.3949V71.4503H232.893Z" fill="white"/>
<defs>
<linearGradient id="paint0_linear_1173_255" x1="153" y1="6" x2="153" y2="103" gradientUnits="userSpaceOnUse">
<stop stop-color="#1969FF"/>
<stop offset="1" stop-color="#003DB0"/>
</linearGradient>
</defs>
</svg>
