<svg width="36" height="36" viewBox="0 0 36 36" fill="none" xmlns="http://www.w3.org/2000/svg">
<rect x="0.5" y="0.5" width="35" height="35" rx="7.5" fill="#1F357D"/>
<path d="M23.0002 26.3333C23.4422 26.3333 23.8661 26.1577 24.1787 25.8451C24.4912 25.5326 24.6668 25.1087 24.6668 24.6666V14.6666L19.6668 9.66663H13.0002C12.5581 9.66663 12.1342 9.84222 11.8217 10.1548C11.5091 10.4673 11.3335 10.8913 11.3335 11.3333V24.6666C11.3335 25.1087 11.5091 25.5326 11.8217 25.8451C12.1342 26.1577 12.5581 26.3333 13.0002 26.3333H23.0002ZM18.8335 11.3333L23.0002 15.5H18.8335V11.3333ZM13.8335 14.6666H16.3335V16.3333H13.8335V14.6666ZM13.8335 18H22.1668V19.6666H13.8335V18ZM13.8335 21.3333H22.1668V23H13.8335V21.3333Z" fill="white"/>
<rect x="0.5" y="0.5" width="35" height="35" rx="7.5" stroke="url(#paint0_linear_1170_500)"/>
<defs>
<linearGradient id="paint0_linear_1170_500" x1="-1.45161" y1="-10.8583" x2="30.1447" y2="21.0347" gradientUnits="userSpaceOnUse">
<stop stop-color="#4866CB"/>
<stop offset="1" stop-color="#4866CB" stop-opacity="0"/>
</linearGradient>
</defs>
</svg>
