<svg width="32" height="32" viewBox="0 0 32 32" fill="none" xmlns="http://www.w3.org/2000/svg">
<rect y="32" width="32" height="32" rx="2" transform="rotate(-90 0 32)" fill="#132562"/>
<g clip-path="url(#clip0_546_533)">
<path d="M13.4908 20.3742C13.4908 20.9808 13.4853 21.549 13.4908 22.1173C13.4949 22.4257 13.4294 22.6916 13.1228 22.8219C12.8163 22.9521 12.5548 22.8308 12.3275 22.6012C10.9398 21.2011 9.54961 19.8026 8.15692 18.4057C7.7753 18.0212 7.78212 17.7066 8.17126 17.3145C9.55394 15.9236 10.9373 14.5335 12.3213 13.1444C12.5439 12.9203 12.7842 12.7695 13.1099 12.9052C13.4355 13.0409 13.499 13.3164 13.4935 13.6345C13.484 14.1924 13.4935 14.751 13.4935 15.3665L13.9086 15.3665C16.0022 15.3665 18.0958 15.3665 20.1894 15.3665C20.7881 15.3665 20.9915 15.5722 20.9929 16.1609C20.9929 16.4008 20.9929 16.6407 20.9929 16.8148L23.7196 14.0663C22.8607 13.2081 21.9316 12.276 20.9902 11.3294C20.9902 11.5967 20.9943 11.8777 20.9902 12.1574C20.9827 12.6002 20.7567 12.8394 20.3177 12.8428C18.6906 12.8483 17.0638 12.8483 15.4372 12.8428C15.0105 12.8428 14.7688 12.6153 14.7627 12.2396C14.7565 11.864 15.02 11.6043 15.4453 11.6029C16.7425 11.5988 18.0396 11.6029 19.3367 11.6029L19.7538 11.6029C19.7538 10.9757 19.7497 10.3739 19.7538 9.77281C19.7572 9.39035 19.9347 9.134 20.2638 9.12577C20.4584 9.11823 20.7096 9.19157 20.8461 9.32112C22.2907 10.7459 23.7244 12.1823 25.1471 13.6304C25.457 13.9443 25.4488 14.2795 25.1348 14.5968C23.7148 16.0316 22.2912 17.4621 20.8639 18.8882C20.655 19.098 20.4092 19.1932 20.1211 19.0623C19.848 18.9403 19.7511 18.7196 19.7538 18.4256C19.76 17.8341 19.7538 17.2425 19.7538 16.6071L19.3224 16.6071C17.2288 16.6071 15.1352 16.6071 13.0416 16.6071C12.4654 16.6071 12.2565 16.4015 12.2544 15.8299C12.2544 15.5818 12.2544 15.333 12.2544 15.1225L9.49909 17.8861L12.2531 20.6566C12.2531 20.3886 12.2531 20.1083 12.2531 19.8341C12.2585 19.3694 12.4818 19.1343 12.9419 19.1329C14.5572 19.1284 16.1729 19.1284 17.789 19.1329C18.2369 19.1329 18.4826 19.3625 18.4806 19.7498C18.4806 20.1282 18.2137 20.3701 17.7815 20.3708C16.4849 20.3735 15.1877 20.3735 13.8902 20.3708L13.4908 20.3742Z" fill="#15CEF7"/>
</g>
<defs>
<clipPath id="clip0_546_533">
<rect width="20" height="20" fill="white" transform="translate(6 26) rotate(-90)"/>
</clipPath>
</defs>
</svg>
