<svg width="36" height="36" viewBox="0 0 36 36" fill="none" xmlns="http://www.w3.org/2000/svg">
<rect x="0.5" y="0.5" width="35" height="35" rx="7.5" fill="#291860"/>
<path fill-rule="evenodd" clip-rule="evenodd" d="M18.0226 9.66797C13.4318 9.66797 9.71094 13.3888 9.71094 17.9796C9.71094 21.6513 12.0918 24.7671 15.3951 25.8671C15.8109 25.9421 15.9609 25.6863 15.9609 25.4663C15.9609 25.2688 15.9543 24.7455 15.9518 24.053C13.6393 24.5546 13.1509 22.938 13.1509 22.938C12.7743 21.978 12.2284 21.7221 12.2284 21.7221C11.4743 21.2063 12.2859 21.218 12.2859 21.218C13.1209 21.2763 13.5584 22.0746 13.5584 22.0746C14.3001 23.3446 15.5051 22.978 15.9768 22.7655C16.0526 22.228 16.2693 21.8613 16.5059 21.6538C14.6609 21.4446 12.7209 20.7313 12.7209 17.5455C12.7209 16.6396 13.0451 15.8963 13.5743 15.3163C13.4901 15.1055 13.2026 14.2596 13.6568 13.1163C13.6568 13.1163 14.3543 12.8921 15.9418 13.9671C16.6198 13.7827 17.3191 13.6885 18.0218 13.6871C18.7244 13.6883 19.4238 13.7824 20.1018 13.9671C21.6901 12.8913 22.3868 13.1163 22.3868 13.1163C22.8409 14.2596 22.5559 15.1055 22.4693 15.3163C23.0026 15.8963 23.3226 16.6388 23.3226 17.5455C23.3226 20.7396 21.3809 21.4413 19.5293 21.6471C19.8251 21.9038 20.0918 22.4105 20.0918 23.1855C20.0918 24.2971 20.0818 25.1938 20.0818 25.4663C20.0818 25.6888 20.2301 25.9471 20.6543 25.8655C23.9559 24.7638 26.3343 21.6505 26.3343 17.9796C26.3343 13.3888 22.6134 9.66797 18.0226 9.66797Z" fill="#A589FF"/>
<rect x="0.5" y="0.5" width="35" height="35" rx="7.5" stroke="url(#paint0_linear_109_1497)"/>
<defs>
<linearGradient id="paint0_linear_109_1497" x1="18" y1="0" x2="18" y2="36" gradientUnits="userSpaceOnUse">
<stop stop-color="#5239A0"/>
<stop offset="1" stop-color="#5239A0" stop-opacity="0"/>
</linearGradient>
</defs>
</svg>
