<svg width="36" height="36" viewBox="0 0 36 36" fill="none" xmlns="http://www.w3.org/2000/svg">
<rect x="0.5" y="0.5" width="35" height="35" rx="7.5" fill="#291860"/>
<path d="M18.0005 9.66797C13.3988 9.66797 9.66797 13.3988 9.66797 18.0005C9.66797 22.1588 12.7146 25.6055 16.6988 26.233V20.4096H14.5821V18.0005H16.6988V16.1646C16.6988 14.0746 17.943 12.9221 19.8455 12.9221C20.7571 12.9221 21.7121 13.0846 21.7121 13.0846V15.1338H20.6588C19.6255 15.1338 19.3021 15.7771 19.3021 16.4363V17.9988H21.6113L21.2421 20.408H19.3021V26.2313C23.2863 25.6071 26.333 22.1596 26.333 18.0005C26.333 13.3988 22.6021 9.66797 18.0005 9.66797Z" fill="#A589FF"/>
<rect x="0.5" y="0.5" width="35" height="35" rx="7.5" stroke="url(#paint0_linear_109_1500)"/>
<defs>
<linearGradient id="paint0_linear_109_1500" x1="18" y1="0" x2="18" y2="36" gradientUnits="userSpaceOnUse">
<stop stop-color="#5239A0"/>
<stop offset="1" stop-color="#5239A0" stop-opacity="0"/>
</linearGradient>
</defs>
</svg>
