<svg width="36" height="36" viewBox="0 0 36 36" fill="none" xmlns="http://www.w3.org/2000/svg">
<rect x="0.5" y="0.5" width="35" height="35" rx="7.5" fill="#291860"/>
<path d="M24.3621 14.6627C24.373 14.8085 24.373 14.9535 24.373 15.0985C24.373 19.536 20.9955 24.6493 14.823 24.6493C12.9213 24.6493 11.1546 24.0985 9.66797 23.1418C9.93797 23.1727 10.198 23.1835 10.4788 23.1835C12.048 23.1835 13.4921 22.6535 14.6463 21.7493C13.1705 21.7185 11.9338 20.7518 11.5071 19.4218C11.7146 19.4527 11.923 19.4735 12.1413 19.4735C12.4421 19.4735 12.7446 19.4318 13.0255 19.3593C11.4863 19.0477 10.3338 17.6968 10.3338 16.0652V16.0235C10.7813 16.2727 11.3005 16.4285 11.8505 16.4493C10.9463 15.8477 10.3538 14.8185 10.3538 13.6543C10.3538 13.031 10.5196 12.4593 10.8105 11.961C12.463 13.9968 14.9471 15.3277 17.7321 15.4735C17.6805 15.2235 17.6488 14.9643 17.6488 14.7043C17.6488 12.8543 19.1455 11.3477 21.0055 11.3477C21.9721 11.3477 22.8446 11.7527 23.458 12.4077C24.2163 12.2618 24.943 11.981 25.588 11.5968C25.3388 12.376 24.808 13.031 24.1121 13.4468C24.788 13.3735 25.443 13.1868 26.0446 12.9268C25.588 13.5918 25.0171 14.1843 24.3621 14.6627Z" fill="#A589FF"/>
<rect x="0.5" y="0.5" width="35" height="35" rx="7.5" stroke="url(#paint0_linear_109_1490)"/>
<defs>
<linearGradient id="paint0_linear_109_1490" x1="18" y1="0" x2="18" y2="36" gradientUnits="userSpaceOnUse">
<stop stop-color="#5239A0"/>
<stop offset="1" stop-color="#5239A0" stop-opacity="0"/>
</linearGradient>
</defs>
</svg>
