<svg width="172" height="34" viewBox="0 0 172 34" fill="none" xmlns="http://www.w3.org/2000/svg">
<path d="M51.422 10.4072H61.316L63.5698 12.661V17.0784L62.6683 18.0024L64.2685 19.6251V23.7495L61.8344 26.1836H51.422V10.4072ZM59.7384 17.0107L60.5498 16.1994V13.7653L59.7609 12.9765H54.4195V17.0107H59.7384ZM60.2793 23.6143L61.2484 22.6452V20.4365L60.2793 19.4674H54.4195V23.6143H60.2793ZM66.2951 10.4072H77.6992V12.999H69.3602V16.9882H77.0456V19.535H69.3602V23.5918H77.6992V26.1836H66.2951V10.4072ZM84.155 10.4072H86.9497L92.7193 26.1836H89.6091L88.3245 22.6902H82.7802L81.4956 26.1836H78.3854L84.155 10.4072ZM87.6484 20.166L85.5524 14.171H85.5073L83.4789 20.166H87.6484ZM94.0825 10.4072H96.9223L101.61 20.5942H101.655L106.366 10.4072H109.205V26.1836H106.253V16.5825H106.208L102.579 23.9749H100.686L97.08 16.5825H97.035V26.1836H94.0825V10.4072ZM111.567 23.7495V21.4957H114.587V22.8255L115.331 23.5692H119.996L120.762 22.8029V20.1886L120.018 19.4448H114.046L111.612 17.0107V12.8413L114.046 10.4072H121.168L123.602 12.8413V15.1176H120.582V13.7653L119.838 13.0216H115.376L114.632 13.7653V16.0867L115.376 16.8304H121.348L123.782 19.2645V23.7044L121.303 26.1836H114.001L111.567 23.7495ZM124.908 10.4072H127.996L129.911 21.5408H130.002L133.134 10.4072H135.433L138.498 21.5408H138.589L140.504 10.4072H143.592L140.324 26.1836H137.462L134.329 15.095H134.239L131.038 26.1836H128.176L124.908 10.4072ZM148.798 10.4072H151.592L157.362 26.1836H154.252L152.967 22.6902H147.423L146.138 26.1836H143.028L148.798 10.4072ZM152.291 20.166L150.195 14.171H150.15L148.122 20.166H152.291ZM158.725 10.4072H168.619L171.031 12.8413V18.363L168.597 20.8196H161.79V26.1836H158.725V10.4072ZM167.222 18.2503L168.011 17.4615V13.7653L167.222 12.9765H161.79V18.2503H167.222Z" fill="white"/>
<path fill-rule="evenodd" clip-rule="evenodd" d="M23.1514 25.5192L46.2108 24.4297L23.1514 23.3398L0.0820312 24.4297L23.1514 25.5192Z" fill="#8817D1"/>
<path fill-rule="evenodd" clip-rule="evenodd" d="M23.1486 29.5114L38.9438 28.6035L23.1486 27.6953L7.34375 28.6035L23.1486 29.5114Z" fill="#8817D1"/>
<path fill-rule="evenodd" clip-rule="evenodd" d="M23.15 33.5036L30.9543 32.5954L23.15 31.6875L15.3359 32.5954L23.15 33.5036Z" fill="#8817D1"/>
<path fill-rule="evenodd" clip-rule="evenodd" d="M46.3246 20.3024V20.2641C46.3228 19.4614 46.2677 18.6917 46.1663 17.9219L45.8944 16.3885C45.6625 15.343 45.3413 14.327 44.9351 13.3469L44.5878 12.5108L44.0998 11.5939C43.1038 9.75121 41.8018 8.06324 40.2503 6.57943L24.3031 5.9742L38.9341 5.41938C34.799 2.05239 29.2562 0 23.1622 0C18.21 0 13.6211 1.35562 9.85589 3.67072L24.3031 4.21879L8.14302 4.83233C6.80055 5.83346 5.59081 6.96621 4.54017 8.20949L3.88331 9.00152L3.28943 9.9189C2.44459 11.0921 1.76897 12.3636 1.24789 13.699L0.999572 14.4222L0.704627 15.3011C0.245543 16.901 0 18.5874 0 20.3024H46.3244H46.3246Z" fill="url(#paint0_linear_683_2584)"/>
<path d="M30.4185 11.2545C33.0711 9.81564 34.992 9.27662 38.0557 10.0933C41.119 10.9099 41.367 16.7145 42.6524 19.2031C40.8265 16.9523 39.7812 12.6515 36.5872 12.4559C33.3927 12.2607 30.1607 13.3772 28.0928 15.39C28.5799 15.7827 29.0671 16.1753 29.5538 16.5676C25.4392 18.9509 19.8748 19.4863 15.1172 17.957C16.826 17.7765 18.4519 17.1514 19.7192 16.1877C17.7961 13.369 13.3032 12.5201 9.56541 13.0917C5.82723 13.6637 5.68078 18.266 2.08594 19.2711C5.18096 15.7495 6.78295 11.309 11.4234 9.98745C13.2059 9.47939 14.1494 9.38855 15.8871 10.0651C17.9842 10.8822 20.9056 13.8101 23.1715 14.1301C25.1893 14.4156 28.7238 12.174 30.4186 11.2545H30.4185Z" fill="black"/>
<defs>
<linearGradient id="paint0_linear_683_2584" x1="23.1622" y1="20.3026" x2="23.1622" y2="-0.000348523" gradientUnits="userSpaceOnUse">
<stop stop-color="#9900CC"/>
<stop offset="1" stop-color="#00CCFF"/>
</linearGradient>
</defs>
</svg>
