<svg width="718" height="617" viewBox="0 0 718 617" fill="none" xmlns="http://www.w3.org/2000/svg">
<g filter="url(#filter0_d_108_1180)">
<rect x="110" y="368" width="275" height="179" rx="20" fill="url(#paint0_linear_108_1180)"/>
<rect x="112" y="370" width="271" height="175" rx="18" stroke="url(#paint1_linear_108_1180)" stroke-width="4"/>
</g>
<path d="M148.661 473.6H149.573V481.196H153.845V482H148.661V473.6ZM154.909 480.896V477.128L156.013 476.024H159.085L160.189 477.128V480.896L159.085 482H156.013L154.909 480.896ZM158.701 481.208L159.301 480.62V477.404L158.701 476.816H156.397L155.797 477.404V480.62L156.397 481.208H158.701ZM161.973 476.024H162.837V477.092L163.905 476.024H165.453V476.816H164.133L162.861 478.088V482H161.973V476.024ZM166.266 480.896V477.128L167.37 476.024H170.382L171.498 477.128V479.276H167.154V480.62L167.754 481.208H169.998L170.598 480.62V480.164H171.486V480.896L170.382 482H167.37L166.266 480.896ZM170.61 478.508V477.404L170.01 476.816H167.754L167.154 477.404V478.508H170.61ZM173.212 476.024H174.076V477.176L175.228 476.024H176.656L177.592 476.96L178.528 476.024H180.412L181.516 477.128V482H180.628V477.404L180.028 476.816H178.708L177.868 477.656V482H177.004V477.404L176.404 476.816H175.396L174.1 478.112V482H173.212V476.024ZM186.505 473.6H187.417V482H186.505V473.6ZM189.438 476.024H190.302V477.092L191.37 476.024H193.614L194.718 477.128V480.896L193.614 482H191.31L190.326 481.136V484.544H189.438V476.024ZM193.23 481.208L193.83 480.62V477.404L193.23 476.816H191.61L190.326 478.1V480.164L191.478 481.208H193.23ZM196.199 481.016V480.272H197.087V480.764L197.567 481.232H199.775L200.255 480.764V479.84L199.775 479.36H197.195L196.247 478.412V477.008L197.231 476.024H200.039L201.023 477.008V477.752H200.135V477.26L199.655 476.792H197.615L197.135 477.26V478.136L197.615 478.616H200.159L201.143 479.6V481.016L200.159 482H197.183L196.199 481.016ZM202.679 480.896V476.024H203.567V480.62L204.167 481.208H205.367L206.855 479.72V476.024H207.743V482H206.879V480.728L205.607 482H203.783L202.679 480.896ZM209.648 476.024H210.512V477.176L211.664 476.024H213.092L214.028 476.96L214.964 476.024H216.848L217.952 477.128V482H217.064V477.404L216.464 476.816H215.144L214.304 477.656V482H213.44V477.404L212.84 476.816H211.832L210.536 478.112V482H209.648V476.024ZM222.761 474.656V474.128L223.121 473.768H223.649L224.009 474.128V474.656L223.649 475.016H223.121L222.761 474.656ZM222.941 476.024H223.829V482H222.941V476.024ZM225.55 481.016V480.272H226.438V480.764L226.918 481.232H229.126L229.606 480.764V479.84L229.126 479.36H226.546L225.598 478.412V477.008L226.582 476.024H229.39L230.374 477.008V477.752H229.486V477.26L229.006 476.792H226.966L226.486 477.26V478.136L226.966 478.616H229.51L230.494 479.6V481.016L229.51 482H226.534L225.55 481.016ZM234.821 481.016V480.272H235.709V480.764L236.189 481.232H238.397L238.877 480.764V479.84L238.397 479.36H235.817L234.869 478.412V477.008L235.853 476.024H238.661L239.645 477.008V477.752H238.757V477.26L238.277 476.792H236.237L235.757 477.26V478.136L236.237 478.616H238.781L239.765 479.6V481.016L238.781 482H235.805L234.821 481.016ZM241.301 474.656V474.128L241.661 473.768H242.189L242.549 474.128V474.656L242.189 475.016H241.661L241.301 474.656ZM241.481 476.024H242.369V482H241.481V476.024ZM244.391 476.024H245.255V477.176L246.407 476.024H247.835L248.771 476.96L249.707 476.024H251.591L252.695 477.128V482H251.807V477.404L251.207 476.816H249.887L249.047 477.656V482H248.183V477.404L247.583 476.816H246.575L245.279 478.112V482H244.391V476.024ZM254.534 476.024H255.398V477.092L256.466 476.024H258.71L259.814 477.128V480.896L258.71 482H256.406L255.422 481.136V484.544H254.534V476.024ZM258.326 481.208L258.926 480.62V477.404L258.326 476.816H256.706L255.422 478.1V480.164L256.574 481.208H258.326ZM261.655 473.432H262.543V482H261.655V473.432ZM269.535 476.024V483.524L268.431 484.616H265.551L264.627 483.692V482.96H265.515V483.416L265.935 483.824H268.047L268.647 483.236V480.728L267.375 482H265.551L264.447 480.896V476.024H265.335V480.62L265.935 481.208H267.135L268.647 479.696V476.024H269.535ZM274.349 480.896V477.128L275.453 476.024H277.757L278.741 476.888V473.432H279.629V482H278.765V480.908L277.673 482H275.453L274.349 480.896ZM277.481 481.208L278.741 479.948V477.824L277.589 476.816H275.837L275.237 477.404V480.62L275.837 481.208H277.481ZM281.47 480.896V476.024H282.358V480.62L282.958 481.208H284.158L285.646 479.72V476.024H286.534V482H285.67V480.728L284.398 482H282.574L281.47 480.896ZM288.439 476.024H289.303V477.176L290.455 476.024H291.883L292.819 476.96L293.755 476.024H295.639L296.743 477.128V482H295.855V477.404L295.255 476.816H293.935L293.095 477.656V482H292.231V477.404L291.631 476.816H290.623L289.327 478.112V482H288.439V476.024ZM298.582 476.024H299.446V477.176L300.598 476.024H302.026L302.962 476.96L303.898 476.024H305.782L306.886 477.128V482H305.998V477.404L305.398 476.816H304.078L303.238 477.656V482H302.374V477.404L301.774 476.816H300.766L299.47 478.112V482H298.582V476.024ZM313.753 476.024V483.524L312.649 484.616H309.769L308.845 483.692V482.96H309.733V483.416L310.153 483.824H312.265L312.865 483.236V480.728L311.593 482H309.769L308.665 480.896V476.024H309.553V480.62L310.153 481.208H311.353L312.865 479.696V476.024H313.753ZM319.226 480.896V476.804H318.146V476.024H319.25V474.08H320.114V476.024H321.986V476.804H320.114V480.62L320.714 481.22H321.986V482H320.33L319.226 480.896ZM323.166 480.896V477.128L324.27 476.024H327.282L328.398 477.128V479.276H324.054V480.62L324.654 481.208H326.898L327.498 480.62V480.164H328.386V480.896L327.282 482H324.27L323.166 480.896ZM327.51 478.508V477.404L326.91 476.816H324.654L324.054 477.404V478.508H327.51ZM333.657 482L331.965 479.648L330.273 482H329.277L331.473 478.964L329.337 476.024H330.333L331.965 478.292L333.597 476.024H334.593L332.469 478.988L334.653 482H333.657ZM336.378 480.896V476.804H335.298V476.024H336.402V474.08H337.266V476.024H339.138V476.804H337.266V480.62L337.866 481.22H339.138V482H337.482L336.378 480.896ZM343.523 480.896V477.128L344.627 476.024H347.699L348.803 477.128V480.896L347.699 482H344.627L343.523 480.896ZM347.315 481.208L347.915 480.62V477.404L347.315 476.816H345.011L344.411 477.404V480.62L345.011 481.208H347.315ZM351.127 476.804H350.047V476.024H351.127V474.692L352.171 473.648H353.899V474.416H352.555L352.015 474.944V476.024H353.899V476.804H352.015V482H351.127V476.804ZM147.951 498.896V494.804H146.871V494.024H147.975V492.08H148.839V494.024H150.711V494.804H148.839V498.62L149.439 499.22H150.711V500H149.055L147.951 498.896ZM152.187 491.432H153.075V495.272L154.323 494.024H156.183L157.287 495.128V500H156.399V495.404L155.799 494.816H154.563L153.075 496.304V500H152.187V491.432ZM159.011 498.896V495.128L160.115 494.024H163.127L164.243 495.128V497.276H159.899V498.62L160.499 499.208H162.743L163.343 498.62V498.164H164.231V498.896L163.127 500H160.115L159.011 498.896ZM163.355 496.508V495.404L162.755 494.816H160.499L159.899 495.404V496.508H163.355ZM168.987 494.024H169.851V495.092L170.919 494.024H173.163L174.267 495.128V498.896L173.163 500H170.859L169.875 499.136V502.544H168.987V494.024ZM172.779 499.208L173.379 498.62V495.404L172.779 494.816H171.159L169.875 496.1V498.164L171.027 499.208H172.779ZM176.048 494.024H176.912V495.092L177.98 494.024H179.528V494.816H178.208L176.936 496.088V500H176.048V494.024ZM180.705 492.656V492.128L181.065 491.768H181.593L181.953 492.128V492.656L181.593 493.016H181.065L180.705 492.656ZM180.885 494.024H181.773V500H180.885V494.024ZM183.795 494.024H184.659V495.296L185.931 494.024H187.767L188.871 495.128V500H187.983V495.404L187.383 494.816H186.171L184.683 496.304V500H183.795V494.024ZM191.138 498.896V494.804H190.058V494.024H191.162V492.08H192.026V494.024H193.898V494.804H192.026V498.62L192.626 499.22H193.898V500H192.242L191.138 498.896ZM195.314 492.656V492.128L195.674 491.768H196.202L196.562 492.128V492.656L196.202 493.016H195.674L195.314 492.656ZM195.494 494.024H196.382V500H195.494V494.024ZM198.404 494.024H199.268V495.296L200.54 494.024H202.376L203.48 495.128V500H202.592V495.404L201.992 494.816H200.78L199.292 496.304V500H198.404V494.024ZM210.484 494.024V501.524L209.392 502.616H206.428L205.504 501.692V500.96H206.392V501.404L206.812 501.824H208.996L209.596 501.236V499.004L208.492 500H206.308L205.204 498.896V495.128L206.308 494.024H208.576L209.62 495.068V494.024H210.484ZM209.596 496.076L208.336 494.816H206.692L206.092 495.404V498.62L206.692 499.208H208.348L209.596 498.044V496.076ZM215.234 499.016V497.492L216.218 496.52H219.41V495.38L218.81 494.792H216.77L216.17 495.38V495.872H215.282V495.128L216.386 494.024H219.182L220.286 495.128V500H219.434V498.944L218.33 500H216.218L215.234 499.016ZM218.15 499.232L219.41 498.02V497.288H216.602L216.122 497.756V498.764L216.602 499.232H218.15ZM222.124 494.024H222.988V495.296L224.26 494.024H226.096L227.2 495.128V500H226.312V495.404L225.712 494.816H224.5L223.012 496.304V500H222.124V494.024ZM228.924 498.896V495.128L230.028 494.024H232.332L233.316 494.888V491.432H234.204V500H233.34V498.908L232.248 500H230.028L228.924 498.896ZM232.056 499.208L233.316 497.948V495.824L232.164 494.816H230.412L229.812 495.404V498.62L230.412 499.208H232.056ZM239.675 498.896V494.804H238.595V494.024H239.699V492.08H240.563V494.024H242.435V494.804H240.563V498.62L241.163 499.22H242.435V500H240.779L239.675 498.896ZM248.88 494.024V501.524L247.776 502.616H244.896L243.972 501.692V500.96H244.86V501.416L245.28 501.824H247.392L247.992 501.236V498.728L246.72 500H244.896L243.792 498.896V494.024H244.68V498.62L245.28 499.208H246.48L247.992 497.696V494.024H248.88ZM250.784 494.024H251.648V495.092L252.716 494.024H254.96L256.064 495.128V498.896L254.96 500H252.656L251.672 499.136V502.544H250.784V494.024ZM254.576 499.208L255.176 498.62V495.404L254.576 494.816H252.956L251.672 496.1V498.164L252.824 499.208H254.576ZM257.725 498.896V495.128L258.829 494.024H261.841L262.957 495.128V497.276H258.613V498.62L259.213 499.208H261.457L262.057 498.62V498.164H262.945V498.896L261.841 500H258.829L257.725 498.896ZM262.069 496.508V495.404L261.469 494.816H259.213L258.613 495.404V496.508H262.069ZM264.371 499.016V498.272H265.259V498.764L265.739 499.232H267.947L268.427 498.764V497.84L267.947 497.36H265.367L264.419 496.412V495.008L265.403 494.024H268.211L269.195 495.008V495.752H268.307V495.26L267.827 494.792H265.787L265.307 495.26V496.136L265.787 496.616H268.331L269.315 497.6V499.016L268.331 500H265.355L264.371 499.016ZM270.792 498.896V495.128L271.896 494.024H274.908L276.024 495.128V497.276H271.68V498.62L272.28 499.208H274.524L275.124 498.62V498.164H276.012V498.896L274.908 500H271.896L270.792 498.896ZM275.136 496.508V495.404L274.536 494.816H272.28L271.68 495.404V496.508H275.136ZM278.279 498.896V494.804H277.199V494.024H278.303V492.08H279.167V494.024H281.039V494.804H279.167V498.62L279.767 499.22H281.039V500H279.383L278.279 498.896ZM283.054 498.896V494.804H281.974V494.024H283.078V492.08H283.942V494.024H285.814V494.804H283.942V498.62L284.542 499.22H285.814V500H284.158L283.054 498.896ZM287.23 492.656V492.128L287.59 491.768H288.118L288.478 492.128V492.656L288.118 493.016H287.59L287.23 492.656ZM287.41 494.024H288.298V500H287.41V494.024ZM290.32 494.024H291.184V495.296L292.456 494.024H294.292L295.396 495.128V500H294.508V495.404L293.908 494.816H292.696L291.208 496.304V500H290.32V494.024ZM302.4 494.024V501.524L301.308 502.616H298.344L297.42 501.692V500.96H298.308V501.404L298.728 501.824H300.912L301.512 501.236V499.004L300.408 500H298.224L297.12 498.896V495.128L298.224 494.024H300.492L301.536 495.068V494.024H302.4ZM301.512 496.076L300.252 494.816H298.608L298.008 495.404V498.62L298.608 499.208H300.264L301.512 498.044V496.076ZM307.271 492.656V492.128L307.631 491.768H308.159L308.519 492.128V492.656L308.159 493.016H307.631L307.271 492.656ZM307.451 494.024H308.339V500H307.451V494.024ZM310.361 494.024H311.225V495.296L312.497 494.024H314.333L315.437 495.128V500H314.549V495.404L313.949 494.816H312.737L311.249 496.304V500H310.361V494.024ZM317.161 498.896V495.128L318.265 494.024H320.569L321.553 494.888V491.432H322.441V500H321.577V498.908L320.485 500H318.265L317.161 498.896ZM320.293 499.208L321.553 497.948V495.824L320.401 494.816H318.649L318.049 495.404V498.62L318.649 499.208H320.293ZM324.282 498.896V494.024H325.17V498.62L325.77 499.208H326.97L328.458 497.72V494.024H329.346V500H328.482V498.728L327.21 500H325.386L324.282 498.896ZM330.95 499.016V498.272H331.838V498.764L332.318 499.232H334.526L335.006 498.764V497.84L334.526 497.36H331.946L330.998 496.412V495.008L331.982 494.024H334.79L335.774 495.008V495.752H334.886V495.26L334.406 494.792H332.366L331.886 495.26V496.136L332.366 496.616H334.91L335.894 497.6V499.016L334.91 500H331.934L330.95 499.016ZM338.031 498.896V494.804H336.951V494.024H338.055V492.08H338.919V494.024H340.791V494.804H338.919V498.62L339.519 499.22H340.791V500H339.135L338.031 498.896ZM342.267 494.024H343.131V495.092L344.199 494.024H345.747V494.816H344.427L343.155 496.088V500H342.267V494.024ZM352.012 494.024V501.524L350.908 502.616H348.028L347.104 501.692V500.96H347.992V501.416L348.412 501.824H350.524L351.124 501.236V498.728L349.852 500H348.028L346.924 498.896V494.024H347.812V498.62L348.412 499.208H349.612L351.124 497.696V494.024H352.012ZM353.64 499.652V499.124L353.988 498.776H354.516L354.864 499.124V499.652L354.516 500H353.988L353.64 499.652Z" fill="white"/>
<path d="M188.705 414H191.025V426.02H198.065V428H188.705V414ZM199.264 426V420.04L201.244 418.04H206.764L208.764 420.04V426L206.764 428H201.244L199.264 426ZM205.704 426.1L206.504 425.3V420.74L205.704 419.94H202.324L201.524 420.74V425.3L202.324 426.1H205.704ZM211.163 418.04H213.263V419.74L214.923 418.04H217.683V419.98H215.423L213.423 422.02V428H211.163V418.04ZM218.483 426.02V420.04L220.463 418.04H225.883L227.903 420.04V423.76H220.743V425.36L221.503 426.12H224.923L225.643 425.38V424.78H227.883V426.06L225.943 428H220.443L218.483 426.02ZM225.643 422.1V420.72L224.863 419.92H221.523L220.743 420.72V422.1H225.643ZM230.206 418.04H232.306V419.78L234.026 418.04H236.506L237.926 419.48L239.366 418.04H242.726L244.766 420.1V428H242.506V420.76L241.726 419.98H239.866L238.706 421.14V428H236.506V420.74L235.746 419.98H234.386L232.466 421.92V428H230.206V418.04ZM252.711 414H255.031V428H252.711V414ZM257.823 418.04H259.923V419.6L261.503 418.04H265.323L267.323 420.04V426L265.323 428H261.483L260.083 426.82V432.24H257.823V418.04ZM264.263 426.06L265.063 425.28V420.76L264.263 419.98H261.863L260.083 421.76V424.54L261.763 426.06H264.263ZM269.218 426.14V424.92H271.438V425.56L271.998 426.14H275.398L275.958 425.56V424.48L275.378 423.9H271.078L269.298 422.1V419.86L271.118 418.04H276.138L277.978 419.9V421.12H275.758V420.48L275.198 419.9H272.078L271.518 420.48V421.48L272.098 422.06H276.378L278.178 423.88V426.18L276.358 428H271.058L269.218 426.14ZM280.184 425.98V418.04H282.444V425.28L283.224 426.06H284.964L287.084 423.94V418.04H289.344V428H287.244V426.16L285.384 428H282.204L280.184 425.98ZM291.945 418.04H294.045V419.78L295.765 418.04H298.245L299.665 419.48L301.105 418.04H304.465L306.505 420.1V428H304.245V420.76L303.465 419.98H301.605L300.445 421.14V428H298.245V420.74L297.485 419.98H296.125L294.205 421.92V428H291.945V418.04Z" fill="white"/>
<g filter="url(#filter1_d_108_1180)">
<rect x="110" y="150" width="274.996" height="197.82" rx="20" fill="url(#paint2_linear_108_1180)"/>
<rect x="112" y="152" width="270.996" height="193.82" rx="18" stroke="url(#paint3_linear_108_1180)" stroke-width="4"/>
</g>
<path d="M149.417 250.94V248.96H151.737V250.24L152.517 251H156.317L157.097 250.24V247.7L156.357 246.96H152.357V244.96H156.357L157.097 244.22V241.76L156.317 241H152.637L151.857 241.76V243.04H149.537V241.06L151.597 239H157.357L159.417 241.06V244.9L158.337 245.96L159.417 247.04V250.94L157.357 253H151.477L149.417 250.94ZM162.316 253H161.936L161.176 252.24V251.08L161.936 250.32H163.236L163.976 251.1V253L162.896 255.62H161.576L162.316 253ZM171.62 241.38V241H164.54V239H174.02V241.44L168.44 253H166L171.62 241.38ZM175.493 250.06L182.733 243.3V241.76L181.953 241H178.513L177.733 241.76V243.06H175.413V241.06L177.473 239H182.993L185.053 241.06V243.98L177.873 250.6V251.02H185.133V253H175.493V250.06ZM187.241 250.94V249.24H189.561V250.2L190.361 251H194.001L194.801 250.2V246.58L193.561 247.82H189.101L187.041 245.76V241.06L189.101 239H195.061L197.121 241.06V250.94L195.061 253H189.301L187.241 250.94ZM193.321 245.82L194.801 244.34V241.8L194.001 241H190.161L189.361 241.8V245.02L190.161 245.82H193.321Z" fill="white"/>
<path d="M167.556 282.469V282.241H163.308V281.041H168.996V282.505L165.648 289.441H164.184L167.556 282.469ZM169.932 289.441H169.704L169.248 288.985V288.289L169.704 287.833H170.484L170.928 288.301V289.441L170.28 291.013H169.488L169.932 289.441ZM172.395 288.109V282.373L173.727 281.041H177.351L178.683 282.373V288.109L177.351 289.441H173.727L172.395 288.109ZM176.703 288.241L177.291 287.665V282.817L176.703 282.241H174.375L173.787 282.817V287.665L174.375 288.241H176.703ZM180.518 288.109V282.373L181.85 281.041H185.474L186.806 282.373V288.109L185.474 289.441H181.85L180.518 288.109ZM184.826 288.241L185.414 287.665V282.817L184.826 282.241H182.498L181.91 282.817V287.665L182.498 288.241H184.826ZM188.46 284.557V281.941L189.36 281.041H191.364L192.264 281.941V284.557L191.364 285.457H189.36L188.46 284.557ZM194.688 281.041H196.08L191.472 289.441H190.08L194.688 281.041ZM190.776 284.425L191.064 284.137V282.361L190.776 282.073H189.948L189.648 282.361V284.137L189.948 284.425H190.776ZM193.884 288.541V285.925L194.784 285.025H196.788L197.688 285.925V288.541L196.788 289.441H194.784L193.884 288.541ZM196.2 288.409L196.488 288.121V286.345L196.2 286.057H195.372L195.072 286.345V288.121L195.372 288.409H196.2Z" fill="white"/>
<path d="M152.188 288.107V282.773" stroke="#4AAF05" stroke-width="2" stroke-linecap="round" stroke-linejoin="round"/>
<path d="M150.188 284.773L152.188 282.773L154.188 284.773" stroke="#4AAF05" stroke-width="2" stroke-linecap="round" stroke-linejoin="round"/>
<path d="M251.188 282.308C252.681 280.41 257.013 276.615 262.391 276.615C269.113 276.615 266.424 288 273.146 288C279.868 288 276.283 243.885 283.901 243.885C291.519 243.885 285.694 259.538 294.656 259.538C303.619 259.538 296.897 276.615 305.412 276.615C313.926 276.615 308.1 243.885 316.167 243.885C324.233 243.885 317.959 214 326.922 214C335.885 214 328.266 236.769 337.677 236.769C347.088 236.769 338.573 273.058 348.432 273.058C358.291 273.058 353.362 259.538 359.188 259.538" stroke="white" stroke-width="2"/>
<path d="M149.577 207.6H150.489V215.196H154.761V216H149.577V207.6ZM155.725 214.896V211.128L156.829 210.024H159.901L161.005 211.128V214.896L159.901 216H156.829L155.725 214.896ZM159.517 215.208L160.117 214.62V211.404L159.517 210.816H157.213L156.613 211.404V214.62L157.213 215.208H159.517ZM162.689 210.024H163.553V211.092L164.621 210.024H166.169V210.816H164.849L163.577 212.088V216H162.689V210.024ZM166.882 214.896V211.128L167.986 210.024H170.998L172.114 211.128V213.276H167.77V214.62L168.37 215.208H170.614L171.214 214.62V214.164H172.102V214.896L170.998 216H167.986L166.882 214.896ZM171.226 212.508V211.404L170.626 210.816H168.37L167.77 211.404V212.508H171.226ZM173.728 210.024H174.592V211.176L175.744 210.024H177.172L178.108 210.96L179.044 210.024H180.928L182.032 211.128V216H181.144V211.404L180.544 210.816H179.224L178.384 211.656V216H177.52V211.404L176.92 210.816H175.912L174.616 212.112V216H173.728V210.024ZM186.821 207.6H187.733V216H186.821V207.6ZM189.654 210.024H190.518V211.092L191.586 210.024H193.83L194.934 211.128V214.896L193.83 216H191.526L190.542 215.136V218.544H189.654V210.024ZM193.446 215.208L194.046 214.62V211.404L193.446 210.816H191.826L190.542 212.1V214.164L191.694 215.208H193.446ZM196.315 215.016V214.272H197.203V214.764L197.683 215.232H199.891L200.371 214.764V213.84L199.891 213.36H197.311L196.363 212.412V211.008L197.347 210.024H200.155L201.139 211.008V211.752H200.251V211.26L199.771 210.792H197.731L197.251 211.26V212.136L197.731 212.616H200.275L201.259 213.6V215.016L200.275 216H197.299L196.315 215.016ZM202.695 214.896V210.024H203.583V214.62L204.183 215.208H205.383L206.871 213.72V210.024H207.759V216H206.895V214.728L205.623 216H203.799L202.695 214.896ZM209.564 210.024H210.428V211.176L211.58 210.024H213.008L213.944 210.96L214.88 210.024H216.764L217.868 211.128V216H216.98V211.404L216.38 210.816H215.06L214.22 211.656V216H213.356V211.404L212.756 210.816H211.748L210.452 212.112V216H209.564V210.024Z" fill="white"/>
<g filter="url(#filter2_d_108_1180)">
<rect x="333" y="276" width="274.996" height="197.82" rx="20" fill="url(#paint4_linear_108_1180)"/>
<rect x="335" y="278" width="270.996" height="193.82" rx="18" stroke="url(#paint5_linear_108_1180)" stroke-width="4"/>
</g>
<path d="M376.315 381.2H377.659V389.838H382.615V391H376.315V381.2ZM383.697 389.656V385.372L385.041 384.028H388.765L390.095 385.372V389.656L388.765 391H385.041L383.697 389.656ZM388.163 389.866L388.793 389.25V385.778L388.163 385.162H385.629L384.999 385.778V389.25L385.629 389.866H388.163ZM392.018 384.028H393.264V385.246L394.468 384.028H396.33V385.162H394.762L393.32 386.618V391H392.018V384.028ZM397.118 389.67V385.372L398.462 384.028H402.116L403.46 385.372V387.92H398.42V389.264L399.036 389.88H401.542L402.158 389.278V388.802H403.446V389.67L402.13 391H398.448L397.118 389.67ZM402.158 386.898V385.764L401.528 385.148H399.05L398.42 385.764V386.898H402.158ZM405.315 384.028H406.561V385.302L407.835 384.028H409.529L410.579 385.078L411.615 384.028H413.897L415.255 385.386V391H413.953V385.792L413.323 385.162H411.909L410.999 386.072V391H409.739V385.778L409.123 385.162H408.059L406.617 386.604V391H405.315V384.028ZM421.022 381.2H422.366V391H421.022V381.2ZM424.564 384.028H425.81V385.204L426.972 384.028H429.632L430.962 385.372V389.656L429.632 391H426.93L425.866 390.076V393.968H424.564V384.028ZM429.03 389.866L429.66 389.236V385.792L429.03 385.162H427.238L425.866 386.548V388.718L427.14 389.866H429.03ZM432.531 389.782V388.914H433.833V389.432L434.309 389.894H436.773L437.249 389.432V388.508L436.773 388.018H433.763L432.587 386.842V385.246L433.791 384.028H437.193L438.411 385.246V386.114H437.109V385.596L436.633 385.134H434.365L433.889 385.596V386.464L434.365 386.954H437.347L438.551 388.158V389.782L437.347 391H433.749L432.531 389.782ZM440.185 389.656V384.028H441.487V389.25L442.117 389.866H443.419L445.043 388.242V384.028H446.345V391H445.099V389.614L443.713 391H441.529L440.185 389.656ZM448.407 384.028H449.653V385.302L450.927 384.028H452.621L453.671 385.078L454.707 384.028H456.989L458.347 385.386V391H457.045V385.792L456.415 385.162H455.001L454.091 386.072V391H452.831V385.778L452.215 385.162H451.151L449.709 386.604V391H448.407V384.028ZM463.905 382.474V381.774L464.395 381.27H465.137L465.627 381.774V382.474L465.137 382.978H464.395L463.905 382.474ZM464.115 384.028H465.417V391H464.115V384.028ZM467.266 389.782V388.914H468.568V389.432L469.044 389.894H471.508L471.984 389.432V388.508L471.508 388.018H468.498L467.322 386.842V385.246L468.526 384.028H471.928L473.146 385.246V386.114H471.844V385.596L471.368 385.134H469.1L468.624 385.596V386.464L469.1 386.954H472.082L473.286 388.158V389.782L472.082 391H468.484L467.266 389.782ZM478.28 389.782V388.914H479.582V389.432L480.058 389.894H482.522L482.998 389.432V388.508L482.522 388.018H479.512L478.336 386.842V385.246L479.54 384.028H482.942L484.16 385.246V386.114H482.858V385.596L482.382 385.134H480.114L479.638 385.596V386.464L480.114 386.954H483.096L484.3 388.158V389.782L483.096 391H479.498L478.28 389.782ZM485.933 382.474V381.774L486.423 381.27H487.165L487.655 381.774V382.474L487.165 382.978H486.423L485.933 382.474ZM486.143 384.028H487.445V391H486.143V384.028ZM489.644 384.028H490.89V385.302L492.164 384.028H493.858L494.908 385.078L495.944 384.028H498.226L499.584 385.386V391H498.282V385.792L497.652 385.162H496.238L495.328 386.072V391H494.068V385.778L493.452 385.162H492.388L490.946 386.604V391H489.644V384.028ZM501.571 384.028H502.817V385.204L503.979 384.028H506.639L507.969 385.372V389.656L506.639 391H503.937L502.873 390.076V393.968H501.571V384.028ZM506.037 389.866L506.667 389.236V385.792L506.037 385.162H504.245L502.873 386.548V388.718L504.147 389.866H506.037ZM509.957 381.004H511.259V391H509.957V381.004ZM519.51 384.028V392.722L518.152 394.066H514.68L513.532 392.918V392.036H514.834V392.526L515.254 392.932H517.578L518.208 392.316V389.67L516.864 391H514.68L513.322 389.642V384.028H514.624V389.236L515.254 389.866H516.598L518.208 388.228V384.028H519.51ZM525.073 389.656V385.372L526.417 384.028H529.133L530.169 384.938V381.004H531.471V391H530.225V389.796L529.021 391H526.417L525.073 389.656ZM528.811 389.866L530.169 388.494V386.24L528.951 385.162H527.019L526.375 385.806V389.222L527.019 389.866H528.811ZM533.46 389.656V384.028H534.762V389.25L535.392 389.866H536.694L538.318 388.242V384.028H539.62V391H538.374V389.614L536.988 391H534.804L533.46 389.656ZM541.682 384.028H542.928V385.302L544.202 384.028H545.896L546.946 385.078L547.982 384.028H550.264L551.622 385.386V391H550.32V385.792L549.69 385.162H548.276L547.366 386.072V391H546.106V385.778L545.49 385.162H544.426L542.984 386.604V391H541.682V384.028ZM553.609 384.028H554.855V385.302L556.129 384.028H557.823L558.873 385.078L559.909 384.028H562.191L563.549 385.386V391H562.247V385.792L561.617 385.162H560.203L559.293 386.072V391H558.033V385.778L557.417 385.162H556.353L554.911 386.604V391H553.609V384.028ZM571.653 384.028V392.722L570.295 394.066H566.823L565.675 392.918V392.036H566.977V392.526L567.397 392.932H569.721L570.351 392.316V389.67L569.007 391H566.823L565.465 389.642V384.028H566.767V389.236L567.397 389.866H568.741L570.351 388.228V384.028H571.653ZM399.618 410.67V406.148H398.358V405.028H399.646V402.76H400.92V405.028H403.09V406.162H400.92V410.25L401.55 410.866H403.09V412H400.962L399.618 410.67ZM404.321 410.67V406.372L405.665 405.028H409.319L410.663 406.372V408.92H405.623V410.264L406.239 410.88H408.745L409.361 410.278V409.802H410.649V410.67L409.333 412H405.651L404.321 410.67ZM409.361 407.898V406.764L408.731 406.148H406.253L405.623 406.764V407.898H409.361ZM416.667 412L414.847 409.466L413.013 412H411.543L414.119 408.458L411.613 405.028H413.083L414.847 407.478L416.597 405.028H418.067L415.575 408.486L418.137 412H416.667ZM419.988 410.67V406.148H418.728V405.028H420.016V402.76H421.29V405.028H423.46V406.162H421.29V410.25L421.92 410.866H423.46V412H421.332L419.988 410.67ZM428.537 410.656V406.372L429.881 405.028H433.605L434.935 406.372V410.656L433.605 412H429.881L428.537 410.656ZM433.003 410.866L433.633 410.25V406.778L433.003 406.162H430.469L429.839 406.778V410.25L430.469 410.866H433.003ZM437.488 406.148H436.228V405.028H437.488V403.53L438.776 402.242H440.974V403.348H439.336L438.79 403.894V405.028H440.974V406.148H438.79V412H437.488V406.148ZM446.602 410.67V406.148H445.342V405.028H446.63V402.76H447.904V405.028H450.074V406.162H447.904V410.25L448.534 410.866H450.074V412H447.946L446.602 410.67ZM451.65 402.004H452.952V406.358L454.282 405.028H456.48L457.852 406.4V412H456.55V406.792L455.92 406.162H454.562L452.952 407.772V412H451.65V402.004ZM459.703 410.67V406.372L461.047 405.028H464.701L466.045 406.372V408.92H461.005V410.264L461.621 410.88H464.127L464.743 410.278V409.802H466.031V410.67L464.715 412H461.033L459.703 410.67ZM464.743 407.898V406.764L464.113 406.148H461.635L461.005 406.764V407.898H464.743ZM471.542 405.028H472.788V406.204L473.95 405.028H476.61L477.94 406.372V410.656L476.61 412H473.908L472.844 411.076V414.968H471.542V405.028ZM476.008 410.866L476.638 410.236V406.792L476.008 406.162H474.216L472.844 407.548V409.718L474.118 410.866H476.008ZM479.858 405.028H481.104V406.246L482.308 405.028H484.17V406.162H482.602L481.16 407.618V412H479.858V405.028ZM485.384 403.474V402.774L485.874 402.27H486.616L487.106 402.774V403.474L486.616 403.978H485.874L485.384 403.474ZM485.594 405.028H486.896V412H485.594V405.028ZM489.095 405.028H490.341V406.4L491.713 405.028H493.897L495.269 406.4V412H493.967V406.792L493.337 406.162H492.007L490.397 407.772V412H489.095V405.028ZM497.755 410.67V406.148H496.495V405.028H497.783V402.76H499.057V405.028H501.227V406.162H499.057V410.25L499.687 410.866H501.227V412H499.099L497.755 410.67ZM502.733 403.474V402.774L503.223 402.27H503.965L504.455 402.774V403.474L503.965 403.978H503.223L502.733 403.474ZM502.943 405.028H504.245V412H502.943V405.028ZM506.444 405.028H507.69V406.4L509.062 405.028H511.246L512.618 406.4V412H511.316V406.792L510.686 406.162H509.356L507.746 407.772V412H506.444V405.028ZM520.869 405.028V413.722L519.525 415.066H515.955L514.793 413.918V413.036H516.109V413.512L516.515 413.932H518.937L519.567 413.316V410.922L518.391 412H515.815L514.471 410.656V406.372L515.815 405.028H518.489L519.637 406.162V405.028H520.869ZM519.567 407.436L518.265 406.162H516.417L515.773 406.806V410.222L516.417 410.866H518.223L519.567 409.564V407.436ZM526.358 410.81V409.088L527.548 407.898H531.216V406.722L530.6 406.12H528.318L527.716 406.722V407.24H526.414V406.386L527.772 405.028H531.146L532.504 406.386V412H531.286V410.852L530.082 412H527.548L526.358 410.81ZM529.9 410.922L531.216 409.662V408.934H528.15L527.66 409.424V410.446L528.15 410.922H529.9ZM534.489 405.028H535.735V406.4L537.107 405.028H539.291L540.663 406.4V412H539.361V406.792L538.731 406.162H537.401L535.791 407.772V412H534.489V405.028ZM542.515 410.656V406.372L543.859 405.028H546.575L547.611 405.938V402.004H548.913V412H547.667V410.796L546.463 412H543.859L542.515 410.656ZM546.253 410.866L547.611 409.494V407.24L546.393 406.162H544.461L543.817 406.806V410.222L544.461 410.866H546.253ZM406.182 431.67V427.148H404.922V426.028H406.21V423.76H407.484V426.028H409.654V427.162H407.484V431.25L408.114 431.866H409.654V433H407.526L406.182 431.67ZM417.28 426.028V434.722L415.922 436.066H412.45L411.302 434.918V434.036H412.604V434.526L413.024 434.932H415.348L415.978 434.316V431.67L414.634 433H412.45L411.092 431.642V426.028H412.394V431.236L413.024 431.866H414.368L415.978 430.228V426.028H417.28ZM419.342 426.028H420.588V427.204L421.75 426.028H424.41L425.74 427.372V431.656L424.41 433H421.708L420.644 432.076V435.968H419.342V426.028ZM423.808 431.866L424.438 431.236V427.792L423.808 427.162H422.016L420.644 428.548V430.718L421.918 431.866H423.808ZM427.519 431.67V427.372L428.863 426.028H432.517L433.861 427.372V429.92H428.821V431.264L429.437 431.88H431.943L432.559 431.278V430.802H433.847V431.67L432.531 433H428.849L427.519 431.67ZM432.559 428.898V427.764L431.929 427.148H429.451L428.821 427.764V428.898H432.559ZM435.366 431.782V430.914H436.668V431.432L437.144 431.894H439.608L440.084 431.432V430.508L439.608 430.018H436.598L435.422 428.842V427.246L436.626 426.028H440.028L441.246 427.246V428.114H439.944V427.596L439.468 427.134H437.2L436.724 427.596V428.464L437.2 428.954H440.182L441.386 430.158V431.782L440.182 433H436.584L435.366 431.782ZM442.949 431.67V427.372L444.293 426.028H447.947L449.291 427.372V429.92H444.251V431.264L444.867 431.88H447.373L447.989 431.278V430.802H449.277V431.67L447.961 433H444.279L442.949 431.67ZM447.989 428.898V427.764L447.359 427.148H444.881L444.251 427.764V428.898H447.989ZM451.776 431.67V427.148H450.516V426.028H451.804V423.76H453.078V426.028H455.248V427.162H453.078V431.25L453.708 431.866H455.248V433H453.12L451.776 431.67ZM457.455 431.67V427.148H456.195V426.028H457.483V423.76H458.757V426.028H460.927V427.162H458.757V431.25L459.387 431.866H460.927V433H458.799L457.455 431.67ZM462.433 424.474V423.774L462.923 423.27H463.665L464.155 423.774V424.474L463.665 424.978H462.923L462.433 424.474ZM462.643 426.028H463.945V433H462.643V426.028ZM466.144 426.028H467.39V427.4L468.762 426.028H470.946L472.318 427.4V433H471.016V427.792L470.386 427.162H469.056L467.446 428.772V433H466.144V426.028ZM480.568 426.028V434.722L479.224 436.066H475.654L474.492 434.918V434.036H475.808V434.512L476.214 434.932H478.636L479.266 434.316V431.922L478.09 433H475.514L474.17 431.656V427.372L475.514 426.028H478.188L479.336 427.162V426.028H480.568ZM479.266 428.436L477.964 427.162H476.116L475.472 427.806V431.222L476.116 431.866H477.922L479.266 430.564V428.436ZM486.198 424.474V423.774L486.688 423.27H487.43L487.92 423.774V424.474L487.43 424.978H486.688L486.198 424.474ZM486.408 426.028H487.71V433H486.408V426.028ZM489.909 426.028H491.155V427.4L492.527 426.028H494.711L496.083 427.4V433H494.781V427.792L494.151 427.162H492.821L491.211 428.772V433H489.909V426.028ZM497.935 431.656V427.372L499.279 426.028H501.995L503.031 426.938V423.004H504.333V433H503.087V431.796L501.883 433H499.279L497.935 431.656ZM501.673 431.866L503.031 430.494V428.24L501.813 427.162H499.881L499.237 427.806V431.222L499.881 431.866H501.673ZM506.322 431.656V426.028H507.624V431.25L508.254 431.866H509.556L511.18 430.242V426.028H512.482V433H511.236V431.614L509.85 433H507.666L506.322 431.656ZM514.195 431.782V430.914H515.497V431.432L515.973 431.894H518.437L518.913 431.432V430.508L518.437 430.018H515.427L514.251 428.842V427.246L515.455 426.028H518.857L520.075 427.246V428.114H518.773V427.596L518.297 427.134H516.029L515.553 427.596V428.464L516.029 428.954H519.011L520.215 430.158V431.782L519.011 433H515.413L514.195 431.782ZM522.548 431.67V427.148H521.288V426.028H522.576V423.76H523.85V426.028H526.02V427.162H523.85V431.25L524.48 431.866H526.02V433H523.892L522.548 431.67ZM527.596 426.028H528.842V427.246L530.046 426.028H531.908V427.162H530.34L528.898 428.618V433H527.596V426.028ZM539.31 426.028V434.722L537.952 436.066H534.48L533.332 434.918V434.036H534.634V434.526L535.054 434.932H537.378L538.008 434.316V431.67L536.664 433H534.48L533.122 431.642V426.028H534.424V431.236L535.054 431.866H536.398L538.008 430.228V426.028H539.31ZM541.065 432.524V431.824L541.541 431.348H542.283L542.759 431.824V432.524L542.283 433H541.541L541.065 432.524Z" fill="white"/>
<path d="M410.706 327H413.426V338.7H420.426V341H410.706V327ZM421.422 338.92V333.12L423.482 331.04H429.202L431.262 333.12V338.92L429.202 341H423.482L421.422 338.92ZM427.922 338.8L428.622 338.1V333.94L427.922 333.24H424.762L424.062 333.94V338.1L424.762 338.8H427.922ZM433.458 331.04H435.898V332.7L437.498 331.04H440.338V333.28H438.038L436.098 335.28V341H433.458V331.04ZM440.934 338.96V333.12L442.994 331.04H448.614L450.694 333.12V336.9H443.574V338.18L444.214 338.84H447.474L448.074 338.22V337.7H450.674V339L448.694 341H442.954L440.934 338.96ZM448.054 335.06V333.9L447.374 333.2H444.254L443.574 333.9V335.06H448.054ZM452.794 331.04H455.234V332.68L456.854 331.04H459.374L460.734 332.42L462.094 331.04H465.574L467.714 333.2V341H465.074V333.98L464.394 333.28H462.714L461.654 334.34V341H459.094V333.94L458.454 333.28H457.254L455.434 335.12V341H452.794V331.04ZM475.67 327H478.39V341H475.67V327ZM480.997 331.04H483.437V332.5L484.897 331.04H488.777L490.837 333.12V338.92L488.777 341H484.917L483.637 339.94V345.24H480.997V331.04ZM487.497 338.76L488.197 338.06V333.98L487.497 333.28H485.237L483.637 334.9V337.34L485.217 338.76H487.497ZM492.528 339.04V337.82H495.128V338.38L495.568 338.84H498.808L499.248 338.38V337.52L498.788 337.04H494.488L492.608 335.14V332.96L494.508 331.04H499.708L501.648 333V334.22H499.048V333.66L498.608 333.2H495.648L495.208 333.66V334.44L495.668 334.92H499.968L501.848 336.82V339.08L499.948 341H494.468L492.528 339.04ZM503.651 338.9V331.04H506.291V338.08L506.971 338.76H508.571L510.531 336.8V331.04H513.171V341H510.731V339.3L509.011 341H505.751L503.651 338.9ZM515.567 331.04H518.007V332.68L519.627 331.04H522.147L523.507 332.42L524.867 331.04H528.347L530.487 333.2V341H527.847V333.98L527.167 333.28H525.487L524.427 334.34V341H521.867V333.94L521.227 333.28H520.027L518.207 335.12V341H515.567V331.04Z" fill="white"/>
<defs>
<filter id="filter0_d_108_1180" x="0" y="218" width="495" height="399" filterUnits="userSpaceOnUse" color-interpolation-filters="sRGB">
<feFlood flood-opacity="0" result="BackgroundImageFix"/>
<feColorMatrix in="SourceAlpha" type="matrix" values="0 0 0 0 0 0 0 0 0 0 0 0 0 0 0 0 0 0 127 0" result="hardAlpha"/>
<feOffset dy="-40"/>
<feGaussianBlur stdDeviation="55"/>
<feColorMatrix type="matrix" values="0 0 0 0 0 0 0 0 0 0.7 0 0 0 0 1 0 0 0 0.19 0"/>
<feBlend mode="normal" in2="BackgroundImageFix" result="effect1_dropShadow_108_1180"/>
<feBlend mode="normal" in="SourceGraphic" in2="effect1_dropShadow_108_1180" result="shape"/>
</filter>
<filter id="filter1_d_108_1180" x="0" y="0" width="494.996" height="417.82" filterUnits="userSpaceOnUse" color-interpolation-filters="sRGB">
<feFlood flood-opacity="0" result="BackgroundImageFix"/>
<feColorMatrix in="SourceAlpha" type="matrix" values="0 0 0 0 0 0 0 0 0 0 0 0 0 0 0 0 0 0 127 0" result="hardAlpha"/>
<feOffset dy="-40"/>
<feGaussianBlur stdDeviation="55"/>
<feColorMatrix type="matrix" values="0 0 0 0 0 0 0 0 0 0.7 0 0 0 0 1 0 0 0 0.19 0"/>
<feBlend mode="normal" in2="BackgroundImageFix" result="effect1_dropShadow_108_1180"/>
<feBlend mode="normal" in="SourceGraphic" in2="effect1_dropShadow_108_1180" result="shape"/>
</filter>
<filter id="filter2_d_108_1180" x="223" y="126" width="494.996" height="417.82" filterUnits="userSpaceOnUse" color-interpolation-filters="sRGB">
<feFlood flood-opacity="0" result="BackgroundImageFix"/>
<feColorMatrix in="SourceAlpha" type="matrix" values="0 0 0 0 0 0 0 0 0 0 0 0 0 0 0 0 0 0 127 0" result="hardAlpha"/>
<feOffset dy="-40"/>
<feGaussianBlur stdDeviation="55"/>
<feColorMatrix type="matrix" values="0 0 0 0 0 0 0 0 0 0.88 0 0 0 0 1 0 0 0 0.24 0"/>
<feBlend mode="normal" in2="BackgroundImageFix" result="effect1_dropShadow_108_1180"/>
<feBlend mode="normal" in="SourceGraphic" in2="effect1_dropShadow_108_1180" result="shape"/>
</filter>
<linearGradient id="paint0_linear_108_1180" x1="247.5" y1="368" x2="247.5" y2="547" gradientUnits="userSpaceOnUse">
<stop stop-color="#3092ED"/>
<stop offset="1" stop-color="#09447A"/>
</linearGradient>
<linearGradient id="paint1_linear_108_1180" x1="134.301" y1="315.814" x2="210.178" y2="541.616" gradientUnits="userSpaceOnUse">
<stop stop-color="white"/>
<stop offset="1" stop-color="white" stop-opacity="0"/>
</linearGradient>
<linearGradient id="paint2_linear_108_1180" x1="247.498" y1="150" x2="247.498" y2="347.82" gradientUnits="userSpaceOnUse">
<stop stop-color="#3092ED"/>
<stop offset="1" stop-color="#09447A"/>
</linearGradient>
<linearGradient id="paint3_linear_108_1180" x1="134.3" y1="92.3267" x2="224.937" y2="336.389" gradientUnits="userSpaceOnUse">
<stop stop-color="white"/>
<stop offset="1" stop-color="white" stop-opacity="0"/>
</linearGradient>
<linearGradient id="paint4_linear_108_1180" x1="470.498" y1="276" x2="470.498" y2="473.82" gradientUnits="userSpaceOnUse">
<stop stop-color="#15CEF7"/>
<stop offset="1" stop-color="#9123C5"/>
</linearGradient>
<linearGradient id="paint5_linear_108_1180" x1="357.3" y1="218.327" x2="447.937" y2="462.389" gradientUnits="userSpaceOnUse">
<stop stop-color="white"/>
<stop offset="1" stop-color="white" stop-opacity="0"/>
</linearGradient>
</defs>
</svg>
