<svg width="137" height="25" viewBox="0 0 137 25" fill="none" xmlns="http://www.w3.org/2000/svg">
<path d="M120.641 0C120.145 0 119.742 0.395117 119.742 0.882328V7.07057H136.39L128.809 0.000570801L120.641 0Z" fill="#6071AE"/>
<path d="M137.001 8.94036C137.001 8.45201 136.601 8.05859 136.102 8.05859H129.801V24.4055L136.998 16.9581L137.001 8.94036Z" fill="#6071AE"/>
<path d="M127.891 24.9997C128.387 24.9997 128.789 24.604 128.789 24.1156V17.9297H112.141L119.723 24.9985L127.891 24.9997Z" fill="#6071AE"/>
<path d="M111.531 16.0567C111.531 16.5444 111.934 16.9418 112.432 16.9418H118.731V0.59375L111.532 8.03896L111.531 16.0567Z" fill="#6071AE"/>
<path d="M35.2223 2.98388V10.5331H24.5107V2.98388L20.6094 2.98047V22.0153H24.5107V13.8379H35.2223V22.0153H39.1301V2.98388H35.2223Z" fill="#6071AE"/>
<path d="M87.125 2.98438V22.0113H104.241L102.073 18.6616H91.0374V13.8384H101.724V10.6121H91.0374V6.25558H102.055L104.178 2.98438H87.125Z" fill="#6071AE"/>
<path d="M6.10796 2.97656C2.04971 2.97656 0 5.39899 0 8.92376V16.029C0 20.1081 2.64143 22.0126 6.08769 22.0126L18.3279 22.0114L16.0588 18.5322H6.84387C4.88624 18.5322 4.03337 17.8374 4.03337 15.6862V9.23985C4.03337 7.16024 4.75134 6.34897 6.89598 6.34897H16.1549L18.3337 2.97656H6.10796Z" fill="#6071AE"/>
<path d="M70.0017 2.9733C67.6579 2.9733 65.2556 4.35648 65.2556 7.91423V8.82838C65.2556 12.5373 67.567 13.9524 69.8795 13.962H77.9966C78.8397 13.962 79.5246 14.0996 79.5246 15.4987L79.5235 17.115C79.502 18.372 78.8634 18.6596 77.9677 18.6596H67.2891L65.1016 22.0093H78.219C81.3821 22.0093 83.5296 20.4641 83.5296 16.895V15.5834C83.5296 12.1326 81.5344 10.5021 78.4407 10.5021H70.6901C69.8309 10.5021 69.2322 10.2718 69.2322 9.02225V7.70614C69.2322 6.6419 69.6427 6.2536 70.6438 6.2536L80.8135 6.24962L82.939 2.96875L70.0017 2.9733Z" fill="#6071AE"/>
<path d="M50.4652 2.98438L41.2734 22.0147H45.6177L47.408 18.0846H57.3965L59.181 22.0147H63.5444L54.3312 2.98438H50.4652ZM52.3927 6.93552L55.9246 14.8452H48.8833L52.3927 6.93552Z" fill="#6071AE"/>
</svg>
