<svg width="122" height="25" viewBox="0 0 122 25" fill="none" xmlns="http://www.w3.org/2000/svg">
<path fill-rule="evenodd" clip-rule="evenodd" d="M18.7026 6.14687C18.7026 9.26584 16.1646 11.7944 13.0336 11.7944C9.90254 11.7944 7.36449 9.26584 7.36449 6.14687C7.36449 3.02852 9.90254 0.5 13.0336 0.5C16.1646 0.5 18.7026 3.02852 18.7026 6.14687ZM5.66914 13.2063C2.53818 13.2063 0 15.734 0 18.853C0 21.9717 2.53818 24.5 5.66914 24.5C8.80022 24.5 11.3385 21.9717 11.3385 18.853C11.3385 15.734 8.80022 13.2063 5.66914 13.2063ZM20.398 13.2058C17.267 13.2058 14.7289 15.734 14.7289 18.853C14.7289 21.9717 17.267 24.5 20.398 24.5C23.5289 24.5 26.0671 21.9717 26.0671 18.853C26.0671 15.734 23.5289 13.2058 20.398 13.2058Z" fill="#6071AE"/>
<path fill-rule="evenodd" clip-rule="evenodd" d="M46.0137 18.7877C46.0876 19.6254 46.7603 20.6917 47.9258 20.6917H48.6077C48.872 20.6917 49.0887 20.4759 49.0887 20.2124V5.27377H49.0857C49.0719 5.0221 48.8632 4.82054 48.6077 4.82054H46.4947C46.2392 4.82054 46.0305 5.0221 46.0163 5.27377H46.0137V6.48762C44.7191 4.89805 42.678 4.23828 40.6311 4.23828C35.9786 4.23828 32.207 7.99802 32.207 12.6362C32.207 17.2746 35.9786 21.0344 40.6311 21.0344V21.0348C42.678 21.0348 44.9086 20.2432 46.0135 18.7857L46.0137 18.7877ZM40.6394 18.0953C37.6804 18.0953 35.2816 15.6514 35.2816 12.6362C35.2816 9.6215 37.6804 7.17748 40.6394 7.17748C43.5983 7.17748 45.9968 9.6215 45.9968 12.6362C45.9968 15.6514 43.5983 18.0953 40.6394 18.0953Z" fill="#6071AE"/>
<path fill-rule="evenodd" clip-rule="evenodd" d="M80.4395 18.7877C80.5134 19.6254 81.1861 20.6917 82.3516 20.6917H83.0335C83.2978 20.6917 83.5142 20.4759 83.5142 20.2124V5.27377H83.5115C83.4977 5.0221 83.2887 4.82054 83.0335 4.82054H80.9205C80.665 4.82054 80.4562 5.0221 80.4419 5.27377H80.4395V6.48762C79.1447 4.89805 77.1036 4.23828 75.0568 4.23828C70.4043 4.23828 66.6328 7.99802 66.6328 12.6362C66.6328 17.2746 70.4043 21.0344 75.0568 21.0344V21.0348C77.1036 21.0348 79.3344 20.2432 80.4392 18.7857L80.4395 18.7877ZM75.0649 18.0953C72.1062 18.0953 69.7073 15.6514 69.7073 12.6362C69.7073 9.6215 72.1062 7.17748 75.0649 7.17748C78.024 7.17748 80.4225 9.6215 80.4225 12.6362C80.4225 15.6514 78.024 18.0953 75.0649 18.0953Z" fill="#6071AE"/>
<path fill-rule="evenodd" clip-rule="evenodd" d="M118.924 18.7877C118.998 19.6254 119.67 20.6917 120.836 20.6917H121.518C121.782 20.6917 121.999 20.4759 121.999 20.2124V5.27377H121.996C121.982 5.0221 121.773 4.82054 121.518 4.82054H119.405C119.149 4.82054 118.941 5.0221 118.927 5.27377H118.924V6.48762C117.629 4.89805 115.588 4.23828 113.541 4.23828C108.889 4.23828 105.117 7.99802 105.117 12.6362C105.117 17.2746 108.889 21.0344 113.541 21.0344V21.0348C115.588 21.0348 117.819 20.2432 118.924 18.7857L118.924 18.7877ZM113.55 18.0953C110.591 18.0953 108.192 15.6514 108.192 12.6362C108.192 9.6215 110.591 7.17748 113.55 7.17748C116.508 7.17748 118.907 9.6215 118.907 12.6362C118.907 15.6514 116.508 18.0953 113.55 18.0953Z" fill="#6071AE"/>
<path fill-rule="evenodd" clip-rule="evenodd" d="M102.444 19.3005L102.443 11.5704H102.443C102.443 7.21302 99.6856 4.27344 95.2882 4.27344C93.1891 4.27344 91.4683 5.48346 90.8606 6.52291C90.7292 5.71014 90.2963 4.85582 88.954 4.85582H88.2698C88.0052 4.85582 87.7891 5.07179 87.7891 5.33532V18.8242V18.8263V20.2752H87.7918C87.8056 20.5265 88.0145 20.7283 88.2701 20.7283H90.383C90.4154 20.7283 90.4471 20.7245 90.4778 20.7185C90.4918 20.7158 90.5048 20.7103 90.5184 20.7065C90.5341 20.7017 90.5504 20.698 90.5654 20.6918C90.5842 20.6841 90.6012 20.6736 90.6187 20.6639C90.6273 20.6587 90.6363 20.655 90.6446 20.6495C90.6657 20.636 90.685 20.6197 90.7037 20.603C90.7067 20.5999 90.7104 20.5979 90.7135 20.5951C90.7345 20.5748 90.7537 20.5525 90.7707 20.5293L90.7708 20.5289C90.8237 20.4565 90.8559 20.3693 90.8611 20.2752H90.8638V11.4506C90.8638 9.11035 92.7672 7.21302 95.115 7.21302C97.4626 7.21302 99.366 9.11035 99.366 11.4506L99.3679 18.8268L99.3684 18.8242C99.3684 18.8307 99.3694 18.8375 99.3694 18.8445V20.2752H99.3723C99.3862 20.5265 99.5949 20.7283 99.8504 20.7283H101.964C101.996 20.7283 102.028 20.7245 102.058 20.7185C102.071 20.7162 102.082 20.7112 102.095 20.7078C102.112 20.7028 102.13 20.6985 102.146 20.6918C102.163 20.6847 102.179 20.6748 102.196 20.6656C102.206 20.66 102.216 20.6559 102.226 20.6495C102.245 20.6368 102.263 20.6213 102.28 20.606C102.285 20.602 102.29 20.5989 102.294 20.5947C102.314 20.5754 102.332 20.5547 102.348 20.5329C102.35 20.5312 102.351 20.5299 102.352 20.5283C102.404 20.4565 102.436 20.3699 102.441 20.2765C102.441 20.2758 102.442 20.2752 102.442 20.2752H102.445V19.3008L102.444 19.3005Z" fill="#6071AE"/>
<path fill-rule="evenodd" clip-rule="evenodd" d="M54.1356 16.6483C55.5462 17.6225 57.0859 18.0956 58.5655 18.0956C59.9751 18.0956 61.4324 17.3671 61.4324 16.0992C61.4324 14.4064 58.2569 14.143 56.2619 13.467C54.2664 12.7911 52.5477 11.3938 52.5477 9.13091C52.5477 5.66836 55.6426 4.23828 58.5313 4.23828C60.3615 4.23828 62.2499 4.83992 63.4742 5.70176C63.8958 6.02024 63.639 6.38588 63.639 6.38588L62.4704 8.04978C62.339 8.23719 62.1093 8.39911 61.7796 8.19627C61.45 7.99356 60.2936 7.17761 58.5313 7.17761C56.7688 7.17761 55.7072 7.98897 55.7072 8.99462C55.7072 10.2006 57.087 10.5799 58.7031 10.9909C61.5195 11.7477 64.5918 12.6573 64.5918 16.0992C64.5918 19.15 61.7293 21.0353 58.5655 21.0353C56.168 21.0353 54.1268 20.354 52.4148 19.1017C52.0581 18.7458 52.3073 18.4155 52.3073 18.4155L53.4702 16.76C53.7068 16.4505 54.0051 16.5585 54.1356 16.6483Z" fill="#6071AE"/>
</svg>
