<svg width="107" height="21" viewBox="0 0 107 21" fill="none" xmlns="http://www.w3.org/2000/svg">
<path d="M11.874 10.7683C12.8285 10.8447 13.6303 11.2265 14.3175 11.9519C15.0048 12.6773 15.3484 13.67 15.3484 14.9299C15.3484 16.4571 14.8521 17.7171 13.8212 18.6334C12.7903 19.5497 11.3395 20.0079 9.3923 20.0079H0V1.91052H9.35412C10.9959 1.91052 12.3322 2.36868 13.3248 3.24682C14.3175 4.16315 14.8139 5.34673 14.8139 6.83575C14.8139 7.98115 14.5084 8.8593 13.8594 9.54654C13.2103 10.2338 12.5612 10.5774 11.8358 10.6538L11.874 10.7683ZM4.46707 9.39382H8.36144C9.0105 9.39382 9.54502 9.20292 9.965 8.82112C10.3468 8.43932 10.5759 7.98115 10.5759 7.33209C10.5759 6.75939 10.385 6.33941 10.0032 5.99579C9.62138 5.65217 9.12504 5.49945 8.55234 5.49945H4.46707V9.39382ZM8.59052 16.419C9.27776 16.419 9.85046 16.2281 10.2323 15.8844C10.6141 15.5408 10.805 15.0445 10.805 14.3954C10.805 13.7845 10.6141 13.3264 10.1941 12.9827C9.81228 12.6391 9.27776 12.4482 8.66688 12.4482H4.46707V16.419H8.59052ZM30.8113 20.0079H26.497V18.7098C25.4279 19.8552 24.0153 20.4279 22.3353 20.4279C20.7318 20.4279 19.4718 19.8933 18.5173 18.8625C17.5628 17.8316 17.0665 16.4571 17.0665 14.7772V6.45395H21.3427V13.8609C21.3427 14.6627 21.5717 15.3117 21.9917 15.8081C22.4117 16.3044 22.9844 16.5335 23.6717 16.5335C24.5498 16.5335 25.237 16.2281 25.7334 15.6172C26.2297 15.0063 26.4588 14.0518 26.4588 12.7537V6.45395H30.7731L30.8113 20.0079ZM44.1362 20.0079H32.6822V19.2061L38.0655 9.89016H32.8349V6.45395H44.0598V7.25573L38.6764 16.5717H44.098V20.0079H44.1362ZM57.4228 20.0079H46.007V19.2061L51.3522 9.89016H46.1215V6.45395H57.3465V7.25573L51.9631 16.5717H57.3847L57.4228 20.0079ZM63.8371 9.66108H71.664V13.5554H63.8371V20.0461H59.37V1.91052H72.3513V5.80489H63.8371V9.66108ZM103.315 14.3572H93.3885C93.6557 16.0372 94.9157 16.9917 96.7865 16.9917C98.2755 16.9917 99.7645 16.419 100.872 15.5408L102.514 18.4043C100.986 19.7024 99.0391 20.4279 96.7865 20.4279C92.2431 20.4279 89.1505 17.6789 89.1505 13.25C89.1505 11.1501 89.8377 9.432 91.2122 8.09569C92.5867 6.75939 94.3048 6.07215 96.3284 6.07215C98.2755 6.07215 99.9173 6.72121 101.254 8.05752C102.59 9.39382 103.277 11.1119 103.315 13.2882V14.3572ZM94.5721 10.1192C94.0375 10.501 93.6557 11.0356 93.4648 11.6846H99.0391C98.8482 10.9974 98.5046 10.4629 98.0083 10.0811C97.5119 9.73744 96.9392 9.54654 96.3284 9.54654C95.6793 9.54654 95.1066 9.73744 94.5721 10.1192ZM87.5088 14.3572H77.5819C77.8492 16.0372 79.1091 16.9917 80.98 16.9917C82.469 16.9917 83.958 16.419 85.0652 15.5408L86.707 18.4043C85.1798 19.7024 83.2326 20.4279 80.98 20.4279C76.4365 20.4279 73.3439 17.6789 73.3439 13.25C73.3439 11.1501 74.0312 9.432 75.4057 8.09569C76.7801 6.75939 78.4983 6.07215 80.5218 6.07215C82.469 6.07215 84.1107 6.72121 85.447 8.05752C86.7833 9.39382 87.4706 11.1119 87.5088 13.2882V14.3572ZM78.7655 10.1192C78.231 10.501 77.8492 11.0356 77.6583 11.6846H83.2326C83.0417 10.9974 82.6981 10.4629 82.2017 10.0811C81.7054 9.73744 81.1327 9.54654 80.5218 9.54654C79.8727 9.54654 79.3 9.73744 78.7655 10.1192ZM120 20.0079H115.686V18.9388C114.578 19.9315 113.204 20.4279 111.486 20.4279C109.653 20.4279 108.088 19.7406 106.79 18.4043C105.492 17.068 104.842 15.3499 104.842 13.25C104.842 11.1501 105.492 9.432 106.79 8.09569C108.088 6.75939 109.653 6.07215 111.486 6.07215C113.204 6.07215 114.617 6.56849 115.686 7.56117V0.574219H120V20.0079ZM114.731 15.7699C115.38 15.1208 115.724 14.2809 115.724 13.25C115.724 12.2573 115.38 11.4174 114.731 10.7301C114.082 10.0811 113.28 9.73744 112.402 9.73744C111.448 9.73744 110.684 10.0811 110.073 10.7301C109.462 11.3792 109.157 12.2191 109.157 13.25C109.157 14.2809 109.462 15.159 110.073 15.8081C110.684 16.4571 111.448 16.7626 112.402 16.7626C113.28 16.7626 114.044 16.419 114.731 15.7699Z" fill="#6071AE"/>
</svg>
