<svg width="713" height="607" viewBox="0 0 713 607" fill="none" xmlns="http://www.w3.org/2000/svg">
<g filter="url(#filter0_d_108_1071)">
<rect x="187.602" y="248" width="274.996" height="197.82" rx="20" transform="rotate(25 187.602 248)" fill="url(#paint0_linear_108_1071)"/>
<rect x="188.569" y="250.658" width="270.996" height="193.82" rx="18" transform="rotate(25 188.569 250.658)" stroke="url(#paint1_linear_108_1071)" stroke-width="4"/>
</g>
<mask id="mask0_108_1071" style="mask-type:alpha" maskUnits="userSpaceOnUse" x="110" y="254" width="321" height="283">
<rect x="187.602" y="248" width="274.996" height="197.82" rx="20" transform="rotate(25 187.602 248)" fill="#0B194D"/>
</mask>
<g mask="url(#mask0_108_1071)">
<path fill-rule="evenodd" clip-rule="evenodd" d="M309.564 522.455L369.489 393.93C371.936 388.682 378.174 386.411 383.422 388.859C388.67 391.306 390.94 397.545 388.493 402.793L328.569 531.318C326.122 536.566 319.884 538.836 314.636 536.389C309.388 533.941 307.117 527.703 309.564 522.455ZM263.922 384.021L219.01 480.348C216.589 485.541 218.835 491.714 224.028 494.136C229.221 496.558 235.393 494.311 237.815 489.118L282.727 392.791C285.148 387.598 282.901 381.425 277.709 379.004C272.516 376.582 266.343 378.828 263.922 384.021ZM176.489 414.42L158.836 452.281C156.415 457.474 158.661 463.647 163.854 466.069C169.047 468.49 175.219 466.244 177.641 461.051L195.293 423.19C197.715 417.997 195.468 411.824 190.275 409.402C185.082 406.98 178.91 409.227 176.489 414.42ZM143.043 407.584L128.746 438.249C126.324 443.442 128.571 449.615 133.764 452.037C138.957 454.459 145.129 452.212 147.55 447.019L161.848 416.354C164.269 411.161 162.022 404.988 156.83 402.566C151.637 400.144 145.464 402.391 143.043 407.584ZM188.921 466.315L195.25 452.74C197.671 447.547 203.844 445.301 209.037 447.722C214.229 450.144 216.476 456.317 214.055 461.51L207.726 475.085C205.304 480.278 199.132 482.525 193.939 480.103C188.746 477.681 186.499 471.508 188.921 466.315ZM248.934 494.18L275.098 438.063C277.545 432.814 283.783 430.544 289.031 432.992C294.279 435.439 296.55 441.678 294.103 446.926L267.938 503.043C265.491 508.291 259.253 510.562 254.005 508.114C248.757 505.667 246.487 499.428 248.934 494.18ZM292.645 479.541L279.186 508.407C276.765 513.6 279.011 519.773 284.204 522.195C289.397 524.617 295.569 522.37 297.991 517.177L311.45 488.311C313.871 483.118 311.624 476.945 306.431 474.523C301.238 472.101 295.066 474.348 292.645 479.541Z" fill="url(#paint2_linear_108_1071)"/>
<path d="M369.489 393.93L368.582 393.507L368.582 393.507L369.489 393.93ZM309.564 522.455L310.471 522.877L309.564 522.455ZM383.422 388.859L382.999 389.765L383.422 388.859ZM388.493 402.793L387.587 402.37L387.587 402.37L388.493 402.793ZM328.569 531.318L329.475 531.74L328.569 531.318ZM219.01 480.348L219.916 480.771L219.01 480.348ZM263.922 384.021L263.016 383.599L263.922 384.021ZM224.028 494.136L224.451 493.23L224.028 494.136ZM237.815 489.118L238.721 489.541L237.815 489.118ZM282.727 392.791L281.821 392.369L282.727 392.791ZM158.836 452.281L159.742 452.703L158.836 452.281ZM176.489 414.42L175.582 413.997L175.582 413.997L176.489 414.42ZM163.854 466.069L163.431 466.975L163.854 466.069ZM177.641 461.051L178.547 461.473L177.641 461.051ZM195.293 423.19L194.387 422.767L194.387 422.767L195.293 423.19ZM190.275 409.402L190.698 408.496L190.275 409.402ZM128.746 438.249L127.839 437.827L128.746 438.249ZM143.043 407.584L142.137 407.161L143.043 407.584ZM133.764 452.037L133.341 452.943L133.764 452.037ZM147.55 447.019L146.644 446.596L147.55 447.019ZM161.848 416.354L160.942 415.931L161.848 416.354ZM156.83 402.566L156.407 403.472L156.83 402.566ZM195.25 452.74L196.157 453.163L195.25 452.74ZM188.921 466.315L188.014 465.893L188.921 466.315ZM209.037 447.722L208.614 448.629L209.037 447.722ZM214.055 461.51L213.149 461.087L214.055 461.51ZM207.726 475.085L208.632 475.508L207.726 475.085ZM275.098 438.063L274.192 437.64L274.192 437.64L275.098 438.063ZM248.934 494.18L249.84 494.603L248.934 494.18ZM289.031 432.992L289.454 432.085L289.031 432.992ZM294.103 446.926L293.196 446.503L293.196 446.503L294.103 446.926ZM267.938 503.043L268.844 503.466L267.938 503.043ZM254.005 508.114L253.583 509.021L253.583 509.021L254.005 508.114ZM279.186 508.407L278.28 507.985L279.186 508.407ZM292.645 479.541L293.551 479.963L292.645 479.541ZM297.991 517.177L297.084 516.755L297.991 517.177ZM311.45 488.311L312.356 488.733L311.45 488.311ZM306.431 474.523L306.854 473.617L306.431 474.523ZM368.582 393.507L308.658 522.032L310.471 522.877L370.395 394.352L368.582 393.507ZM383.844 387.952C378.096 385.271 371.263 387.759 368.582 393.507L370.395 394.352C372.609 389.605 378.252 387.551 382.999 389.765L383.844 387.952ZM389.4 403.216C392.08 397.467 389.593 390.633 383.844 387.952L382.999 389.765C387.747 391.979 389.801 397.623 387.587 402.37L389.4 403.216ZM329.475 531.74L389.4 403.216L387.587 402.37L327.662 530.895L329.475 531.74ZM314.213 537.295C319.962 539.976 326.795 537.489 329.475 531.74L327.662 530.895C325.449 535.643 319.806 537.697 315.059 535.482L314.213 537.295ZM308.658 522.032C305.978 527.781 308.465 534.614 314.213 537.295L315.059 535.482C310.311 533.268 308.257 527.625 310.471 522.877L308.658 522.032ZM219.916 480.771L264.828 384.444L263.016 383.599L218.104 479.925L219.916 480.771ZM224.451 493.23C219.759 491.041 217.728 485.463 219.916 480.771L218.104 479.925C215.449 485.619 217.912 492.387 223.606 495.042L224.451 493.23ZM236.908 488.695C234.72 493.388 229.143 495.418 224.451 493.23L223.606 495.042C229.299 497.697 236.066 495.234 238.721 489.541L236.908 488.695ZM281.821 392.369L236.908 488.695L238.721 489.541L283.633 393.214L281.821 392.369ZM277.286 379.91C281.978 382.098 284.008 387.676 281.821 392.369L283.633 393.214C286.288 387.52 283.824 380.752 278.131 378.097L277.286 379.91ZM264.828 384.444C267.016 379.752 272.594 377.722 277.286 379.91L278.131 378.097C272.438 375.442 265.67 377.905 263.016 383.599L264.828 384.444ZM159.742 452.703L177.395 414.842L175.582 413.997L157.929 451.858L159.742 452.703ZM164.277 465.162C159.585 462.974 157.554 457.396 159.742 452.703L157.929 451.858C155.275 457.552 157.738 464.32 163.431 466.975L164.277 465.162ZM176.734 460.628C174.546 465.321 168.969 467.351 164.277 465.162L163.431 466.975C169.125 469.63 175.892 467.167 178.547 461.473L176.734 460.628ZM194.387 422.767L176.734 460.628L178.547 461.473L196.2 423.612L194.387 422.767ZM189.852 410.308C194.545 412.497 196.575 418.075 194.387 422.767L196.2 423.612C198.854 417.919 196.391 411.151 190.698 408.496L189.852 410.308ZM177.395 414.842C179.583 410.15 185.16 408.12 189.852 410.308L190.698 408.496C185.004 405.84 178.237 408.304 175.582 413.997L177.395 414.842ZM129.652 438.672L143.95 408.006L142.137 407.161L127.839 437.827L129.652 438.672ZM134.187 451.131C129.494 448.942 127.464 443.364 129.652 438.672L127.839 437.827C125.185 443.52 127.648 450.288 133.341 452.943L134.187 451.131ZM146.644 446.596C144.456 451.289 138.879 453.319 134.187 451.131L133.341 452.943C139.035 455.598 145.802 453.135 148.457 447.442L146.644 446.596ZM160.942 415.931L146.644 446.596L148.457 447.442L162.754 416.776L160.942 415.931ZM156.407 403.472C161.099 405.661 163.13 411.239 160.942 415.931L162.754 416.776C165.409 411.083 162.946 404.315 157.252 401.66L156.407 403.472ZM143.95 408.006C146.137 403.314 151.715 401.284 156.407 403.472L157.252 401.66C151.559 399.005 144.791 401.468 142.137 407.161L143.95 408.006ZM194.344 452.318L188.014 465.893L189.827 466.738L196.157 453.163L194.344 452.318ZM209.459 446.816C203.766 444.161 196.999 446.624 194.344 452.318L196.157 453.163C198.344 448.47 203.922 446.44 208.614 448.629L209.459 446.816ZM214.961 461.933C217.616 456.239 215.153 449.471 209.459 446.816L208.614 448.629C213.306 450.817 215.337 456.395 213.149 461.087L214.961 461.933ZM208.632 475.508L214.961 461.933L213.149 461.087L206.819 474.663L208.632 475.508ZM193.516 481.01C199.21 483.665 205.977 481.202 208.632 475.508L206.819 474.663C204.631 479.355 199.054 481.385 194.362 479.197L193.516 481.01ZM188.014 465.893C185.36 471.586 187.823 478.354 193.516 481.01L194.362 479.197C189.669 477.009 187.639 471.431 189.827 466.738L188.014 465.893ZM274.192 437.64L248.027 493.757L249.84 494.603L276.005 438.485L274.192 437.64ZM289.454 432.085C283.705 429.404 276.872 431.891 274.192 437.64L276.005 438.485C278.218 433.738 283.861 431.684 288.608 433.898L289.454 432.085ZM295.009 447.348C297.689 441.6 295.202 434.766 289.454 432.085L288.608 433.898C293.356 436.112 295.41 441.756 293.196 446.503L295.009 447.348ZM268.844 503.466L295.009 447.348L293.196 446.503L267.032 502.621L268.844 503.466ZM253.583 509.021C259.331 511.701 266.164 509.214 268.844 503.466L267.032 502.621C264.818 507.368 259.175 509.422 254.428 507.208L253.583 509.021ZM248.027 493.757C245.347 499.506 247.834 506.34 253.583 509.021L254.428 507.208C249.68 504.994 247.626 499.35 249.84 494.603L248.027 493.757ZM280.092 508.83L293.551 479.963L291.738 479.118L278.28 507.985L280.092 508.83ZM284.627 521.289C279.935 519.1 277.904 513.522 280.092 508.83L278.28 507.985C275.625 513.678 278.088 520.446 283.781 523.101L284.627 521.289ZM297.084 516.755C294.896 521.447 289.319 523.477 284.627 521.289L283.781 523.101C289.475 525.756 296.242 523.293 298.897 517.6L297.084 516.755ZM310.543 487.888L297.084 516.755L298.897 517.6L312.356 488.733L310.543 487.888ZM306.009 475.429C310.701 477.618 312.731 483.196 310.543 487.888L312.356 488.733C315.01 483.04 312.547 476.272 306.854 473.617L306.009 475.429ZM293.551 479.963C295.739 475.271 301.316 473.241 306.009 475.429L306.854 473.617C301.16 470.962 294.393 473.425 291.738 479.118L293.551 479.963Z" fill="url(#paint3_linear_108_1071)"/>
</g>
<path d="M191.788 296.112L193.89 297.092L188.811 307.986L195.191 310.961L194.354 312.756L185.871 308.8L191.788 296.112ZM196.286 311.45L198.805 306.048L201.445 305.072L206.448 307.405L207.415 310.063L204.896 315.465L202.239 316.432L197.236 314.099L196.286 311.45ZM202.081 314.262L203.144 313.875L205.071 309.742L204.684 308.679L201.621 307.251L200.558 307.638L198.631 311.771L199.017 312.834L202.081 314.262ZM210.435 309.264L212.338 310.152L211.62 311.693L213.843 310.853L216.344 312.02L215.524 313.778L213.476 312.823L210.801 313.827L208.274 319.246L206.226 318.291L210.435 309.264ZM213.696 319.59L216.223 314.17L218.863 313.195L223.775 315.485L224.761 318.151L223.189 321.523L216.699 318.497L216.023 319.947L216.391 320.957L219.49 322.402L220.456 322.036L220.709 321.492L222.739 322.439L222.198 323.599L219.62 324.537L214.636 322.213L213.696 319.59ZM221.842 319.063L222.425 317.813L222.056 316.758L219.029 315.346L217.984 315.742L217.401 316.993L221.842 319.063ZM227.694 317.312L229.597 318.2L228.862 319.777L231.156 318.927L233.403 319.975L234.082 321.88L235.995 321.184L239.041 322.604L240.019 325.333L236.68 332.492L234.632 331.537L237.692 324.976L237.314 323.939L235.629 323.153L234.087 323.714L231.188 329.931L229.194 329.002L232.262 322.422L231.895 321.412L230.662 320.837L228.102 321.784L225.533 327.294L223.484 326.339L227.694 317.312ZM249.797 323.162L251.9 324.142L245.983 336.831L243.881 335.85L249.797 323.162ZM252.723 328.984L254.627 329.871L253.967 331.285L256.059 330.539L259.521 332.154L260.488 334.811L257.969 340.213L255.311 341.18L251.831 339.557L251.061 337.896L248.77 342.809L246.722 341.853L252.723 328.984ZM255.171 338.974L256.225 338.605L258.135 334.509L257.74 333.464L255.565 332.449L253.199 333.31L252.025 335.83L252.905 337.918L255.171 338.974ZM259.627 341.141L260.143 340.035L262.155 340.973L261.884 341.553L262.147 342.315L265.228 343.752L265.981 343.463L266.437 342.484L266.157 341.714L262.259 339.896L261.407 337.513L262.354 335.483L264.772 334.602L269.322 336.724L270.203 339.187L269.688 340.293L267.676 339.355L267.946 338.775L267.684 338.012L264.856 336.694L264.104 336.983L263.681 337.889L263.961 338.66L267.84 340.469L268.703 342.879L267.731 344.963L265.312 345.844L260.509 343.604L259.627 341.141ZM269.634 345.63L272.989 338.434L275.037 339.389L271.978 345.951L272.355 346.987L273.932 347.723L276.749 346.697L279.243 341.35L281.291 342.305L277.082 351.332L275.178 350.445L275.956 348.777L273.493 349.658L270.611 348.315L269.634 345.63ZM283.648 343.404L285.551 344.292L284.815 345.869L287.11 345.018L289.357 346.067L290.036 347.972L291.949 347.275L294.994 348.695L295.973 351.424L292.634 358.584L290.586 357.629L293.646 351.067L293.268 350.031L291.583 349.245L290.041 349.806L287.142 356.023L285.148 355.093L288.216 348.514L287.849 347.504L286.616 346.929L284.056 347.876L281.486 353.386L279.438 352.431L283.648 343.404Z" fill="white"/>
<g filter="url(#filter1_d_108_1071)">
<rect x="359.602" y="144" width="274.996" height="197.82" rx="20" transform="rotate(25 359.602 144)" fill="url(#paint4_linear_108_1071)"/>
<rect x="360.569" y="146.658" width="270.996" height="193.82" rx="18" transform="rotate(25 360.569 146.658)" stroke="url(#paint5_linear_108_1071)" stroke-width="4"/>
</g>
<path d="M506.165 312.694L506.991 313.079L503.441 320.692L502.615 320.307L506.165 312.694ZM506.501 320.901L508.23 317.192L507.251 316.736L507.581 316.029L508.582 316.495L509.403 314.734L510.186 315.099L509.365 316.861L511.061 317.652L510.732 318.359L509.035 317.567L507.422 321.026L507.713 321.823L508.865 322.361L508.536 323.068L507.035 322.368L506.501 320.901ZM510.344 322.693L511.936 319.278L513.403 318.744L516.133 320.017L516.678 321.489L515.77 323.436L511.833 321.6L511.265 322.818L511.56 323.604L513.594 324.553L514.386 324.273L514.579 323.86L515.384 324.235L515.075 324.899L513.607 325.433L510.878 324.16L510.344 322.693ZM515.29 322.364L515.756 321.364L515.461 320.577L513.417 319.624L512.624 319.903L512.158 320.904L515.29 322.364ZM518.97 321.34L519.753 321.705L519.266 322.749L520.797 322.192L522.092 322.795L522.544 324.039L523.788 323.586L525.496 324.383L526.03 325.85L523.971 330.265L523.166 329.89L525.108 325.725L524.813 324.938L523.617 324.38L522.5 324.786L520.664 328.723L519.881 328.358L521.824 324.193L521.528 323.406L520.615 322.98L518.893 323.607L517.25 327.131L516.445 326.756L518.97 321.34ZM533.408 326.43L531.29 326.515L531.645 325.754L533.869 325.613L534.63 325.968L531.08 333.581L530.254 333.195L533.408 326.43Z" fill="white"/>
<circle cx="489.755" cy="309.003" r="4" transform="rotate(25 489.755 309.003)" fill="#9AE1FD"/>
<path d="M486.161 352.694L486.987 353.079L483.437 360.692L482.611 360.307L486.161 352.694ZM486.497 360.901L488.226 357.192L487.248 356.736L487.577 356.029L488.578 356.495L489.399 354.734L490.182 355.099L489.361 356.861L491.057 357.652L490.728 358.359L489.031 357.567L487.418 361.026L487.709 361.823L488.861 362.361L488.532 363.068L487.031 362.368L486.497 360.901ZM490.34 362.693L491.932 359.278L493.399 358.744L496.129 360.017L496.674 361.489L495.766 363.436L491.829 361.6L491.261 362.818L491.556 363.604L493.59 364.553L494.383 364.273L494.575 363.86L495.38 364.235L495.071 364.899L493.604 365.433L490.874 364.16L490.34 362.693ZM495.286 362.364L495.753 361.364L495.457 360.577L493.413 359.624L492.62 359.903L492.154 360.904L495.286 362.364ZM498.966 361.34L499.749 361.705L499.263 362.749L500.793 362.192L502.088 362.795L502.54 364.039L503.784 363.586L505.492 364.383L506.026 365.85L503.967 370.265L503.162 369.89L505.104 365.725L504.809 364.938L503.613 364.38L502.496 364.786L500.661 368.723L499.878 368.358L501.82 364.193L501.525 363.406L500.611 362.98L498.889 363.607L497.246 367.131L496.441 366.756L498.966 361.34ZM509.118 371.449L509.513 370.601L510.34 370.986L510.071 371.563L510.366 372.349L512.672 373.424L513.464 373.145L514.24 371.481L513.962 370.715L511.786 369.701L512.131 368.962L514.306 369.976L515.072 369.697L515.828 368.077L515.532 367.29L513.292 366.246L512.5 366.525L512.231 367.101L511.404 366.716L511.8 365.868L513.267 365.334L516.247 366.723L516.781 368.19L515.787 370.322L514.819 370.665L515.173 371.638L514.164 373.802L512.697 374.336L509.652 372.916L509.118 371.449Z" fill="white"/>
<circle cx="470.314" cy="350.691" r="4" transform="rotate(25 470.314 350.691)" fill="#A589FF"/>
<path d="M496.165 331.694L496.991 332.079L493.441 339.692L492.615 339.307L496.165 331.694ZM496.501 339.901L498.23 336.192L497.251 335.736L497.581 335.029L498.582 335.495L499.403 333.734L500.186 334.099L499.365 335.861L501.061 336.652L500.732 337.359L499.035 336.567L497.422 340.026L497.713 340.823L498.865 341.361L498.536 342.068L497.035 341.368L496.501 339.901ZM500.344 341.693L501.936 338.278L503.403 337.744L506.133 339.017L506.678 340.489L505.77 342.436L501.833 340.6L501.265 341.818L501.56 342.604L503.594 343.553L504.386 343.273L504.579 342.86L505.384 343.235L505.075 343.899L503.607 344.433L500.878 343.16L500.344 341.693ZM505.29 341.364L505.756 340.364L505.461 339.577L503.417 338.624L502.624 338.903L502.158 339.904L505.29 341.364ZM508.97 340.34L509.753 340.705L509.266 341.749L510.797 341.192L512.092 341.795L512.544 343.039L513.788 342.586L515.496 343.383L516.03 344.85L513.971 349.265L513.166 348.89L515.108 344.725L514.813 343.938L513.617 343.38L512.5 343.786L510.664 347.723L509.881 347.358L511.824 343.193L511.528 342.406L510.615 341.98L508.893 342.607L507.25 346.131L506.445 345.756L508.97 340.34ZM519.378 350.013L525.195 347.932L525.636 346.985L525.34 346.199L523.231 345.215L522.438 345.494L522.169 346.071L521.343 345.685L521.739 344.837L523.206 344.303L526.055 345.632L526.589 347.099L525.909 348.556L520.093 350.637L519.87 351.116L523.894 352.992L523.549 353.732L518.699 351.47L519.378 350.013Z" fill="white"/>
<circle cx="480.036" cy="329.847" r="4" transform="rotate(25 480.036 329.847)" fill="#07C2FD"/>
<circle cx="404.767" cy="274.295" r="61" transform="rotate(25 404.767 274.295)" fill="#F9F7FF"/>
<mask id="path-16-inside-1_108_1071" fill="white">
<path d="M465.489 268.485C466.684 280.969 464.002 293.518 457.808 304.423C451.614 315.327 442.209 324.058 430.875 329.426C419.54 334.793 406.827 336.537 394.466 334.419C382.105 332.301 370.697 326.425 361.796 317.59L404.767 274.295L465.489 268.485Z"/>
</mask>
<path d="M465.489 268.485C466.684 280.969 464.002 293.518 457.808 304.423C451.614 315.327 442.209 324.058 430.875 329.426C419.54 334.793 406.827 336.537 394.466 334.419C382.105 332.301 370.697 326.425 361.796 317.59L404.767 274.295L465.489 268.485Z" fill="#07C2FD" stroke="url(#paint6_linear_108_1071)" stroke-width="4" mask="url(#path-16-inside-1_108_1071)"/>
<mask id="path-17-inside-2_108_1071" fill="white">
<path d="M383.904 216.974C392.753 213.753 402.227 212.625 411.585 213.677C420.943 214.73 429.931 217.935 437.843 223.041C445.756 228.147 452.378 235.016 457.193 243.11C462.007 251.203 464.882 260.301 465.593 269.692L404.767 274.295L383.904 216.974Z"/>
</mask>
<path d="M383.904 216.974C392.753 213.753 402.227 212.625 411.585 213.677C420.943 214.73 429.931 217.935 437.843 223.041C445.756 228.147 452.378 235.016 457.193 243.11C462.007 251.203 464.882 260.301 465.593 269.692L404.767 274.295L383.904 216.974Z" fill="#9BE3FF" stroke="url(#paint7_linear_108_1071)" stroke-width="4" mask="url(#path-17-inside-2_108_1071)"/>
<mask id="path-18-inside-3_108_1071" fill="white">
<path d="M362.201 317.989C356.086 312.031 351.289 304.856 348.121 296.928L404.767 274.295L362.201 317.989Z"/>
</mask>
<path d="M362.201 317.989C356.086 312.031 351.289 304.856 348.121 296.928L404.767 274.295L362.201 317.989Z" fill="#A589FF" stroke="url(#paint8_linear_108_1071)" stroke-width="2" mask="url(#path-18-inside-3_108_1071)"/>
<g filter="url(#filter2_dd_108_1071)">
<path d="M408.142 237.383C409.075 235.381 411.455 234.515 413.457 235.448L436.071 245.995C438.073 246.929 438.94 249.309 438.006 251.311L433.622 260.714C432.688 262.716 430.309 263.582 428.306 262.649L421.266 259.365L415.058 261.539L412.733 255.386L405.692 252.102C403.69 251.168 402.824 248.788 403.758 246.786L408.142 237.383Z" fill="white"/>
</g>
<path d="M417.731 247.332L416.869 249.181L415.553 249.66L414.583 249.208L414.118 250.205L413.348 249.845L413.813 248.848L412.744 248.35L412.274 247.061L412.595 246.372L413.456 246.773L413.266 247.181L413.47 247.762L414.168 248.087L415.148 245.984L414.097 245.494L413.632 244.196L414.431 242.483L415.72 242.014L416.771 242.504L417.236 241.507L418.006 241.866L417.541 242.863L418.457 243.29L418.926 244.579L418.6 245.277L417.749 244.88L417.943 244.463L417.73 243.878L417.186 243.625L416.274 245.582L417.261 246.043L417.731 247.332ZM415.503 245.223L416.416 243.265L415.745 242.953L415.161 243.165L414.62 244.326L414.833 244.91L415.503 245.223ZM416.743 247.203L416.526 246.627L415.919 246.344L414.938 248.446L415.545 248.73L416.134 248.508L416.743 247.203ZM418.348 249.419L423.13 247.776L423.472 247.042L423.259 246.457L421.592 245.679L421.007 245.892L420.758 246.427L419.888 246.021L420.268 245.205L421.557 244.736L424.004 245.877L424.473 247.166L423.882 248.435L419.135 250.05L418.995 250.349L422.312 251.896L421.961 252.649L417.756 250.687L418.348 249.419ZM423.637 252.36L424.017 251.544L424.887 251.95L424.638 252.484L424.85 253.069L426.663 253.914L427.248 253.702L428.034 252.016L427.817 251.44L424.826 250.045L426.275 246.937L430.408 248.864L430.057 249.616L426.776 248.086L426.033 249.681L428.552 250.856L429.026 252.159L427.987 254.388L426.698 254.857L424.106 253.649L423.637 252.36Z" fill="#0B194D"/>
<path d="M505.757 270.03L507.859 271.01L502.779 281.904L509.16 284.879L508.323 286.674L499.84 282.718L505.757 270.03ZM510.255 285.368L512.774 279.966L515.414 278.99L520.417 281.323L521.384 283.981L518.865 289.383L516.207 290.35L511.204 288.017L510.255 285.368ZM516.05 288.18L517.113 287.793L519.04 283.66L518.653 282.597L515.59 281.169L514.526 281.556L512.599 285.688L512.986 286.752L516.05 288.18ZM524.404 283.182L526.307 284.07L525.588 285.611L527.811 284.771L530.313 285.938L529.493 287.696L527.445 286.741L524.77 287.745L522.243 293.164L520.194 292.209L524.404 283.182ZM527.665 293.508L530.192 288.088L532.832 287.113L537.744 289.403L538.73 292.069L537.157 295.441L530.668 292.415L529.992 293.865L530.36 294.875L533.459 296.32L534.424 295.954L534.678 295.41L536.708 296.357L536.167 297.517L533.589 298.455L528.604 296.131L527.665 293.508ZM535.811 292.981L536.394 291.731L536.025 290.676L532.998 289.264L531.953 289.66L531.37 290.911L535.811 292.981ZM541.662 291.23L543.566 292.118L542.83 293.695L545.124 292.845L547.372 293.893L548.05 295.798L549.964 295.101L553.009 296.521L553.988 299.251L550.649 306.41L548.601 305.455L551.66 298.894L551.283 297.857L549.597 297.071L548.056 297.632L545.157 303.849L543.163 302.92L546.231 296.34L545.863 295.33L544.631 294.755L542.071 295.702L539.501 301.212L537.453 300.257L541.662 291.23Z" fill="white"/>
<defs>
<filter id="filter0_d_108_1071" x="0.574219" y="104.574" width="539.684" height="502.355" filterUnits="userSpaceOnUse" color-interpolation-filters="sRGB">
<feFlood flood-opacity="0" result="BackgroundImageFix"/>
<feColorMatrix in="SourceAlpha" type="matrix" values="0 0 0 0 0 0 0 0 0 0 0 0 0 0 0 0 0 0 127 0" result="hardAlpha"/>
<feOffset dy="-40"/>
<feGaussianBlur stdDeviation="55"/>
<feColorMatrix type="matrix" values="0 0 0 0 0 0 0 0 0 0.7 0 0 0 0 1 0 0 0 0.19 0"/>
<feBlend mode="normal" in2="BackgroundImageFix" result="effect1_dropShadow_108_1071"/>
<feBlend mode="normal" in="SourceGraphic" in2="effect1_dropShadow_108_1071" result="shape"/>
</filter>
<filter id="filter1_d_108_1071" x="172.574" y="0.574219" width="539.684" height="502.355" filterUnits="userSpaceOnUse" color-interpolation-filters="sRGB">
<feFlood flood-opacity="0" result="BackgroundImageFix"/>
<feColorMatrix in="SourceAlpha" type="matrix" values="0 0 0 0 0 0 0 0 0 0 0 0 0 0 0 0 0 0 127 0" result="hardAlpha"/>
<feOffset dy="-40"/>
<feGaussianBlur stdDeviation="55"/>
<feColorMatrix type="matrix" values="0 0 0 0 0 0 0 0 0 0.88 0 0 0 0 1 0 0 0 0.24 0"/>
<feBlend mode="normal" in2="BackgroundImageFix" result="effect1_dropShadow_108_1071"/>
<feBlend mode="normal" in="SourceGraphic" in2="effect1_dropShadow_108_1071" result="shape"/>
</filter>
<filter id="filter2_dd_108_1071" x="379.383" y="215.074" width="83" height="75.9492" filterUnits="userSpaceOnUse" color-interpolation-filters="sRGB">
<feFlood flood-opacity="0" result="BackgroundImageFix"/>
<feColorMatrix in="SourceAlpha" type="matrix" values="0 0 0 0 0 0 0 0 0 0 0 0 0 0 0 0 0 0 127 0" result="hardAlpha"/>
<feOffset dy="4"/>
<feGaussianBlur stdDeviation="12"/>
<feColorMatrix type="matrix" values="0 0 0 0 0 0 0 0 0 0 0 0 0 0 0 0 0 0 0.08 0"/>
<feBlend mode="normal" in2="BackgroundImageFix" result="effect1_dropShadow_108_1071"/>
<feColorMatrix in="SourceAlpha" type="matrix" values="0 0 0 0 0 0 0 0 0 0 0 0 0 0 0 0 0 0 127 0" result="hardAlpha"/>
<feOffset dy="2"/>
<feGaussianBlur stdDeviation="2"/>
<feColorMatrix type="matrix" values="0 0 0 0 0 0 0 0 0 0 0 0 0 0 0 0 0 0 0.08 0"/>
<feBlend mode="normal" in2="effect1_dropShadow_108_1071" result="effect2_dropShadow_108_1071"/>
<feBlend mode="normal" in="SourceGraphic" in2="effect2_dropShadow_108_1071" result="shape"/>
</filter>
<linearGradient id="paint0_linear_108_1071" x1="325.1" y1="248" x2="325.1" y2="445.82" gradientUnits="userSpaceOnUse">
<stop stop-color="#3092ED"/>
<stop offset="1" stop-color="#09447A"/>
</linearGradient>
<linearGradient id="paint1_linear_108_1071" x1="211.902" y1="190.327" x2="302.539" y2="434.389" gradientUnits="userSpaceOnUse">
<stop stop-color="white"/>
<stop offset="1" stop-color="white" stop-opacity="0"/>
</linearGradient>
<linearGradient id="paint2_linear_108_1071" x1="268.26" y1="378.723" x2="161.904" y2="496.559" gradientUnits="userSpaceOnUse">
<stop offset="0.00170496" stop-color="#56C7F4"/>
<stop offset="1" stop-color="#15B7F7" stop-opacity="0"/>
</linearGradient>
<linearGradient id="paint3_linear_108_1071" x1="403.568" y1="329.787" x2="224.238" y2="494.231" gradientUnits="userSpaceOnUse">
<stop stop-color="white"/>
<stop offset="1" stop-color="white" stop-opacity="0"/>
</linearGradient>
<linearGradient id="paint4_linear_108_1071" x1="497.1" y1="144" x2="497.1" y2="341.82" gradientUnits="userSpaceOnUse">
<stop stop-color="#15CEF7"/>
<stop offset="1" stop-color="#9123C5"/>
</linearGradient>
<linearGradient id="paint5_linear_108_1071" x1="383.902" y1="86.3267" x2="474.539" y2="330.389" gradientUnits="userSpaceOnUse">
<stop stop-color="white"/>
<stop offset="1" stop-color="white" stop-opacity="0"/>
</linearGradient>
<linearGradient id="paint6_linear_108_1071" x1="430.546" y1="219.01" x2="378.987" y2="329.58" gradientUnits="userSpaceOnUse">
<stop stop-color="white"/>
<stop offset="1" stop-color="white" stop-opacity="0"/>
</linearGradient>
<linearGradient id="paint7_linear_108_1071" x1="431.998" y1="195.999" x2="407.498" y2="267.499" gradientUnits="userSpaceOnUse">
<stop stop-color="white"/>
<stop offset="1" stop-color="white" stop-opacity="0"/>
</linearGradient>
<linearGradient id="paint8_linear_108_1071" x1="376.998" y1="325.499" x2="369.998" y2="293.499" gradientUnits="userSpaceOnUse">
<stop stop-color="white"/>
<stop offset="1" stop-color="white" stop-opacity="0"/>
</linearGradient>
</defs>
</svg>
