<svg width="695" height="529" viewBox="0 0 695 529" fill="none" xmlns="http://www.w3.org/2000/svg">
<g filter="url(#filter0_d_108_1115)">
<rect x="93" y="252.02" width="246.651" height="177.43" rx="17.9385" transform="rotate(-30 93 252.02)" fill="url(#paint0_linear_108_1115)"/>
<rect x="95.7321" y="252.752" width="242.651" height="173.43" rx="15.9385" transform="rotate(-30 95.7321 252.752)" stroke="url(#paint1_linear_108_1115)" stroke-width="4"/>
</g>
<mask id="mask0_108_1115" style="mask-type:alpha" maskUnits="userSpaceOnUse" x="99" y="135" width="291" height="264">
<rect x="93.2969" y="251.848" width="246.651" height="177.43" rx="17.9385" transform="rotate(-30 93.2969 251.848)" fill="white"/>
</mask>
<g mask="url(#mask0_108_1115)">
<path d="M140.366 340.109L143.604 314.007L159.51 304.736L157.128 262.007L168.88 245.473L182.652 230.989L213.501 246.366L224.329 228.218L230.717 200.822L260.006 214.955L263.163 181.91L299.55 206.971L315.917 198.507L328.305 181.603L357.133 194.929L378.751 194.165" stroke="#15CEF7" stroke-width="1.79385"/>
<path d="M134.446 336.564L142.218 311.589L163.662 312.002L170.973 286.221L177.186 260.003L201.112 263.274L198.269 219.737L221.097 222.572L254.715 242.79L269.697 231.906L281.623 214.194L298.164 204.553L320.992 207.388L345.38 211.466L362.208 203.809L378.749 194.168" stroke="white" stroke-width="1.79385"/>
<g filter="url(#filter1_d_108_1115)">
<path d="M248.844 199.732C247.86 198.012 248.45 195.808 250.162 194.811L279.356 177.795C281.068 176.797 283.253 177.382 284.237 179.102L292.402 193.38C293.385 195.1 292.795 197.303 291.083 198.301L281.543 203.862L279.418 211.936L271.43 209.756L261.89 215.317C260.178 216.315 257.993 215.729 257.009 214.009L248.844 199.732Z" fill="#F7F4FD"/>
<path d="M281.32 203.473L281.158 203.567L281.111 203.748L279.102 211.383L271.549 209.322L271.369 209.273L271.208 209.367L261.667 214.928C260.169 215.801 258.257 215.288 257.396 213.783L249.231 199.506C248.37 198.001 248.887 196.073 250.385 195.2L279.578 178.184C281.076 177.311 282.988 177.823 283.849 179.328L292.014 193.606C292.875 195.111 292.359 197.039 290.861 197.912L281.32 203.473Z" stroke="#E8E0FF" stroke-width="0.896926"/>
</g>
<path d="M268.375 199.315L269.427 201.155L268.992 202.779L268.044 203.332L268.632 204.36L267.572 204.978L266.984 203.95L265.979 204.535L264.398 204.112L263.864 203.177L265.11 202.451L265.425 203.002L265.908 203.132L266.364 202.866L265.386 201.156L264.4 201.731L262.819 201.307L261.831 199.579L262.258 197.984L263.244 197.41L262.656 196.382L263.716 195.764L264.304 196.792L265.196 196.272L266.778 196.695L267.317 197.639L266.071 198.365L265.751 197.805L265.267 197.675L264.923 197.876L265.826 199.455L266.793 198.891L268.375 199.315ZM264.766 200.073L263.863 198.494L263.426 198.748L263.296 199.236L263.846 200.198L264.329 200.327L264.766 200.073ZM267.348 200.424L266.865 200.295L266.446 200.539L267.424 202.248L267.833 202.01L267.968 201.508L267.348 200.424ZM270.286 200.119L271.886 195.113L271.507 194.449L271.024 194.32L269.518 195.198L269.387 195.685L269.766 196.349L268.502 197.086L267.903 196.039L268.33 194.445L270.971 192.906L272.553 193.329L273.365 194.749L271.752 199.626L271.806 199.719L275.144 197.774L275.753 198.839L271.104 201.549L270.286 200.119ZM276.232 197.214L275.623 196.149L276.887 195.412L277.277 196.094L277.761 196.223L279.416 195.259L279.546 194.772L278.702 193.295L278.219 193.166L275.085 194.992L273.162 191.629L277.737 188.962L278.357 190.046L275.028 191.986L275.711 193.182L278.157 191.757L279.753 192.184L281.03 194.418L280.603 196.012L277.813 197.638L276.232 197.214Z" fill="#232D42"/>
<path opacity="0.7" d="M187.897 338.846L188.605 338.437L192.012 344.338L195.33 342.422L195.69 343.046L191.664 345.371L187.897 338.846ZM196.255 341.577L194.565 338.65L194.928 337.297L197.314 335.92L198.666 336.282L200.356 339.209L199.994 340.562L197.608 341.939L196.255 341.577ZM199.34 340.119L199.543 339.393L198.1 336.895L197.371 336.707L195.581 337.74L195.379 338.466L196.821 340.964L197.551 341.152L199.34 340.119ZM199.79 334.49L200.461 334.103L200.94 334.932L201.291 333.624L202.493 332.93L202.848 333.545L201.823 334.137L201.405 335.695L203.16 338.734L202.47 339.132L199.79 334.49ZM205.542 336.215L203.852 333.288L204.215 331.936L206.554 330.585L207.916 330.942L208.88 332.61L205.505 334.558L206.108 335.602L206.838 335.79L208.581 334.784L208.783 334.058L208.579 333.704L209.268 333.305L209.597 333.874L209.234 335.227L206.895 336.577L205.542 336.215ZM207.845 332.412L207.35 331.554L206.62 331.367L204.868 332.379L204.666 333.104L205.161 333.962L207.845 332.412ZM208.986 329.181L209.657 328.793L210.174 329.688L210.552 328.277L211.661 327.636L212.808 327.944L213.115 326.797L214.579 325.952L215.931 326.314L218.116 330.099L217.426 330.497L215.365 326.927L214.636 326.739L213.61 327.331L213.334 328.36L215.283 331.735L214.611 332.122L212.55 328.552L211.821 328.365L211.038 328.817L210.612 330.404L212.356 333.425L211.666 333.823L208.986 329.181ZM218.69 321.068L219.399 320.659L223.166 327.183L222.457 327.592L218.69 321.068ZM222.289 321.501L222.96 321.113L223.439 321.943L223.789 320.634L225.532 319.628L226.885 319.99L228.575 322.917L228.212 324.27L226.423 325.303L225.271 325.073L226.799 327.72L226.109 328.119L222.289 321.501ZM227.559 323.827L227.761 323.101L226.319 320.603L225.589 320.415L224.331 321.142L223.909 322.715L224.835 324.318L226.198 324.612L227.559 323.827ZM230.012 322.212L229.678 321.634L230.368 321.235L230.589 321.618L231.171 321.766L232.887 320.776L233.05 320.197L232.635 319.479L232.047 319.322L230.043 320.479L228.881 320.167L228.252 319.077L228.575 317.871L230.756 316.612L231.962 316.935L232.295 317.513L231.606 317.911L231.385 317.529L230.802 317.381L229.218 318.296L229.055 318.874L229.447 319.555L230.036 319.712L232.012 318.571L233.217 318.894L233.852 319.994L233.529 321.2L231.218 322.535L230.012 322.212ZM235.225 319.078L233.04 315.293L233.73 314.895L235.791 318.465L236.521 318.653L237.453 318.114L237.941 316.291L236.284 313.42L236.974 313.022L239.654 317.664L238.983 318.052L238.412 317.063L237.995 318.622L236.578 319.44L235.225 319.078ZM238.686 312.033L239.357 311.646L239.874 312.541L240.252 311.129L241.361 310.489L242.508 310.796L242.815 309.649L244.279 308.805L245.631 309.167L247.816 312.951L247.127 313.35L245.065 309.78L244.336 309.592L243.31 310.184L243.035 311.213L244.983 314.587L244.312 314.975L242.25 311.405L241.521 311.217L240.738 311.669L240.312 313.257L242.056 316.277L241.366 316.675L238.686 312.033Z" fill="white"/>
<circle cx="178.604" cy="348.903" r="3.5877" transform="rotate(-30 178.604 348.903)" fill="#15CEF7"/>
<path d="M206.167 356.359L207.422 358.534L206.94 360.335L205.809 360.988L206.499 362.184L205.423 362.806L204.732 361.61L203.503 362.319L201.737 361.846L201.184 360.889L202.424 360.173L202.757 360.749L203.408 360.924L204.104 360.522L202.798 358.26L201.591 358.957L199.831 358.495L198.657 356.461L199.13 354.694L200.337 353.997L199.647 352.801L200.723 352.18L201.414 353.376L202.48 352.76L204.246 353.234L204.805 354.202L203.565 354.917L203.226 354.33L202.564 354.162L202.042 354.463L203.247 356.551L204.4 355.886L206.167 356.359ZM202.171 357.173L200.965 355.085L200.302 355.468L200.116 356.126L200.845 357.387L201.507 357.556L202.171 357.173ZM205.153 357.466L204.484 357.287L203.875 357.639L205.181 359.901L205.779 359.555L205.963 358.869L205.153 357.466ZM209.026 357.637L208.493 356.713L209.754 355.984L210.055 356.506L210.742 356.69L212.721 355.547L212.905 354.861L211.768 352.893L211.483 353.956L209.058 355.357L207.291 354.883L205.816 352.328L206.289 350.561L209.53 348.69L211.297 349.163L214.398 354.535L213.925 356.302L210.793 358.11L209.026 357.637ZM210.725 352.944L211.065 351.675L210.268 350.294L209.581 350.11L207.494 351.316L207.31 352.002L208.321 353.753L209.007 353.936L210.725 352.944ZM216.047 353.584L212.945 348.212L213.418 346.445L216.616 344.599L218.382 345.072L218.96 346.073L217.698 346.801L217.353 346.203L216.667 346.019L214.623 347.2L214.439 347.886L215.619 349.93L215.929 348.809L218.31 347.434L220.077 347.907L221.527 350.419L221.054 352.186L217.813 354.057L216.047 353.584ZM219.85 351.431L220.034 350.745L219.048 349.038L218.362 348.854L216.731 349.796L216.366 351.224L217.076 352.453L217.762 352.637L219.85 351.431ZM222.618 349.152L224.432 343.203L223.949 342.366L223.286 342.198L221.416 343.278L221.23 343.936L221.638 344.642L220.377 345.371L219.749 344.283L220.223 342.517L223.224 340.784L224.991 341.257L225.907 342.845L224.082 348.698L224.213 348.927L228.161 346.648L228.782 347.724L223.541 350.75L222.618 349.152ZM229.804 346.584L229.439 345.953L229.614 345.301L230.31 344.899L230.957 345.091L231.309 345.7L231.151 346.356L230.455 346.758L229.804 346.584ZM231.998 344.374L231.377 343.297L232.638 342.569L233.04 343.265L233.703 343.434L235.769 342.241L235.954 341.583L235.157 340.201L234.522 340.031L232.347 341.287L231.72 340.2L233.894 338.944L234.064 338.309L233.292 336.972L232.63 336.803L230.629 337.959L230.443 338.617L230.845 339.313L229.583 340.041L228.962 338.964L229.435 337.198L232.567 335.389L234.334 335.863L235.539 337.951L235.285 338.866L236.211 339.114L237.436 341.235L236.962 343.002L233.765 344.847L231.998 344.374ZM239.079 340.286L238.546 339.361L239.807 338.633L240.108 339.155L240.795 339.339L242.774 338.196L242.958 337.51L241.821 335.542L241.536 336.605L239.111 338.005L237.344 337.532L235.869 334.976L236.342 333.21L239.583 331.339L241.35 331.812L244.451 337.184L243.978 338.951L240.846 340.759L239.079 340.286ZM240.778 335.593L241.118 334.324L240.321 332.943L239.635 332.759L237.547 333.964L237.363 334.651L238.374 336.401L239.06 336.585L240.778 335.593Z" fill="white"/>
<path opacity="0.7" d="M268.967 293.104L269.675 292.695L273.082 298.595L276.4 296.68L276.761 297.304L272.734 299.629L268.967 293.104ZM277.325 295.835L275.635 292.908L275.998 291.555L278.384 290.178L279.737 290.54L281.426 293.467L281.064 294.82L278.678 296.197L277.325 295.835ZM280.411 294.377L280.613 293.651L279.171 291.153L278.441 290.965L276.651 291.998L276.449 292.724L277.891 295.222L278.621 295.41L280.411 294.377ZM280.86 288.748L281.531 288.361L282.01 289.19L282.361 287.882L283.563 287.187L283.918 287.803L282.893 288.395L282.476 289.953L284.23 292.992L283.54 293.39L280.86 288.748ZM286.612 290.473L284.923 287.546L285.285 286.193L287.625 284.843L288.987 285.2L289.95 286.868L286.576 288.816L287.178 289.86L287.908 290.048L289.651 289.042L289.853 288.316L289.649 287.962L290.339 287.563L290.667 288.132L290.305 289.485L287.965 290.835L286.612 290.473ZM288.916 286.67L288.421 285.812L287.691 285.625L285.938 286.636L285.736 287.362L286.231 288.22L288.916 286.67ZM290.056 283.439L290.727 283.051L291.244 283.946L291.622 282.535L292.731 281.894L293.878 282.201L294.186 281.055L295.649 280.21L297.002 280.572L299.187 284.357L298.497 284.755L296.436 281.185L295.706 280.997L294.681 281.589L294.405 282.618L296.353 285.993L295.682 286.38L293.621 282.81L292.891 282.622L292.108 283.074L291.682 284.662L293.426 287.682L292.736 288.081L290.056 283.439ZM299.76 275.325L300.469 274.916L304.236 281.441L303.528 281.85L299.76 275.325ZM303.359 275.758L304.03 275.371L304.509 276.2L304.86 274.892L306.603 273.886L307.955 274.248L309.645 277.175L309.283 278.528L307.493 279.561L306.341 279.331L307.87 281.978L307.18 282.376L303.359 275.758ZM308.629 278.085L308.832 277.359L307.389 274.861L306.66 274.673L305.401 275.4L304.98 276.973L305.905 278.576L307.268 278.87L308.629 278.085ZM311.082 276.469L310.749 275.891L311.438 275.493L311.659 275.875L312.242 276.024L313.957 275.033L314.12 274.455L313.705 273.737L313.117 273.579L311.113 274.736L309.952 274.425L309.322 273.335L309.645 272.129L311.826 270.87L313.032 271.193L313.366 271.771L312.676 272.169L312.455 271.787L311.872 271.638L310.288 272.553L310.125 273.132L310.518 273.813L311.106 273.97L313.082 272.829L314.288 273.152L314.923 274.252L314.6 275.458L312.288 276.792L311.082 276.469ZM316.295 273.335L314.11 269.551L314.8 269.153L316.861 272.723L317.591 272.91L318.523 272.372L319.012 270.549L317.354 267.678L318.044 267.28L320.724 271.922L320.053 272.309L319.482 271.321L319.065 272.88L317.648 273.698L316.295 273.335ZM319.756 266.291L320.428 265.904L320.944 266.799L321.322 265.387L322.432 264.747L323.578 265.054L323.886 263.907L325.349 263.062L326.702 263.425L328.887 267.209L328.197 267.607L326.136 264.037L325.406 263.85L324.381 264.442L324.105 265.471L326.053 268.845L325.382 269.233L323.321 265.663L322.591 265.475L321.808 265.927L321.383 267.515L323.126 270.535L322.436 270.933L319.756 266.291Z" fill="white"/>
<circle cx="259.678" cy="303.161" r="3.5877" transform="rotate(-30 259.678 303.161)" fill="white"/>
<path d="M286.342 309.062L287.598 311.237L287.116 313.038L285.985 313.691L286.675 314.887L285.599 315.509L284.908 314.313L283.679 315.022L281.912 314.549L281.36 313.592L282.6 312.876L282.932 313.452L283.584 313.627L284.28 313.225L282.974 310.963L281.767 311.66L280.007 311.198L278.833 309.164L279.306 307.397L280.513 306.7L279.822 305.504L280.899 304.883L281.59 306.079L282.655 305.464L284.422 305.937L284.981 306.905L283.741 307.621L283.402 307.033L282.739 306.865L282.217 307.166L283.423 309.254L284.576 308.589L286.342 309.062ZM282.346 309.876L281.141 307.788L280.478 308.171L280.292 308.829L281.02 310.09L281.683 310.259L282.346 309.876ZM285.329 310.169L284.66 309.99L284.051 310.342L285.357 312.604L285.955 312.258L286.139 311.572L285.329 310.169ZM289.202 310.34L288.668 309.416L289.93 308.687L290.231 309.209L290.917 309.393L292.896 308.251L293.08 307.564L291.944 305.596L291.659 306.66L289.234 308.06L287.467 307.586L285.992 305.031L286.465 303.264L289.706 301.393L291.473 301.866L294.574 307.238L294.101 309.005L290.969 310.813L289.202 310.34ZM290.901 305.647L291.241 304.378L290.443 302.997L289.757 302.813L287.669 304.019L287.485 304.705L288.496 306.456L289.182 306.639L290.901 305.647ZM296.222 306.287L293.121 300.915L293.594 299.148L296.791 297.302L298.558 297.776L299.136 298.776L297.874 299.504L297.529 298.906L296.843 298.722L294.798 299.903L294.615 300.589L295.795 302.633L296.105 301.512L298.486 300.137L300.253 300.61L301.703 303.123L301.23 304.889L297.989 306.76L296.222 306.287ZM300.026 304.135L300.209 303.448L299.224 301.741L298.538 301.557L296.906 302.499L296.542 303.927L297.252 305.156L297.938 305.34L300.026 304.135ZM302.794 301.855L304.608 295.906L304.125 295.069L303.462 294.901L301.592 295.981L301.406 296.639L301.814 297.346L300.553 298.074L299.925 296.986L300.398 295.22L303.4 293.487L305.166 293.96L306.083 295.548L304.257 301.401L304.389 301.63L308.337 299.351L308.958 300.427L303.717 303.453L302.794 301.855ZM309.979 299.287L309.615 298.656L309.79 298.004L310.486 297.602L311.133 297.794L311.485 298.403L311.327 299.06L310.631 299.461L309.979 299.287ZM312.174 297.077L311.552 296.001L312.814 295.272L313.216 295.968L313.878 296.137L315.945 294.944L316.13 294.286L315.333 292.905L314.698 292.734L312.523 293.99L311.895 292.903L314.07 291.647L314.24 291.012L313.468 289.675L312.805 289.506L310.804 290.662L310.619 291.32L311.021 292.016L309.759 292.744L309.138 291.667L309.611 289.901L312.743 288.092L314.51 288.566L315.715 290.654L315.461 291.569L316.387 291.817L317.611 293.938L317.138 295.705L313.941 297.551L312.174 297.077ZM319.255 292.989L318.721 292.065L319.983 291.336L320.284 291.858L320.97 292.042L322.95 290.899L323.133 290.213L321.997 288.245L321.712 289.308L319.287 290.709L317.52 290.235L316.045 287.68L316.518 285.913L319.759 284.042L321.526 284.515L324.627 289.887L324.154 291.654L321.022 293.462L319.255 292.989ZM320.954 288.296L321.294 287.027L320.496 285.646L319.81 285.462L317.722 286.668L317.539 287.354L318.549 289.104L319.235 289.288L320.954 288.296Z" fill="white"/>
</g>
<g filter="url(#filter2_d_108_1115)">
<rect x="299.914" y="318.703" width="246.651" height="177.43" rx="17.9385" transform="rotate(-30 299.914 318.703)" fill="url(#paint2_linear_108_1115)"/>
<rect x="302.646" y="319.435" width="242.651" height="173.43" rx="15.9385" transform="rotate(-30 302.646 319.435)" stroke="url(#paint3_linear_108_1115)" stroke-width="4"/>
</g>
<path d="M381.541 411.432C390.612 406.166 382.926 392.78 392.088 387.461C401.159 382.195 398.224 377.083 407.386 371.764C416.457 366.498 405.671 347.712 414.833 342.393C423.904 337.127 429.389 346.68 438.551 341.361C447.622 336.095 457.785 353.794 466.856 348.528C476.018 343.209 460.462 316.117 469.533 310.851C478.695 305.532 495.811 335.34 504.882 330.073C514.044 324.755 512.044 321.272 521.116 316.006C530.278 310.687 536.478 321.486 545.549 316.22" stroke="#15CEF7" stroke-width="1.79385"/>
<path d="M381.542 411.437C390.613 406.17 384.901 396.222 394.063 390.903C403.134 385.637 408.139 394.354 417.301 389.035C426.373 383.769 424.686 380.831 433.848 375.513C442.919 370.246 436.029 358.245 445.191 352.927C454.262 347.66 446.301 333.796 455.373 328.53C464.535 323.211 475.215 341.813 484.287 336.546C493.449 331.228 489.695 324.69 498.766 319.424C507.928 314.105 511.174 319.758 520.245 314.492C529.407 309.173 536.479 321.49 545.551 316.224" stroke="white" stroke-width="1.79385"/>
<path d="M384.186 409.903C384.62 410.659 384.361 411.526 383.752 411.88C383.143 412.234 382.266 412.026 381.832 411.27C381.398 410.513 381.657 409.646 382.266 409.293C382.876 408.939 383.752 409.147 384.186 409.903Z" fill="white" stroke="#1F78B4" stroke-width="1.79385"/>
<path d="M394.394 385.849C394.764 386.494 394.543 387.315 393.906 387.684C393.27 388.053 392.452 387.836 392.082 387.191C391.712 386.546 391.933 385.725 392.569 385.356C393.206 384.986 394.023 385.204 394.394 385.849Z" fill="white" stroke="#15CEF7" stroke-width="1.79385"/>
<path d="M409.972 369.904C410.342 370.549 410.121 371.369 409.484 371.739C408.848 372.108 408.031 371.89 407.66 371.246C407.29 370.601 407.511 369.78 408.148 369.41C408.784 369.041 409.601 369.259 409.972 369.904Z" fill="white" stroke="#15CEF7" stroke-width="1.79385"/>
<path d="M417.323 340.775C417.693 341.42 417.472 342.24 416.836 342.61C416.2 342.979 415.382 342.762 415.012 342.117C414.642 341.472 414.863 340.651 415.499 340.282C416.135 339.912 416.953 340.13 417.323 340.775Z" fill="white" stroke="#15CEF7" stroke-width="1.79385"/>
<path d="M441.229 339.326C441.6 339.97 441.378 340.791 440.742 341.161C440.106 341.53 439.288 341.312 438.918 340.667C438.548 340.023 438.769 339.202 439.405 338.832C440.042 338.463 440.859 338.681 441.229 339.326Z" fill="white" stroke="#15CEF7" stroke-width="1.79385"/>
<path d="M469.514 346.555C469.949 347.312 469.69 348.178 469.08 348.532C468.471 348.886 467.595 348.678 467.16 347.922C466.726 347.166 466.985 346.299 467.595 345.945C468.204 345.591 469.08 345.799 469.514 346.555Z" fill="white" stroke="#15CEF7" stroke-width="1.79385"/>
<path d="M471.999 309.037C472.369 309.681 472.148 310.502 471.512 310.872C470.875 311.241 470.058 311.023 469.688 310.378C469.317 309.733 469.539 308.913 470.175 308.543C470.811 308.174 471.629 308.392 471.999 309.037Z" fill="white" stroke="#15CEF7" stroke-width="1.79385"/>
<path d="M507.495 327.787C507.865 328.431 507.644 329.252 507.008 329.622C506.372 329.991 505.554 329.773 505.184 329.128C504.813 328.483 505.035 327.663 505.671 327.293C506.307 326.924 507.125 327.142 507.495 327.787Z" fill="white" stroke="#15CEF7" stroke-width="1.79385"/>
<path d="M523.885 314.298C524.32 315.054 524.061 315.921 523.451 316.274C522.842 316.628 521.966 316.42 521.531 315.664C521.097 314.908 521.356 314.041 521.966 313.687C522.575 313.333 523.451 313.541 523.885 314.298Z" fill="white" stroke="#15CEF7" stroke-width="1.79385"/>
<path d="M548.678 314.407C549.113 315.163 548.854 316.03 548.244 316.384C547.635 316.738 546.759 316.53 546.324 315.773C545.89 315.017 546.149 314.15 546.759 313.797C547.368 313.443 548.244 313.651 548.678 314.407Z" fill="white" stroke="#15CEF7" stroke-width="1.79385"/>
<path d="M384.069 409.798C384.44 410.443 384.218 411.264 383.582 411.633C382.946 412.003 382.128 411.785 381.758 411.14C381.388 410.495 381.609 409.674 382.245 409.305C382.881 408.936 383.699 409.153 384.069 409.798Z" fill="white" stroke="white" stroke-width="1.79385"/>
<path d="M396.179 388.954C396.549 389.599 396.328 390.42 395.691 390.79C395.055 391.159 394.238 390.941 393.867 390.296C393.497 389.651 393.718 388.831 394.355 388.461C394.991 388.092 395.808 388.31 396.179 388.954Z" fill="white" stroke="white" stroke-width="1.79385"/>
<path d="M419.784 386.99C420.154 387.635 419.933 388.455 419.297 388.825C418.661 389.194 417.843 388.976 417.473 388.331C417.102 387.687 417.324 386.866 417.96 386.496C418.596 386.127 419.414 386.345 419.784 386.99Z" fill="white" stroke="white" stroke-width="1.79385"/>
<path d="M436.061 373.4C436.432 374.045 436.211 374.865 435.574 375.235C434.938 375.604 434.12 375.387 433.75 374.742C433.38 374.097 433.601 373.276 434.237 372.907C434.874 372.537 435.691 372.755 436.061 373.4Z" fill="white" stroke="white" stroke-width="1.79385"/>
<path d="M447.769 350.72C448.139 351.365 447.918 352.186 447.281 352.555C446.645 352.925 445.827 352.707 445.457 352.062C445.087 351.417 445.308 350.596 445.944 350.227C446.581 349.858 447.398 350.075 447.769 350.72Z" fill="white" stroke="white" stroke-width="1.79385"/>
<path d="M457.804 326.255C458.174 326.9 457.953 327.721 457.316 328.09C456.68 328.46 455.863 328.242 455.492 327.597C455.122 326.952 455.343 326.131 455.98 325.762C456.616 325.393 457.433 325.61 457.804 326.255Z" fill="white" stroke="white" stroke-width="1.79385"/>
<path d="M486.569 334.412C486.94 335.056 486.718 335.877 486.082 336.247C485.446 336.616 484.628 336.398 484.258 335.753C483.888 335.108 484.109 334.288 484.745 333.918C485.381 333.549 486.199 333.767 486.569 334.412Z" fill="white" stroke="white" stroke-width="1.79385"/>
<path d="M501.546 317.431C501.916 318.076 501.695 318.897 501.059 319.266C500.422 319.635 499.605 319.418 499.234 318.773C498.864 318.128 499.085 317.307 499.722 316.938C500.358 316.568 501.176 316.786 501.546 317.431Z" fill="white" stroke="white" stroke-width="1.79385"/>
<path d="M522.878 312.642C523.248 313.287 523.027 314.108 522.391 314.477C521.754 314.846 520.937 314.629 520.567 313.984C520.196 313.339 520.417 312.518 521.054 312.149C521.69 311.779 522.508 311.997 522.878 312.642Z" fill="white" stroke="white" stroke-width="1.79385"/>
<path d="M548.561 314.302C548.932 314.947 548.71 315.768 548.074 316.137C547.438 316.507 546.62 316.289 546.25 315.644C545.88 314.999 546.101 314.178 546.737 313.809C547.374 313.44 548.191 313.657 548.561 314.302Z" fill="white" stroke="white" stroke-width="1.79385"/>
<g filter="url(#filter3_d_108_1115)">
<path d="M365.658 374.146C364.671 372.428 365.26 370.229 366.974 369.234L391.668 354.898C393.382 353.903 395.57 354.49 396.557 356.208L402.618 366.764C403.604 368.482 403.015 370.681 401.302 371.676L393.369 376.281L391.363 383.038L384.54 381.407L376.607 386.012C374.894 387.007 372.705 386.42 371.718 384.702L365.658 374.146Z" fill="#F7F4FD"/>
<path d="M393.145 375.892L392.991 375.982L392.94 376.154L391.055 382.503L384.645 380.969L384.472 380.928L384.317 381.018L376.384 385.623C374.885 386.493 372.969 385.98 372.106 384.477L366.045 373.921C365.182 372.418 365.698 370.493 367.197 369.623L391.891 355.287C393.391 354.417 395.306 354.93 396.169 356.433L402.23 366.989C403.093 368.492 402.578 370.417 401.078 371.287L393.145 375.892Z" stroke="#E8E0FF" stroke-width="0.896926"/>
</g>
<path d="M381.34 372.675L382.219 374.207L381.857 375.558L381.066 376.017L381.557 376.873L380.673 377.386L380.182 376.531L379.344 377.017L378.024 376.663L377.577 375.885L378.617 375.282L378.88 375.741L379.284 375.849L379.664 375.628L378.846 374.205L378.024 374.682L376.704 374.329L375.878 372.89L376.233 371.563L377.056 371.086L376.564 370.23L377.449 369.717L377.94 370.573L378.685 370.14L380.005 370.494L380.456 371.28L379.416 371.883L379.148 371.416L378.745 371.308L378.458 371.475L379.213 372.789L380.019 372.321L381.34 372.675ZM378.328 373.303L377.574 371.988L377.209 372.2L377.1 372.605L377.56 373.406L377.964 373.514L378.328 373.303ZM380.483 373.597L380.08 373.489L379.731 373.692L380.548 375.115L380.889 374.917L381.001 374.499L380.483 373.597ZM382.987 373.315L384.319 369.151L384.002 368.599L383.599 368.49L382.342 369.22L382.233 369.625L382.55 370.178L381.496 370.79L380.995 369.919L381.351 368.592L383.554 367.313L384.874 367.667L385.553 368.85L384.21 372.906L384.255 372.984L387.04 371.367L387.549 372.254L383.67 374.505L382.987 373.315ZM387.999 370.873L387.49 369.986L388.545 369.373L388.871 369.941L389.274 370.049L390.655 369.248L390.763 368.842L390.058 367.613L389.654 367.505L387.04 369.023L385.433 366.223L389.249 364.007L389.767 364.909L386.99 366.522L387.562 367.517L389.602 366.333L390.934 366.69L392.001 368.549L391.646 369.875L389.319 371.226L387.999 370.873Z" fill="#232D42"/>
<path d="M336.751 330.642L338.856 329.408L344.044 338.53L349.46 335.355L350.48 337.149L342.959 341.557L336.751 330.642ZM350.328 335.075L347.757 330.553L348.428 327.997L352.854 325.403L355.371 326.09L357.942 330.612L357.271 333.168L352.844 335.763L350.328 335.075ZM355.305 332.034L355.536 331.17L353.691 327.927L352.839 327.699L350.394 329.132L350.163 329.995L352.007 333.239L352.859 333.467L355.305 332.034ZM356.148 323.472L358.036 322.366L358.772 323.66L359.274 321.64L361.471 320.352L362.465 322.098L360.685 323.142L360.07 325.581L362.607 330.041L360.564 331.238L356.148 323.472ZM365.444 326.257L362.855 321.703L363.526 319.147L367.875 316.598L370.407 317.277L372.083 320.224L366.573 323.453L367.141 324.451L367.929 324.676L370.451 323.197L370.641 322.441L370.41 322.036L372.422 320.857L372.998 321.87L372.353 324.328L367.912 326.931L365.444 326.257ZM369.224 319.987L368.71 319.082L367.873 318.845L365.459 320.26L365.243 321.114L365.758 322.019L369.224 319.987ZM371.11 314.702L372.998 313.596L373.725 314.874L374.251 312.861L376.201 311.718L377.865 312.177L378.306 310.484L380.999 308.906L383.612 309.619L387.071 315.701L385.028 316.898L381.915 311.425L381.079 311.188L379.779 311.95L379.429 313.257L382.382 318.449L380.401 319.611L377.27 314.106L376.483 313.882L375.554 314.426L374.961 316.686L377.569 321.271L375.526 322.468L371.11 314.702Z" fill="white"/>
<rect opacity="0.2" x="0.608589" y="0.163055" width="27.8047" height="27.8047" rx="3.13924" transform="matrix(0.862719 -0.505684 0.494337 0.86927 475.73 243.2)" stroke="white" stroke-width="0.896926"/>
<path fill-rule="evenodd" clip-rule="evenodd" d="M489.082 248.216C488.592 247.354 488.888 246.25 489.743 245.749L495.933 242.121C496.788 241.62 497.878 241.912 498.368 242.773L501.915 249.01C502.404 249.871 502.109 250.976 501.254 251.477L495.064 255.105C494.209 255.606 493.119 255.314 492.629 254.453L489.082 248.216Z" stroke="white" stroke-width="1.79385" stroke-linecap="round" stroke-linejoin="round"/>
<path d="M494.312 241.684L495.495 243.763" stroke="white" stroke-width="1.79385" stroke-linecap="round" stroke-linejoin="round"/>
<path d="M490.18 244.102L491.362 246.181" stroke="white" stroke-width="1.79385" stroke-linecap="round" stroke-linejoin="round"/>
<path d="M489.965 249.777L499.25 244.335" stroke="white" stroke-width="1.79385" stroke-linecap="round" stroke-linejoin="round"/>
<path d="M472.604 394.331L473.312 393.922L476.719 399.822L480.037 397.906L480.397 398.531L476.371 400.855L472.604 394.331ZM480.962 397.061L479.272 394.135L479.635 392.782L482.021 391.404L483.373 391.767L485.063 394.693L484.701 396.046L482.315 397.424L480.962 397.061ZM484.047 395.603L484.25 394.877L482.807 392.379L482.078 392.192L480.288 393.225L480.086 393.951L481.528 396.449L482.258 396.636L484.047 395.603ZM484.497 389.975L485.168 389.587L485.647 390.417L485.998 389.108L487.2 388.414L487.555 389.029L486.53 389.621L486.112 391.18L487.867 394.218L487.177 394.617L484.497 389.975ZM490.249 391.699L488.559 388.773L488.922 387.42L491.261 386.069L492.623 386.426L493.587 388.095L490.212 390.043L490.815 391.087L491.545 391.274L493.288 390.268L493.49 389.542L493.286 389.188L493.975 388.79L494.304 389.358L493.941 390.711L491.602 392.062L490.249 391.699ZM492.552 387.896L492.057 387.039L491.328 386.851L489.575 387.863L489.373 388.589L489.868 389.446L492.552 387.896ZM493.693 384.665L494.364 384.278L494.881 385.173L495.259 383.761L496.368 383.121L497.515 383.428L497.822 382.281L499.286 381.436L500.638 381.799L502.823 385.583L502.133 385.981L500.072 382.411L499.343 382.224L498.317 382.816L498.041 383.845L499.99 387.219L499.318 387.607L497.257 384.037L496.528 383.849L495.745 384.301L495.319 385.889L497.063 388.909L496.373 389.307L493.693 384.665Z" fill="white"/>
<circle cx="463.393" cy="404.524" r="3.5877" transform="rotate(-30 463.393 404.524)" fill="white"/>
<path d="M413.045 429.313L413.753 428.904L417.16 434.804L420.478 432.889L420.839 433.513L416.812 435.838L413.045 429.313ZM421.403 432.044L419.714 429.117L420.076 427.764L422.462 426.387L423.815 426.749L425.505 429.676L425.142 431.029L422.756 432.406L421.403 432.044ZM424.489 430.586L424.691 429.86L423.249 427.362L422.519 427.174L420.729 428.207L420.527 428.933L421.969 431.431L422.699 431.619L424.489 430.586ZM424.938 424.957L425.609 424.57L426.088 425.399L426.439 424.091L427.641 423.396L427.997 424.012L426.971 424.604L426.554 426.162L428.308 429.201L427.618 429.599L424.938 424.957ZM430.69 426.682L429.001 423.755L429.363 422.402L431.703 421.052L433.065 421.409L434.028 423.077L430.654 425.025L431.256 426.069L431.986 426.257L433.729 425.251L433.932 424.525L433.727 424.171L434.417 423.772L434.745 424.341L434.383 425.694L432.043 427.044L430.69 426.682ZM432.994 422.879L432.499 422.021L431.769 421.834L430.017 422.845L429.814 423.571L430.309 424.429L432.994 422.879ZM434.134 419.648L434.806 419.26L435.322 420.155L435.7 418.744L436.81 418.103L437.956 418.41L438.264 417.264L439.727 416.419L441.08 416.781L443.265 420.566L442.575 420.964L440.514 417.394L439.784 417.206L438.759 417.798L438.483 418.827L440.431 422.202L439.76 422.589L437.699 419.019L436.969 418.831L436.186 419.283L435.761 420.871L437.504 423.891L436.814 424.29L434.134 419.648Z" fill="white"/>
<circle cx="402.803" cy="439.509" r="3.5877" transform="rotate(-30 402.803 439.509)" fill="#15CEF7"/>
<defs>
<filter id="filter0_d_108_1115" x="0.90065" y="0.718929" width="486.519" height="461.183" filterUnits="userSpaceOnUse" color-interpolation-filters="sRGB">
<feFlood flood-opacity="0" result="BackgroundImageFix"/>
<feColorMatrix in="SourceAlpha" type="matrix" values="0 0 0 0 0 0 0 0 0 0 0 0 0 0 0 0 0 0 127 0" result="hardAlpha"/>
<feOffset dy="-35.877"/>
<feGaussianBlur stdDeviation="49.3309"/>
<feColorMatrix type="matrix" values="0 0 0 0 0 0 0 0 0 0.7 0 0 0 0 1 0 0 0 0.19 0"/>
<feBlend mode="normal" in2="BackgroundImageFix" result="effect1_dropShadow_108_1115"/>
<feBlend mode="normal" in="SourceGraphic" in2="effect1_dropShadow_108_1115" result="shape"/>
</filter>
<filter id="filter1_d_108_1115" x="239.398" y="173.721" width="62.4502" height="56.4346" filterUnits="userSpaceOnUse" color-interpolation-filters="sRGB">
<feFlood flood-opacity="0" result="BackgroundImageFix"/>
<feColorMatrix in="SourceAlpha" type="matrix" values="0 0 0 0 0 0 0 0 0 0 0 0 0 0 0 0 0 0 127 0" result="hardAlpha"/>
<feOffset dy="5.38156"/>
<feGaussianBlur stdDeviation="4.48463"/>
<feColorMatrix type="matrix" values="0 0 0 0 0.863571 0 0 0 0 0.82875 0 0 0 0 0.975 0 0 0 0.4 0"/>
<feBlend mode="normal" in2="BackgroundImageFix" result="effect1_dropShadow_108_1115"/>
<feBlend mode="normal" in="SourceGraphic" in2="effect1_dropShadow_108_1115" result="shape"/>
</filter>
<filter id="filter2_d_108_1115" x="207.815" y="67.4025" width="486.519" height="461.183" filterUnits="userSpaceOnUse" color-interpolation-filters="sRGB">
<feFlood flood-opacity="0" result="BackgroundImageFix"/>
<feColorMatrix in="SourceAlpha" type="matrix" values="0 0 0 0 0 0 0 0 0 0 0 0 0 0 0 0 0 0 127 0" result="hardAlpha"/>
<feOffset dy="-35.877"/>
<feGaussianBlur stdDeviation="49.3309"/>
<feColorMatrix type="matrix" values="0 0 0 0 0 0 0 0 0 0.88 0 0 0 0 1 0 0 0 0.24 0"/>
<feBlend mode="normal" in2="BackgroundImageFix" result="effect1_dropShadow_108_1115"/>
<feBlend mode="normal" in="SourceGraphic" in2="effect1_dropShadow_108_1115" result="shape"/>
</filter>
<filter id="filter3_d_108_1115" x="356.21" y="350.826" width="55.8565" height="50.0205" filterUnits="userSpaceOnUse" color-interpolation-filters="sRGB">
<feFlood flood-opacity="0" result="BackgroundImageFix"/>
<feColorMatrix in="SourceAlpha" type="matrix" values="0 0 0 0 0 0 0 0 0 0 0 0 0 0 0 0 0 0 127 0" result="hardAlpha"/>
<feOffset dy="5.38156"/>
<feGaussianBlur stdDeviation="4.48463"/>
<feColorMatrix type="matrix" values="0 0 0 0 0.863571 0 0 0 0 0.82875 0 0 0 0 0.975 0 0 0 0.4 0"/>
<feBlend mode="normal" in2="BackgroundImageFix" result="effect1_dropShadow_108_1115"/>
<feBlend mode="normal" in="SourceGraphic" in2="effect1_dropShadow_108_1115" result="shape"/>
</filter>
<linearGradient id="paint0_linear_108_1115" x1="216.326" y1="252.02" x2="216.326" y2="429.45" gradientUnits="userSpaceOnUse">
<stop stop-color="#3092ED"/>
<stop offset="1" stop-color="#09447A"/>
</linearGradient>
<linearGradient id="paint1_linear_108_1115" x1="114.796" y1="200.291" x2="196.09" y2="419.196" gradientUnits="userSpaceOnUse">
<stop stop-color="white"/>
<stop offset="1" stop-color="white" stop-opacity="0"/>
</linearGradient>
<linearGradient id="paint2_linear_108_1115" x1="423.24" y1="318.703" x2="423.24" y2="496.133" gradientUnits="userSpaceOnUse">
<stop stop-color="#15CEF7"/>
<stop offset="1" stop-color="#9123C5"/>
</linearGradient>
<linearGradient id="paint3_linear_108_1115" x1="321.71" y1="266.974" x2="403.004" y2="485.88" gradientUnits="userSpaceOnUse">
<stop stop-color="white"/>
<stop offset="1" stop-color="white" stop-opacity="0"/>
</linearGradient>
</defs>
</svg>
