<svg width="133" height="33" viewBox="0 0 133 33" fill="none" xmlns="http://www.w3.org/2000/svg">
<path d="M0 7.17667C0 7.17667 3.3042 20.7416 3.83153 22.9434C4.44703 25.5133 5.55605 26.4591 8.75354 25.8212L10.8168 17.4111C11.3397 15.322 11.6904 13.8327 12.0266 11.7077H12.0857C12.3219 13.8536 12.6582 15.3283 13.0885 17.4184C13.0885 17.4184 13.9284 21.2364 14.3585 23.2417C14.7898 25.2463 15.9899 26.5098 19.1218 25.8219L24.038 7.1781H20.0688L18.3904 15.2387C17.9392 17.585 17.5297 19.4184 17.214 21.5649H17.158C16.8711 19.4398 16.5062 17.6791 16.0474 15.3931L14.2999 7.1781H10.1643L8.29505 15.1861C7.76547 17.6195 7.27015 19.5845 6.95517 21.6582H6.89813C6.57556 19.7053 6.14593 17.2357 5.68069 14.8801C5.68069 14.8801 4.57011 9.1524 4.18045 7.1781L0.000386466 7.17864L0 7.17667ZM37.838 7.17667V25.8205H41.617V21.8616V7.17578H37.838V7.17667ZM91.0617 7.17667V20.9305C91.0617 22.8269 91.4179 24.1554 92.18 24.9671C92.8458 25.677 93.9425 26.1366 95.2566 26.1366C96.3739 26.1366 97.4732 25.9243 97.9913 25.731L97.9426 22.7723C97.5571 22.8674 97.1136 22.9434 96.507 22.9434C95.2197 22.9434 94.788 22.1174 94.788 20.4148V15.1526H98.0792V11.5855H94.788V7.17673H91.0615L91.0617 7.17667ZM29.3928 11.4987C27.0442 11.4987 25.18 12.1594 24.1637 12.7477L24.9074 15.299C25.8375 14.7116 27.3183 14.2253 28.7204 14.2253C31.0419 14.2194 31.4214 15.5404 31.4214 16.3877V16.5881C26.363 16.5805 23.1678 18.3341 23.1678 21.9088C23.1678 24.0913 24.7943 26.1366 27.6227 26.1366C29.3637 26.1366 30.8198 25.4409 31.6925 24.3263H31.7781C31.7781 24.3263 32.3559 26.747 35.5396 25.8213C35.3724 24.8138 35.318 23.7396 35.318 22.4458V17.4652C35.318 14.2908 33.9652 11.4988 29.3928 11.4988L29.3928 11.4987ZM51.9984 11.4987C49.6336 11.4987 48.5709 12.6993 47.9266 13.718H47.8706V11.8149H44.2642V25.8214H48.0633V17.6072C48.0633 17.2221 48.1072 16.8149 48.2414 16.4606C48.5561 15.6336 49.3242 14.6662 50.5504 14.6662C52.0833 14.6662 52.8006 15.9646 52.8006 17.8384V25.8213H56.5956V17.5076C56.5956 17.14 56.6459 16.6973 56.7539 16.3723C57.0659 15.4315 57.8939 14.666 59.0337 14.666C60.5878 14.666 61.3336 15.9419 61.3336 18.1468V25.8213H65.1313V17.5719C65.1313 13.2213 62.9263 11.4988 60.4373 11.4988C59.3349 11.4988 58.4649 11.7757 57.6782 12.2595C57.017 12.666 56.4251 13.2436 55.9077 14.0041H55.8517C55.2497 12.4946 53.8374 11.4988 51.9977 11.4988L51.9984 11.4987ZM72.8604 11.4987C70.5124 11.4987 68.6485 12.1594 67.6314 12.7477L68.3761 15.299C69.3052 14.7116 70.787 14.2253 72.1884 14.2253C74.5083 14.2194 74.8887 15.5404 74.8887 16.3877V16.5881C69.8309 16.5805 66.6354 18.3341 66.6354 21.9088C66.6354 24.0913 68.2628 26.1366 71.0926 26.1366C72.8322 26.1366 74.2888 25.4409 75.1599 24.3263H75.2458C75.2458 24.3263 75.8236 26.747 79.0077 25.8213C78.8402 24.8138 78.7865 23.7396 78.7865 22.4458V17.4652C78.7865 14.2908 77.4333 11.4988 72.8604 11.4988L72.8604 11.4987ZM88.6371 11.4987C87.1824 11.4987 85.5272 12.4395 84.8325 14.4563H84.7264V11.8147H81.3064V25.8212H85.2051V18.649C85.2051 18.2621 85.2285 17.9247 85.2896 17.6154C85.578 16.113 86.725 15.1525 88.3712 15.1525C88.8231 15.1525 89.1466 15.2016 89.4965 15.2522V11.5854C89.2031 11.526 89.0024 11.4986 88.6373 11.4986L88.6371 11.4987ZM31.5435 19.0701V20.8174C31.5435 21.0759 31.521 21.3426 31.4495 21.5757C31.1571 22.5462 30.1536 23.3663 28.8992 23.3663C27.8534 23.3663 27.0226 22.7716 27.0226 21.5136C27.0226 19.5895 29.1368 19.0576 31.5436 19.0701H31.5435ZM75.0111 19.0701V20.8174C75.0111 21.0759 74.9882 21.3426 74.9172 21.5757C74.6247 22.5462 73.6216 23.3663 72.3672 23.3663C71.3212 23.3663 70.4903 22.7716 70.4903 21.5136C70.4903 19.5895 72.6044 19.0576 75.0112 19.0701H75.0111Z" fill="#6071AE"/>
<path d="M118.51 0.433594C117.29 0.433594 116.321 1.11616 116.321 1.94711L117.062 10.3524C117.143 10.8588 117.763 11.2495 118.511 11.2495C119.261 11.2485 119.878 10.8582 119.962 10.3524L120.706 1.94711C120.706 1.11623 119.734 0.433665 118.512 0.433665L118.51 0.433594ZM106.436 7.17595C105.803 7.191 105.083 7.67143 104.626 8.46643C104.014 9.52504 104.122 10.708 104.838 11.1231L112.473 14.6854C112.95 14.8632 113.598 14.5238 113.973 13.8759C113.973 13.8758 113.973 13.8756 113.973 13.8755C114.35 13.2244 114.321 12.4923 113.924 12.1675L107.028 7.32172C106.849 7.2178 106.648 7.17103 106.437 7.17605L106.436 7.17595ZM130.585 7.17595C130.373 7.17093 130.172 7.21769 129.994 7.32162L123.097 12.1674C122.702 12.4922 122.673 13.2243 123.048 13.8754L123.048 13.8758C123.425 14.5237 124.071 14.8631 124.548 14.6853L132.186 11.1232C132.905 10.7081 133.008 9.52516 132.4 8.4665C131.941 7.67149 131.22 7.19108 130.587 7.17602L130.585 7.17595ZM112.759 18.2656C112.66 18.2642 112.564 18.2795 112.474 18.3133L104.839 21.8714C104.123 22.2883 104.015 23.4717 104.627 24.5314C105.237 25.588 106.313 26.0903 107.029 25.6759L113.925 20.8339C114.322 20.5051 114.351 19.7732 113.974 19.1227L113.978 19.1242C113.673 18.5943 113.187 18.2713 112.759 18.2655L112.759 18.2656ZM124.265 18.2656C123.838 18.2714 123.353 18.5944 123.047 19.1243L123.05 19.1228C122.675 19.7733 122.704 20.5053 123.098 20.834L129.995 25.676C130.71 26.0904 131.787 25.5881 132.4 24.5316C133.008 23.4718 132.905 22.2883 132.186 21.8715L124.549 18.3134C124.46 18.2796 124.364 18.2643 124.265 18.2657L124.265 18.2656ZM118.509 21.7491C117.762 21.75 117.144 22.1389 117.063 22.644L116.322 31.049C116.322 31.8813 117.291 32.5625 118.511 32.5625C119.734 32.5625 120.705 31.8813 120.705 31.049L119.963 22.644C119.879 22.1389 119.262 21.75 118.512 21.7491H118.509H118.509Z" fill="#6071AE"/>
</svg>
