<svg width="98" height="33" viewBox="0 0 98 33" fill="none" xmlns="http://www.w3.org/2000/svg">
<path d="M41.9391 17.3464C41.9391 21.9877 38.3082 25.4077 33.8523 25.4077C29.3965 25.4077 25.7656 21.9877 25.7656 17.3464C25.7656 12.6725 29.3965 9.28516 33.8523 9.28516C38.3082 9.28516 41.9391 12.6725 41.9391 17.3464ZM38.3991 17.3464C38.3991 14.4461 36.2947 12.4617 33.8523 12.4617C31.41 12.4617 29.3056 14.4461 29.3056 17.3464C29.3056 20.2177 31.41 22.2312 33.8523 22.2312C36.2947 22.2312 38.3991 20.214 38.3991 17.3464Z" fill="#6071AE"/>
<path d="M59.3844 17.3464C59.3844 21.9877 55.7535 25.4077 51.2977 25.4077C46.8418 25.4077 43.2109 21.9877 43.2109 17.3464C43.2109 12.6761 46.8418 9.28516 51.2977 9.28516C55.7535 9.28516 59.3844 12.6725 59.3844 17.3464ZM55.8444 17.3464C55.8444 14.4461 53.74 12.4617 51.2977 12.4617C48.8553 12.4617 46.7509 14.4461 46.7509 17.3464C46.7509 20.2177 48.8553 22.2312 51.2977 22.2312C53.74 22.2312 55.8444 20.214 55.8444 17.3464Z" fill="#6071AE"/>
<path d="M76.1022 9.77218V24.2447C76.1022 30.1979 72.5913 32.6294 68.4408 32.6294C64.5337 32.6294 62.1822 30.0162 61.2954 27.8791L64.3774 26.5962C64.9262 27.9082 66.271 29.4565 68.4371 29.4565C71.0939 29.4565 72.7403 27.8174 72.7403 24.7317V23.5723H72.6168C71.8245 24.55 70.298 25.4041 68.3717 25.4041C64.3411 25.4041 60.6484 21.8932 60.6484 17.3755C60.6484 12.8251 64.3411 9.28516 68.3717 9.28516C70.2943 9.28516 71.8208 10.1393 72.6168 11.0879H72.7403V9.77581H76.1022V9.77218ZM72.9911 17.3755C72.9911 14.537 71.0976 12.4617 68.6879 12.4617C66.2455 12.4617 64.1993 14.537 64.1993 17.3755C64.1993 20.185 66.2455 22.2312 68.6879 22.2312C71.0976 22.2312 72.9911 20.185 72.9911 17.3755Z" fill="#6071AE"/>
<path d="M81.6442 1.28906V24.9132H78.1914V1.28906H81.6442Z" fill="#6071AE"/>
<path d="M95.1011 19.9993L97.8488 21.8311C96.962 23.1431 94.8249 25.4038 91.1323 25.4038C86.5529 25.4038 83.1328 21.8638 83.1328 17.3425C83.1328 12.5486 86.5819 9.28125 90.7361 9.28125C94.9194 9.28125 96.9656 12.6104 97.6344 14.4095L98.0015 15.3254L87.2252 19.7885C88.0503 21.4059 89.3332 22.2309 91.1323 22.2309C92.935 22.2309 94.1853 21.3441 95.1011 19.9993ZM86.6437 17.099L93.8473 14.1078C93.4511 13.1011 92.259 12.3996 90.8561 12.3996C89.057 12.3996 86.5529 13.9879 86.6437 17.099Z" fill="#6071AE"/>
<path d="M12.6952 15.2506V11.8306H24.2202C24.3328 12.4267 24.391 13.1317 24.391 13.895C24.391 16.4609 23.6895 19.6338 21.4289 21.8945C19.23 24.1842 16.4206 25.4054 12.6989 25.4054C5.80063 25.4054 0 19.7865 0 12.8882C0 5.99 5.80063 0.371094 12.6989 0.371094C16.5151 0.371094 19.2337 1.8685 21.2762 3.82021L18.8629 6.23351C17.3982 4.85967 15.4138 3.79114 12.6952 3.79114C7.65785 3.79114 3.71807 7.85085 3.71807 12.8882C3.71807 17.9256 7.65785 21.9853 12.6952 21.9853C15.9626 21.9853 17.8235 20.6733 19.0156 19.4812C19.9824 18.5144 20.6184 17.1333 20.8692 15.247L12.6952 15.2506Z" fill="#6071AE"/>
</svg>
