<svg width="646" height="900" viewBox="0 0 646 900" fill="none" xmlns="http://www.w3.org/2000/svg">
<path fill-rule="evenodd" clip-rule="evenodd" d="M484.5 689.5V610.5H646L646 609.5H484.5V530.5H646L646 529.5H484.5V450.5H646L646 449.5H484.5V370.5H646L646 369.5H484.5V290.5L646 290.5L646 289.5L484.5 289.5L484.5 210.5L646 210.5V209.5L484.5 209.5L484.5 48H483.5L483.5 209.5H404.5L404.5 48H403.5L403.5 209.5L324.5 209.5L324.5 48H323.5L323.5 209.5H244.5L244.5 48H243.5L243.5 209.5H164.5L164.5 48H163.5L163.5 209.5L84.5 209.5V48H83.5V209.5H-11.4999L-11.5 48H-12.5L-12.4999 209.5L-157 209.5V210.5L-12.4999 210.5V289.5L-157 289.5V290.5L-12.4999 290.5V369.5H-157V370.5H-12.4999V449.5H-157V450.5H-12.4999V529.5H-157V530.5H-12.4999V609.5H-157V610.5H-12.4999V689.5H-157V690.5H-12.4999V851H-11.4999V690.5H83.5V851H84.5V690.5H163.5V851H164.5V690.5H243.5V851H244.5V690.5L323.5 690.5V851H324.5V690.5H403.5V851H404.5V690.5H483.5V851H484.5V690.5H646L646 689.5H484.5ZM-11.4999 210.5H83.5V289.5H-11.4999V210.5ZM84.5 210.5L163.5 210.5V289.5L84.5 289.5V210.5ZM164.5 210.5H243.5V289.5H164.5V210.5ZM244.5 210.5H323.5V289.5H244.5V210.5ZM324.5 210.5L403.5 210.5L403.5 289.5L324.5 289.5V210.5ZM404.5 210.5H483.5L483.5 289.5H404.5L404.5 210.5ZM483.5 369.5V290.5H404.5V369.5L483.5 369.5ZM403.5 369.5V290.5L324.5 290.5V369.5H403.5ZM323.5 369.5V290.5H244.5V369.5H323.5ZM243.5 369.5V290.5H164.5V369.5H243.5ZM163.5 369.5V290.5L84.5 290.5V369.5H163.5ZM83.5 369.5V290.5H-11.4999V369.5L83.5 369.5ZM-11.4999 370.5L83.5 370.5V449.5L-11.4999 449.5V370.5ZM84.5 370.5H163.5V449.5H84.5V370.5ZM164.5 370.5H243.5V449.5H164.5V370.5ZM244.5 370.5H323.5V449.5H244.5V370.5ZM324.5 370.5H403.5V449.5H324.5V370.5ZM404.5 370.5L483.5 370.5V449.5L404.5 449.5V370.5ZM483.5 529.5V450.5L404.5 450.5V529.5L483.5 529.5ZM403.5 529.5V450.5H324.5V529.5H403.5ZM323.5 529.5V450.5H244.5V529.5H323.5ZM243.5 529.5V450.5H164.5V529.5H243.5ZM163.5 529.5V450.5H84.5V529.5H163.5ZM83.5 529.5V450.5L-11.4999 450.5V529.5L83.5 529.5ZM-11.4999 530.5L83.5 530.5V609.5H-11.4999V530.5ZM84.5 530.5H163.5V609.5H84.5V530.5ZM164.5 530.5H243.5V609.5H164.5V530.5ZM244.5 530.5H323.5V609.5L244.5 609.5V530.5ZM324.5 530.5H403.5V609.5H324.5V530.5ZM404.5 530.5L483.5 530.5V609.5H404.5V530.5ZM483.5 689.5V610.5H404.5V689.5H483.5ZM403.5 689.5V610.5H324.5V689.5H403.5ZM323.5 689.5V610.5L244.5 610.5V689.5L323.5 689.5ZM243.5 689.5V610.5H164.5V689.5H243.5ZM163.5 689.5V610.5H84.5V689.5H163.5ZM83.5 689.5V610.5H-11.4999V689.5H83.5Z" fill="url(#paint0_linear_122_639)"/>
<defs>
<linearGradient id="paint0_linear_122_639" x1="66" y1="652" x2="330.5" y2="185.5" gradientUnits="userSpaceOnUse">
<stop stop-color="#182965" stop-opacity="0"/>
<stop offset="0.225325" stop-color="#182965" stop-opacity="0.53"/>
<stop offset="0.864583" stop-color="#182965" stop-opacity="0"/>
</linearGradient>
</defs>
</svg>
