<svg width="22" height="28" viewBox="0 0 22 28" fill="none" xmlns="http://www.w3.org/2000/svg">
<path d="M21.6666 14C21.6666 12.5293 20.4706 11.3333 19 11.3333H17.6666V7.33333C17.6666 3.65733 14.676 0.666664 11 0.666664C7.32398 0.666664 4.33331 3.65733 4.33331 7.33333V11.3333H2.99998C1.52931 11.3333 0.333313 12.5293 0.333313 14V24.6667C0.333313 26.1373 1.52931 27.3333 2.99998 27.3333H19C20.4706 27.3333 21.6666 26.1373 21.6666 24.6667V14ZM6.99998 7.33333C6.99998 5.128 8.79465 3.33333 11 3.33333C13.2053 3.33333 15 5.128 15 7.33333V11.3333H6.99998V7.33333Z" fill="#00FFFF"/>
</svg>
