<svg width="305" height="283" viewBox="0 0 305 283" fill="none" xmlns="http://www.w3.org/2000/svg">
<path d="M112.251 63.4131L153.297 39.5589C155.568 38.242 158.715 38.4264 162.178 40.428L121.133 64.2822C117.663 62.2806 114.523 62.0962 112.251 63.4131Z" fill="#A6EAFF"/>
<path d="M262.975 160.568L262.652 273.61C262.652 277.561 261.243 280.333 259.005 281.636L300.05 257.782C302.295 256.465 303.684 253.7 303.697 249.756L304.02 136.714L262.975 160.568Z" fill="url(#paint0_linear_1128_2388)"/>
<path d="M121.133 64.2822L162.179 40.428L291.576 115.131L250.524 138.985L121.133 64.2822Z" fill="#A6EAFF"/>
<path d="M209.433 67.7125H148.095V45.6097H171.146L209.433 67.7125Z" fill="#7288DF"/>
<path d="M291.576 115.131L268.407 128.582H253.566V106.486H276.591L291.576 115.131Z" fill="#7288DF"/>
<path d="M250.524 138.985L291.576 115.131C298.463 119.082 304.04 128.773 304.02 136.714L262.975 160.568C262.994 152.628 257.418 142.962 250.524 138.985Z" fill="#7288DF"/>
<path d="M250.524 138.985C257.418 142.936 262.994 152.628 262.975 160.568L262.652 273.61C262.652 281.511 257.016 284.751 250.142 280.774L120.725 206.058C113.838 202.107 108.261 192.415 108.281 184.482L108.604 71.4325C108.604 63.4987 114.24 60.2988 121.114 64.2756L250.524 138.985Z" fill="url(#paint1_linear_1128_2388)"/>
<path d="M161.145 151.765C161.145 139.005 170.363 134.047 181.555 141.007C192.044 147.525 200.564 162.734 200.452 174.717C200.386 182.157 197.16 186.872 192.189 188.063V227.706C192.189 230.142 190.47 231.123 188.344 229.899L173.2 221.168C172.083 220.444 171.152 219.466 170.484 218.313C169.816 217.161 169.429 215.868 169.355 214.538V174.895C164.411 167.923 161.145 159.343 161.145 151.765Z" fill="url(#paint2_linear_1128_2388)"/>
<path d="M171.232 137.906C169.704 140.23 168.828 143.403 168.828 147.314C168.828 154.893 172.121 163.472 177.092 170.451V210.094C177.167 211.423 177.554 212.716 178.222 213.868C178.89 215.02 179.82 215.998 180.937 216.724L192.209 223.229V227.706C192.209 230.142 190.49 231.123 188.364 229.899L173.22 221.168C172.103 220.444 171.172 219.466 170.504 218.313C169.836 217.161 169.449 215.868 169.375 214.538V174.895C164.378 167.923 161.112 159.343 161.112 151.765C161.145 143.298 165.22 138.294 171.232 137.906Z" fill="white"/>
<path d="M148.128 56.2496L163.252 47.4598L163.219 58.9096L148.095 67.6993L148.128 56.2496Z" fill="#7288DF"/>
<path d="M161.942 25.9232L177.085 17.1334C168.592 22.0715 163.318 32.5666 163.258 47.4598L148.115 56.2496C148.168 41.3498 153.442 30.8613 161.942 25.9232Z" fill="#764FCC"/>
<path d="M253.592 117.139L268.716 108.35L268.683 119.799L253.559 128.583L253.592 117.139Z" fill="#764FCC"/>
<path d="M154.232 12.7023L169.355 3.92573C179.943 -2.22382 194.586 -1.34155 210.723 7.94203L195.58 16.7252C179.462 7.40214 164.819 6.55937 154.232 12.7023Z" fill="#A6EAFF"/>
<path d="M195.599 16.7121L210.743 7.92887C242.814 26.4434 268.834 71.4918 268.736 108.35L253.592 117.139C253.698 80.3013 227.671 35.2331 195.599 16.7121Z" fill="#7288DF"/>
<path d="M195.6 16.7121C227.671 35.2331 253.698 80.3013 253.592 117.172V128.615L242.709 122.301V110.858C242.794 80.8807 221.64 44.2599 195.56 29.2153C169.48 14.1706 148.214 26.2919 148.154 56.2693L148.122 67.7191L137.238 61.4313L137.271 49.9881C137.363 13.1435 163.542 -1.79585 195.6 16.7121Z" fill="#A6EAFF"/>
<path d="M79.7609 86.0793L24.587 75.2382L34.1981 110.806C34.1981 137.76 44.3793 169.283 62.1311 197.198L88.5507 238.777L68.5433 250.324V254.197L82.4219 248.388C83.4332 247.961 84.4302 247.498 85.3877 247.003L87.751 245.633L110.036 232.827L112.417 231.461C117.005 228.595 120.965 224.829 124.058 220.39C131.112 210.456 134.931 196.653 134.931 180.146V138.958L79.7609 86.0793Z" fill="url(#paint3_linear_1128_2388)"/>
<path d="M110.348 153.07L55.1775 100.191L0 89.3571V130.541C0 157.499 10.1884 188.996 27.933 216.926L55.1882 259.788L82.4435 248.384C100.184 240.957 110.373 221.208 110.373 194.232L110.348 153.07Z" fill="url(#paint4_linear_1128_2388)"/>
<path d="M101.181 157.542L55.1774 113.449L9.16626 104.416V138.757C9.16626 161.236 17.6656 187.53 32.4766 210.786L55.1953 246.526L77.9104 237.016C92.7035 230.826 101.199 214.358 101.199 191.88L101.181 157.542Z" fill="url(#paint5_linear_1128_2388)"/>
<path d="M51.009 198.351L45.5066 188.773C44.2638 186.626 44.2638 184.309 45.5066 183.597L80.4724 163.48C81.7152 162.772 83.7098 163.938 84.9433 166.086L90.4457 175.663C91.6885 177.81 91.6885 180.127 90.4457 180.839L55.4768 200.953C54.2433 201.664 52.2425 200.498 51.009 198.351Z" fill="white"/>
<path d="M61.4811 197.841L55.9823 200.957C54.7403 201.655 52.7469 200.511 51.5143 198.404L33.248 167.203C32.006 165.096 32.006 162.823 33.248 162.125L38.7468 159.019C39.9888 158.324 41.9822 159.468 43.2148 161.575L61.4718 192.767C62.7137 194.873 62.7137 197.146 61.4811 197.841Z" fill="white"/>
<path d="M38.0138 208.706C23.2099 185.432 14.7034 159.156 14.7034 136.677V105.506L9.15552 104.43V138.772C9.15552 161.25 17.6548 187.544 32.4659 210.801L55.1846 246.541L60.6069 244.256L38.0138 208.706Z" fill="white"/>
<path d="M0 89.3571L55.1739 100.187L79.761 86.0757L24.5871 75.2382L0 89.3571Z" fill="#A6EAFF"/>
<path d="M110.348 153.07L134.935 138.958L79.7609 86.0757L55.1738 100.187L110.348 153.07Z" fill="#7288DF"/>
<defs>
<linearGradient id="paint0_linear_1128_2388" x1="259.005" y1="209.172" x2="304.02" y2="209.172" gradientUnits="userSpaceOnUse">
<stop stop-color="#7830C2"/>
<stop offset="1" stop-color="#7466D4"/>
</linearGradient>
<linearGradient id="paint1_linear_1128_2388" x1="253.717" y1="268.554" x2="125.505" y2="87.7413" gradientUnits="userSpaceOnUse">
<stop stop-color="#7830C2"/>
<stop offset="1" stop-color="#5FD9FF"/>
</linearGradient>
<linearGradient id="paint2_linear_1128_2388" x1="23003.9" y1="26033" x2="25351.8" y2="26033" gradientUnits="userSpaceOnUse">
<stop stop-color="#7830C2"/>
<stop offset="1" stop-color="#7466D4"/>
</linearGradient>
<linearGradient id="paint3_linear_1128_2388" x1="45305.4" y1="130971" x2="-17144.5" y2="87522.5" gradientUnits="userSpaceOnUse">
<stop stop-color="#7830C2"/>
<stop offset="1" stop-color="#7466D4"/>
</linearGradient>
<linearGradient id="paint4_linear_1128_2388" x1="32545.6" y1="128930" x2="-2031.03" y2="85627.1" gradientUnits="userSpaceOnUse">
<stop stop-color="#7830C2"/>
<stop offset="1" stop-color="#5FD9FF"/>
</linearGradient>
<linearGradient id="paint5_linear_1128_2388" x1="2361.53" y1="75373.4" x2="25975.4" y2="75373.4" gradientUnits="userSpaceOnUse">
<stop stop-color="#7830C2"/>
<stop offset="1" stop-color="#7466D4"/>
</linearGradient>
</defs>
</svg>
