<svg width="32" height="32" viewBox="0 0 32 32" fill="none" xmlns="http://www.w3.org/2000/svg">
<circle cx="16" cy="16" r="16" fill="url(#paint0_linear_128_478)"/>
<path d="M16.641 23.5C13.5532 23.5 11.2006 21.2975 11.0085 18.461C10.9492 17.612 11.2072 16.8445 11.5291 16.0892C12.2678 14.3596 13.29 12.7846 14.3127 11.2108C14.7871 10.4813 15.2839 9.76589 15.7713 9.04286C15.8296 8.95235 15.8928 8.86493 15.9604 8.78095C16.2776 8.4042 16.6244 8.39892 16.9061 8.81024C18.4067 11.0057 19.9535 13.1783 21.0866 15.59C21.4067 16.2714 21.702 17.005 21.7939 17.7415C21.999 19.3874 21.3943 20.8071 20.2085 21.9684C19.165 22.992 17.8784 23.4701 16.641 23.5ZM18.4553 22.1717C18.5687 22.1403 18.6782 22.0967 18.782 22.0416C20.1539 21.2008 20.8743 19.9645 21.0178 18.3896C21.0268 18.3065 21.0189 18.2226 20.9944 18.1426C20.97 18.0627 20.9295 17.9885 20.8754 17.9244C20.8213 17.8602 20.7547 17.8075 20.6795 17.7694C20.6044 17.7312 20.5222 17.7084 20.4379 17.7023C20.0822 17.6653 19.8166 17.8944 19.7324 18.2612C19.6292 18.7136 19.5427 19.1788 19.3601 19.6012C19.0986 20.2077 18.6094 20.6378 18.0409 20.9823C17.7575 21.1545 17.6638 21.4317 17.7551 21.71C17.8494 21.9994 18.0764 22.1705 18.4553 22.1729V22.1717Z" fill="white"/>
<defs>
<linearGradient id="paint0_linear_128_478" x1="15.2906" y1="-2.6" x2="15.2906" y2="35.3846" gradientUnits="userSpaceOnUse">
<stop stop-color="#15B7F7"/>
<stop offset="1" stop-color="#8912C4"/>
</linearGradient>
</defs>
</svg>
