<svg width="32" height="32" viewBox="0 0 32 32" fill="none" xmlns="http://www.w3.org/2000/svg">
<circle cx="16" cy="16" r="16" fill="url(#paint0_linear_561_17649)"/>
<path d="M16.7278 24C13.5925 24 11.2037 21.7975 11.0087 18.961C10.9485 18.112 11.2103 17.3445 11.5372 16.5892C12.2873 14.8596 13.3252 13.2846 14.3637 11.7108C14.8453 10.9813 15.3498 10.2659 15.8447 9.54286C15.9039 9.45235 15.968 9.36493 16.0367 9.28095C16.3588 8.9042 16.711 8.89892 16.9969 9.31024C18.5206 11.5057 20.0913 13.6783 21.2417 16.09C21.5668 16.7714 21.8666 17.505 21.9599 18.2415C22.1682 19.8874 21.5542 21.3071 20.3502 22.4684C19.2906 23.492 17.9842 23.9701 16.7278 24ZM18.57 22.6717C18.6851 22.6403 18.7964 22.5967 18.9017 22.5416C20.2948 21.7008 21.0262 20.4645 21.1719 18.8896C21.1811 18.8065 21.173 18.7226 21.1482 18.6426C21.1234 18.5627 21.0822 18.4885 21.0273 18.4244C20.9724 18.3602 20.9047 18.3075 20.8284 18.2694C20.7521 18.2312 20.6687 18.2084 20.5831 18.2023C20.2219 18.1653 19.9522 18.3944 19.8667 18.7612C19.762 19.2136 19.6741 19.6788 19.4887 20.1012C19.2232 20.7077 18.7265 21.1378 18.1492 21.4823C17.8614 21.6545 17.7663 21.9317 17.859 22.21C17.9547 22.4994 18.1853 22.6705 18.57 22.6729V22.6717Z" fill="white"/>
<defs>
<linearGradient id="paint0_linear_561_17649" x1="15.2906" y1="-2.6" x2="15.2906" y2="35.3846" gradientUnits="userSpaceOnUse">
<stop stop-color="#15B7F7"/>
<stop offset="1" stop-color="#8912C4"/>
</linearGradient>
</defs>
</svg>
