<svg width="32" height="32" viewBox="0 0 32 32" fill="none" xmlns="http://www.w3.org/2000/svg">
<circle cx="16" cy="16" r="16" fill="url(#paint0_linear_128_467)"/>
<path d="M18.5967 20.7436H18.2387C17.0057 20.7436 15.7726 20.7436 14.5396 20.7436C14.0378 20.7436 13.8678 20.5769 13.8672 20.084C13.8672 19.1349 13.8672 18.1857 13.8672 17.2362C13.8672 16.7565 14.0277 16.5982 14.5163 16.5976C15.7585 16.5976 17.0007 16.5976 18.2429 16.5976H18.5931C18.5931 16.1598 18.5931 15.7616 18.5931 15.3641C18.5931 15.2441 18.5609 15.1074 18.6074 15.0085C18.6808 14.8496 18.7811 14.6451 18.9201 14.5887C19.0591 14.5323 19.3127 14.5887 19.4224 14.6918C20.661 15.8756 21.8841 17.0767 23.1054 18.279C23.3602 18.5297 23.359 18.7899 23.1054 19.0388C21.8923 20.2361 20.6764 21.429 19.4576 22.6175C19.3055 22.7668 19.1355 22.8448 18.9207 22.7573C18.7059 22.6697 18.6056 22.4904 18.6033 22.2637C18.5931 21.7744 18.5967 21.2851 18.5967 20.7436Z" fill="white"/>
<path d="M12.7015 11.0491H14.4163C15.211 11.0491 16.0063 11.0491 16.8028 11.0491C17.2431 11.0491 17.4269 11.229 17.4287 11.6632C17.4322 12.6426 17.4322 13.6221 17.4287 14.6015C17.4287 15.0213 17.2538 15.1946 16.8249 15.1958C15.5827 15.1994 14.3405 15.1958 13.0983 15.1958H12.7015C12.7015 15.6029 12.7015 15.9789 12.7015 16.3549C12.7015 16.4952 12.7075 16.6355 12.6956 16.7747C12.6765 16.9887 12.5882 17.1944 12.3632 17.213C12.1974 17.2286 11.976 17.1884 11.8585 17.0835C11.3812 16.6637 10.9367 16.2032 10.4809 15.7576C9.74184 15.0341 9.00142 14.3095 8.25961 13.5839C7.91356 13.2439 7.91237 13.0178 8.26259 12.6742C9.43677 11.5237 10.6121 10.3741 11.7887 9.22557C11.9611 9.05947 12.1371 8.92934 12.3949 9.04268C12.6526 9.15601 12.7009 9.36289 12.7009 9.60576C12.7015 10.0735 12.7015 10.5412 12.7015 11.0491Z" fill="white"/>
<defs>
<linearGradient id="paint0_linear_128_467" x1="15.2906" y1="-2.6" x2="15.2906" y2="35.3846" gradientUnits="userSpaceOnUse">
<stop stop-color="#15B7F7"/>
<stop offset="1" stop-color="#8912C4"/>
</linearGradient>
</defs>
</svg>
