<svg width="32" height="32" viewBox="0 0 32 32" fill="none" xmlns="http://www.w3.org/2000/svg">
<circle cx="16" cy="16" r="16" fill="url(#paint0_linear_1228_54)"/>
<path d="M16.5009 14.1236H20.3075C20.5597 14.1236 20.7982 14.1236 20.9404 14.3682C21.0826 14.6127 20.9404 14.7972 20.8257 14.9988L15.0424 23.6214C14.9232 23.7973 14.8085 23.9775 14.5517 23.9989C14.4656 24.0043 14.3794 23.9893 14.3012 23.9554C14.2229 23.9214 14.155 23.8695 14.1038 23.8045C14.0526 23.7396 14.0198 23.6636 14.0083 23.5836C13.9968 23.5036 14.007 23.4222 14.038 23.3469C14.4814 21.6938 14.9278 20.0365 15.3772 18.3749C15.4441 18.2121 15.4768 18.0388 15.4735 17.8644H11.699C11.4559 17.8644 11.2083 17.8644 11.0615 17.6328C10.9147 17.4011 11.0615 17.2038 11.1807 16.9979L16.9595 8.37951C17.0787 8.20362 17.1934 8.02345 17.4502 8.002C17.5365 7.99455 17.6234 8.008 17.7024 8.04106C17.7815 8.07413 17.8502 8.12568 17.9018 8.19077C17.9534 8.25585 17.9862 8.33227 17.9971 8.41266C18.008 8.49306 17.9965 8.57471 17.9639 8.64977C17.5419 10.2284 17.1169 11.8014 16.6889 13.3686C16.643 13.6217 16.588 13.862 16.5009 14.1236Z" fill="white"/>
<defs>
<linearGradient id="paint0_linear_1228_54" x1="15.2906" y1="-2.6" x2="15.2906" y2="35.3846" gradientUnits="userSpaceOnUse">
<stop stop-color="#15B7F7"/>
<stop offset="1" stop-color="#8912C4"/>
</linearGradient>
</defs>
</svg>
