<svg width="32" height="32" viewBox="0 0 32 32" fill="none" xmlns="http://www.w3.org/2000/svg">
<circle cx="16" cy="16" r="16" fill="url(#paint0_linear_561_17638)"/>
<path d="M18.5144 21.0063H18.1727C16.9957 21.0063 15.8188 21.0063 14.6418 21.0063C14.1629 21.0063 14.0006 20.8443 14 20.365C14 19.4422 14 18.5192 14 17.596C14 17.1295 14.1532 16.9756 14.6196 16.975C15.8053 16.975 16.991 16.975 18.1767 16.975H18.511C18.511 16.5493 18.511 16.1622 18.511 15.7756C18.511 15.659 18.4802 15.526 18.5246 15.4298C18.5947 15.2753 18.6904 15.0765 18.823 15.0217C18.9557 14.9669 19.1978 15.0217 19.3026 15.122C20.4848 16.273 21.6523 17.4409 22.818 18.6099C23.0612 18.8536 23.0601 19.1067 22.818 19.3487C21.6601 20.5129 20.4994 21.6728 19.3362 22.8285C19.1909 22.9736 19.0286 23.0494 18.8236 22.9643C18.6186 22.8792 18.5229 22.7048 18.5206 22.4844C18.511 22.0086 18.5144 21.5329 18.5144 21.0063Z" fill="white"/>
<path d="M12.4865 10.9952H14.1228C14.8812 10.9952 15.6401 10.9952 16.4002 10.9952C16.8204 10.9952 16.9957 11.1704 16.9974 11.5931C17.0009 12.5467 17.0009 13.5004 16.9974 14.4541C16.9974 14.8628 16.8306 15.0315 16.4213 15.0327C15.2359 15.0362 14.0505 15.0327 12.8651 15.0327H12.4865C12.4865 15.4291 12.4865 15.7952 12.4865 16.1613C12.4865 16.2979 12.4922 16.4346 12.4808 16.57C12.4626 16.7785 12.3783 16.9787 12.1637 16.9968C12.0054 17.012 11.7942 16.9729 11.682 16.8707C11.2266 16.462 10.8024 16.0136 10.3674 15.5798C9.66218 14.8752 8.95562 14.1697 8.24774 13.4632C7.91752 13.1322 7.91638 12.9121 8.25058 12.5775C9.37106 11.4572 10.4927 10.3379 11.6154 9.21964C11.78 9.0579 11.9479 8.9312 12.1939 9.04155C12.4398 9.15191 12.4859 9.35334 12.4859 9.58981C12.4865 10.0452 12.4865 10.5007 12.4865 10.9952Z" fill="white"/>
<defs>
<linearGradient id="paint0_linear_561_17638" x1="15.2906" y1="-2.6" x2="15.2906" y2="35.3846" gradientUnits="userSpaceOnUse">
<stop stop-color="#15B7F7"/>
<stop offset="1" stop-color="#8912C4"/>
</linearGradient>
</defs>
</svg>
