<svg width="14" height="14" viewBox="0 0 14 14" fill="none" xmlns="http://www.w3.org/2000/svg">
<path d="M7.00033 1.16663C3.78383 1.16663 1.16699 3.78346 1.16699 6.99996C1.16699 10.2165 3.78383 12.8333 7.00033 12.8333C10.2168 12.8333 12.8337 10.2165 12.8337 6.99996C12.8337 3.78346 10.2168 1.16663 7.00033 1.16663ZM7.00033 11.6666C4.42724 11.6666 2.33366 9.57304 2.33366 6.99996C2.33366 4.42688 4.42724 2.33329 7.00033 2.33329C9.57341 2.33329 11.667 4.42688 11.667 6.99996C11.667 9.57304 9.57341 11.6666 7.00033 11.6666Z" fill="#15CEF7"/>
<path d="M6.41699 6.41671H7.58366V9.91671H6.41699V6.41671ZM6.41699 4.08337H7.58366V5.25004H6.41699V4.08337Z" fill="#15CEF7"/>
</svg>
