<svg width="20" height="20" viewBox="0 0 20 20" fill="none" xmlns="http://www.w3.org/2000/svg">
<path d="M17.8598 11C17.181 10.9975 16.5259 10.7346 16.0149 10.2596C15.3903 9.69023 15.0124 9.70268 14.3816 10.2862C13.8929 10.7413 13.2658 10.9932 12.6161 10.9954C11.9663 10.9975 11.3378 10.7497 10.8464 10.2978C10.1758 9.69023 9.81978 9.69023 9.14913 10.2978C8.65793 10.7502 8.02942 10.9984 7.37956 10.9967C6.72969 10.995 6.10233 10.7436 5.61319 10.2887C4.97299 9.69604 4.61932 9.69604 3.94789 10.2887C2.87985 11.2249 1.4191 11.2324 0.409608 10.3044C0.104341 10.0247 -0.0869384 9.69521 0.0395403 9.24949C0.218328 8.62034 0.878047 8.39291 1.39021 8.77638C2.09287 9.30593 2.34426 9.29763 3.00086 8.71911C4.10872 7.74384 5.54683 7.76874 6.6258 8.78219C7.15982 9.2802 7.60172 9.28518 8.14121 8.788C9.2803 7.73803 10.7176 7.73886 11.8567 8.788C12.3946 9.28601 12.835 9.28103 13.3721 8.77638C14.4519 7.76293 15.8876 7.73969 16.9971 8.71828C17.6513 9.29929 17.8988 9.30427 18.6069 8.77306C18.9903 8.48504 19.472 8.53318 19.771 8.88926C19.9213 9.05756 20.0035 9.28188 19.9999 9.51394C19.9962 9.74601 19.907 9.96728 19.7515 10.1301C19.2307 10.7103 18.5804 10.9734 17.8598 11Z" fill="white"/>
<path d="M17.8598 11C17.181 10.9975 16.5259 10.7346 16.0149 10.2596C15.3903 9.69023 15.0124 9.70268 14.3816 10.2862C13.8929 10.7413 13.2658 10.9932 12.6161 10.9954C11.9663 10.9975 11.3378 10.7497 10.8464 10.2978C10.1758 9.69023 9.81978 9.69023 9.14913 10.2978C8.65793 10.7502 8.02942 10.9984 7.37956 10.9967C6.72969 10.995 6.10233 10.7436 5.61319 10.2887C4.97299 9.69604 4.61932 9.69604 3.94789 10.2887C2.87985 11.2249 1.4191 11.2324 0.409608 10.3044C0.104341 10.0247 -0.0869384 9.69521 0.0395403 9.24949C0.218328 8.62034 0.878047 8.39291 1.39021 8.77638C2.09287 9.30593 2.34426 9.29763 3.00086 8.71911C4.10872 7.74384 5.54683 7.76874 6.6258 8.78219C7.15982 9.2802 7.60172 9.28518 8.14121 8.788C9.2803 7.73803 10.7176 7.73886 11.8567 8.788C12.3946 9.28601 12.835 9.28103 13.3721 8.77638C14.4519 7.76293 15.8876 7.73969 16.9971 8.71828C17.6513 9.29929 17.8988 9.30427 18.6069 8.77306C18.9903 8.48504 19.472 8.53318 19.771 8.88926C19.9213 9.05756 20.0035 9.28188 19.9999 9.51394C19.9962 9.74601 19.907 9.96728 19.7515 10.1301C19.2307 10.7103 18.5804 10.9734 17.8598 11Z" stroke="#0C1A4A"/>
<path d="M17.7561 16.9938C17.1088 16.9863 16.487 16.7237 16.0109 16.2566C15.4354 15.7098 15.0224 15.7098 14.4313 16.2475C13.3154 17.2638 11.8506 17.2497 10.7417 16.2109C10.2272 15.7297 9.76489 15.7297 9.25031 16.2109C8.15712 17.2372 6.68989 17.2638 5.58967 16.2766C4.94625 15.6948 4.57456 15.7006 3.94988 16.284C3.45482 16.74 2.8218 16.9905 2.1671 16.9896C1.5124 16.9887 0.879999 16.7364 0.386066 16.2791C-0.0519926 15.8635 -0.12305 15.3475 0.202565 14.9269C0.528181 14.5064 1.02168 14.479 1.48473 14.853C1.99931 15.2685 2.43424 15.2519 2.92072 14.7981C4.04124 13.7527 5.45771 13.7402 6.60478 14.7649C7.19823 15.2959 7.60583 15.2926 8.18913 14.7524C9.26593 13.7552 10.7347 13.7552 11.8131 14.7524C12.394 15.2901 12.8032 15.2918 13.3982 14.7599C14.5453 13.7336 15.9555 13.7477 17.0807 14.7973C17.5664 15.2511 18.0013 15.266 18.5167 14.8488C18.9782 14.4757 19.4748 14.5056 19.7989 14.9261C20.1229 15.3466 20.0519 15.866 19.6115 16.2782C19.0976 16.7569 18.5019 16.9871 17.7561 16.9938Z" fill="white"/>
<path d="M17.7561 16.9938C17.1088 16.9863 16.487 16.7237 16.0109 16.2566C15.4354 15.7098 15.0224 15.7098 14.4313 16.2475C13.3154 17.2638 11.8506 17.2497 10.7417 16.2109C10.2272 15.7297 9.76489 15.7297 9.25031 16.2109C8.15712 17.2372 6.68989 17.2638 5.58967 16.2766C4.94625 15.6948 4.57456 15.7006 3.94988 16.284C3.45482 16.74 2.8218 16.9905 2.1671 16.9896C1.5124 16.9887 0.879999 16.7364 0.386066 16.2791C-0.0519926 15.8635 -0.12305 15.3475 0.202565 14.9269C0.528181 14.5064 1.02168 14.479 1.48473 14.853C1.99931 15.2685 2.43424 15.2519 2.92072 14.7981C4.04124 13.7527 5.45771 13.7402 6.60478 14.7649C7.19823 15.2959 7.60583 15.2926 8.18913 14.7524C9.26593 13.7552 10.7347 13.7552 11.8131 14.7524C12.394 15.2901 12.8032 15.2918 13.3982 14.7599C14.5453 13.7336 15.9555 13.7477 17.0807 14.7973C17.5664 15.2511 18.0013 15.266 18.5167 14.8488C18.9782 14.4757 19.4748 14.5056 19.7989 14.9261C20.1229 15.3466 20.0519 15.866 19.6115 16.2782C19.0976 16.7569 18.5019 16.9871 17.7561 16.9938Z" stroke="#0C1A4A"/>
<path d="M2.23052 4.9847C1.47765 4.99387 0.860677 4.74378 0.341325 4.23442C-0.0663479 3.82844 -0.110864 3.30741 0.21871 2.9006C0.533446 2.51128 1.01531 2.47627 1.44329 2.81056C2.04621 3.28407 2.41561 3.26907 2.96777 2.75054C3.45523 2.2812 4.08583 2.01687 4.74223 2.00675C5.39862 1.99663 6.03612 2.2414 6.53607 2.69552C7.24364 3.32409 7.5576 3.32075 8.26595 2.67635C8.7551 2.24292 9.37114 2.0063 10.0069 2.00767C10.6426 2.00904 11.2577 2.24832 11.7452 2.68385C12.4481 3.32242 12.7605 3.32242 13.4759 2.68802C13.9757 2.23336 14.6137 1.98888 15.2703 2.00039C15.9269 2.0119 16.557 2.27861 17.0426 2.75054C17.5799 3.25906 17.9751 3.2799 18.5366 2.82807C18.9795 2.47127 19.4738 2.50128 19.7909 2.90393C20.108 3.30658 20.065 3.82677 19.6581 4.23359C18.6741 5.21729 17.0926 5.2423 16.0594 4.29111C15.4057 3.69006 15.0652 3.68839 14.392 4.28277C13.3048 5.25147 11.853 5.23146 10.7893 4.2511C10.2067 3.71173 9.79823 3.7134 9.21093 4.25526C8.14568 5.2373 6.69539 5.24897 5.60749 4.28528C4.93975 3.69506 4.60314 3.70173 3.93931 4.30112C3.46783 4.7455 2.85948 4.98886 2.23052 4.9847Z" fill="white"/>
<path d="M2.23052 4.9847C1.47765 4.99387 0.860677 4.74378 0.341325 4.23442C-0.0663479 3.82844 -0.110864 3.30741 0.21871 2.9006C0.533446 2.51128 1.01531 2.47627 1.44329 2.81056C2.04621 3.28407 2.41561 3.26907 2.96777 2.75054C3.45523 2.2812 4.08583 2.01687 4.74223 2.00675C5.39862 1.99663 6.03612 2.2414 6.53607 2.69552C7.24364 3.32409 7.5576 3.32075 8.26595 2.67635C8.7551 2.24292 9.37114 2.0063 10.0069 2.00767C10.6426 2.00904 11.2577 2.24832 11.7452 2.68385C12.4481 3.32242 12.7605 3.32242 13.4759 2.68802C13.9757 2.23336 14.6137 1.98888 15.2703 2.00039C15.9269 2.0119 16.557 2.27861 17.0426 2.75054C17.5799 3.25906 17.9751 3.2799 18.5366 2.82807C18.9795 2.47127 19.4738 2.50128 19.7909 2.90393C20.108 3.30658 20.065 3.82677 19.6581 4.23359C18.6741 5.21729 17.0926 5.2423 16.0594 4.29111C15.4057 3.69006 15.0652 3.68839 14.392 4.28277C13.3048 5.25147 11.853 5.23146 10.7893 4.2511C10.2067 3.71173 9.79823 3.7134 9.21093 4.25526C8.14568 5.2373 6.69539 5.24897 5.60749 4.28528C4.93975 3.69506 4.60314 3.70173 3.93931 4.30112C3.46783 4.7455 2.85948 4.98886 2.23052 4.9847Z" stroke="#0C1A4A"/>
</svg>
