<svg width="14" height="14" viewBox="0 0 14 14" fill="none" xmlns="http://www.w3.org/2000/svg">
<path d="M4.35182 2.94778C4.49266 3.00487 4.62118 3.05467 4.74932 3.10983C4.84898 3.15274 4.95711 3.18645 5.04176 3.25196C5.2434 3.4052 5.42656 3.31632 5.60665 3.22361C5.65398 3.1991 5.68707 3.13014 5.70823 3.07497C5.78519 2.87883 5.84984 2.67962 5.92064 2.48194C5.98605 2.29843 6.10957 2.1881 6.30851 2.15631C6.77727 2.08193 7.25484 2.08128 7.72379 2.15439C7.93081 2.18619 8.05703 2.3015 8.12398 2.49228C8.17631 2.64246 8.24288 2.78957 8.28136 2.9428C8.32831 3.13167 8.42335 3.24928 8.61806 3.30828C8.72426 3.33969 8.80353 3.34889 8.90358 3.29564C9.08905 3.19641 9.28222 3.1106 9.47423 3.02402C9.64547 2.9474 9.82055 2.9474 9.95831 3.08034C10.2985 3.40673 10.6326 3.73875 10.9607 4.07639C11.0938 4.2143 11.0935 4.38861 11.0153 4.55909C10.9372 4.72957 10.8583 4.90771 10.766 5.07474C10.7303 5.13323 10.7102 5.19984 10.7077 5.26823C10.7051 5.33662 10.7202 5.40452 10.7514 5.4655C10.8106 5.60035 10.8826 5.68271 11.0257 5.72179C11.1977 5.76929 11.3632 5.84017 11.5329 5.89533C11.7515 5.96621 11.8877 6.1114 11.8931 6.33934C11.9031 6.78374 11.9024 7.22838 11.8911 7.67329C11.8854 7.89357 11.7503 8.03378 11.5406 8.10351C11.389 8.15331 11.242 8.21843 11.0881 8.25904C10.9068 8.30578 10.7925 8.39428 10.7329 8.58276C10.6967 8.69769 10.6944 8.78197 10.7475 8.88426C10.8414 9.06508 10.9265 9.2505 11.0123 9.43553C11.0946 9.61252 11.0931 9.79028 10.9538 9.93356C10.63 10.2676 10.3004 10.5957 9.96485 10.9177C9.82016 11.0568 9.64162 11.0557 9.46461 10.9744C9.30184 10.9001 9.13484 10.8323 8.98092 10.7446C8.82701 10.6568 8.69694 10.6492 8.53648 10.7289C8.42489 10.7844 8.35294 10.8407 8.31677 10.9637C8.25982 11.1587 8.18055 11.3468 8.1109 11.5384C8.08656 11.6181 8.03971 11.6892 7.97592 11.7432C7.91213 11.7972 7.8341 11.8318 7.75111 11.8429C7.27025 11.9238 6.77921 11.9245 6.29812 11.8448C6.10573 11.8138 5.99029 11.7046 5.92487 11.5288C5.86869 11.3732 5.8002 11.2223 5.75979 11.061C5.71208 10.8725 5.61742 10.7545 5.42271 10.6955C5.31651 10.6637 5.23686 10.6572 5.13719 10.7086C4.95134 10.8074 4.75855 10.8936 4.56654 10.9802C4.39531 11.0568 4.22022 11.0568 4.08208 10.9239C3.74244 10.5975 3.40895 10.2655 3.08161 9.92781C2.94847 9.78952 2.94886 9.61559 3.02697 9.44511C3.1174 9.24858 3.2136 9.05435 3.30595 8.85859C3.39522 8.66934 3.27016 8.37704 3.06968 8.30501C2.8692 8.23299 2.67257 8.16365 2.47402 8.09316C2.39068 8.06842 2.31637 8.02008 2.26014 7.95403C2.20391 7.88798 2.16819 7.80708 2.15733 7.72117C2.08037 7.24832 2.08037 6.76622 2.15733 6.29337C2.1885 6.09493 2.30163 5.97349 2.48595 5.91027C2.6845 5.84017 2.88383 5.77198 3.082 5.70072C3.26901 5.63368 3.39484 5.33486 3.31095 5.15711C3.21898 4.96096 3.12278 4.76711 3.03159 4.57058C2.94924 4.39359 2.95078 4.21545 3.09008 4.07256C3.41382 3.74054 3.74397 3.41325 4.08054 3.09068C4.14519 3.01942 4.25139 2.99605 4.35182 2.94778ZM4.43148 10.1117C4.56923 10.0462 4.70276 9.99677 4.82166 9.9236C5.1268 9.73665 5.39886 9.78798 5.73978 9.89525C6.24849 10.0562 6.4709 10.3806 6.57518 10.8469C6.61366 11.0139 6.70447 11.0641 6.87263 11.0645C7.3844 11.0645 7.40134 11.0771 7.55179 10.581C7.64991 10.2569 7.81538 10.0401 8.15861 9.97417C8.23363 9.95676 8.30491 9.92614 8.3691 9.88376C8.62229 9.72707 8.86125 9.74125 9.12753 9.87686C9.66201 10.1492 9.66625 10.1358 10.0653 9.69757C10.1422 9.61482 10.1403 9.552 10.0938 9.46235C10.006 9.29264 9.90136 9.12561 9.85095 8.9444C9.81273 8.8013 9.81181 8.65085 9.84825 8.50729C9.89866 8.31229 10.0022 8.13185 10.0737 7.94107C10.1357 7.77328 10.2384 7.65835 10.4139 7.60778C10.5059 7.58134 10.594 7.54227 10.6833 7.51009C11.1023 7.36068 11.0915 7.36068 11.1035 6.91705C11.1088 6.70635 11.0446 6.6056 10.8341 6.53396C10.0645 6.27575 10.1799 6.36654 9.95638 5.73941C9.95272 5.72714 9.94741 5.71542 9.94061 5.70455C9.7382 5.41301 9.77899 5.13335 9.94061 4.83032C10.1776 4.38708 10.158 4.38478 9.79746 4.03118C9.67433 3.91051 9.58275 3.88905 9.41959 3.96797C8.69502 4.31927 8.81585 4.34264 8.18016 4.03233C8.17468 4.02892 8.16871 4.02633 8.16246 4.02467C7.81037 3.96223 7.64453 3.7362 7.54679 3.40482C7.4021 2.92058 7.38402 2.93169 6.87763 2.93399C6.71486 2.93399 6.61674 2.9723 6.57518 3.14585C6.5367 3.3056 6.45974 3.45539 6.41125 3.61361C6.38871 3.69706 6.34459 3.77316 6.28328 3.83433C6.22197 3.8955 6.14563 3.9396 6.06186 3.96223C5.98223 3.9852 5.90442 4.01401 5.82906 4.04842C5.22493 4.34494 5.31266 4.30778 4.67467 3.99939C4.47996 3.90553 4.35837 3.90476 4.20021 4.06873C3.88468 4.39589 3.85736 4.39398 4.0767 4.79661C4.24985 5.11382 4.22677 5.38122 4.11287 5.72945C3.94702 6.23399 3.62417 6.45734 3.15626 6.56116C2.98849 6.59947 2.93808 6.68988 2.9377 6.85729C2.93577 7.36528 2.92423 7.38175 3.42408 7.53307C3.74885 7.63191 3.96741 7.79588 4.03283 8.13837C4.05073 8.21184 4.08147 8.2816 4.12364 8.34447C4.28218 8.59655 4.26601 8.83445 4.1298 9.09917C3.8489 9.64624 3.86044 9.65198 4.3272 10.0427C4.36057 10.0682 4.39538 10.0918 4.43148 10.1132V10.1117Z" fill="#15CEF7"/>
<path d="M7.02209 4.9635C7.40689 4.96547 7.78249 5.08082 8.10154 5.29502C8.42058 5.50921 8.66879 5.81266 8.81485 6.16709C8.96092 6.52153 8.99831 6.91109 8.9223 7.28665C8.8463 7.66221 8.66031 8.00696 8.38778 8.27743C8.11526 8.5479 7.76839 8.73198 7.39093 8.80647C7.01346 8.88095 6.6223 8.8425 6.26675 8.69597C5.91121 8.54943 5.6072 8.30137 5.39306 7.98306C5.17892 7.66475 5.06424 7.29045 5.06348 6.90734C5.06383 6.65165 5.11478 6.39854 5.21341 6.16247C5.31204 5.92639 5.45642 5.71197 5.6383 5.53146C5.82019 5.35095 6.03601 5.20788 6.27344 5.11043C6.51088 5.01298 6.76527 4.96305 7.02209 4.9635ZM7.02902 5.80325C6.81114 5.80349 6.5982 5.86789 6.41699 5.98834C6.23579 6.10879 6.09443 6.27991 6.01069 6.48017C5.92695 6.68043 5.90458 6.90087 5.94639 7.11375C5.98821 7.32664 6.09234 7.52245 6.24568 7.67655C6.39902 7.83065 6.59473 7.93615 6.80815 7.97977C7.02158 8.02339 7.2432 8.00318 7.44512 7.92169C7.64704 7.8402 7.82024 7.70106 7.94291 7.5218C8.06559 7.34253 8.13226 7.13114 8.13454 6.91423C8.1357 6.76876 8.10793 6.62449 8.05282 6.48975C7.99771 6.35501 7.91635 6.23246 7.81343 6.12918C7.71051 6.0259 7.58808 5.94392 7.45318 5.88799C7.31829 5.83205 7.17361 5.80325 7.02748 5.80325H7.02902Z" fill="#15CEF7"/>
</svg>
