<svg width="16" height="16" viewBox="0 0 16 16" fill="none" xmlns="http://www.w3.org/2000/svg">
<path d="M13.9795 4.18513C13.9685 4.07591 13.9292 3.97121 13.8655 3.88084C13.8018 3.79048 13.7157 3.71739 13.6152 3.66844L8.29715 1.06871C8.20479 1.02352 8.10294 1 7.99967 1C7.8964 1 7.79454 1.02352 7.70219 1.06871L2.38411 3.66844C2.28392 3.71767 2.19805 3.79084 2.13449 3.88117C2.07092 3.97149 2.03171 4.07604 2.02049 4.18513C2.01318 4.25468 1.38165 11.183 7.73011 13.9432C7.81493 13.9806 7.90693 14 8 14C8.09306 14 8.18507 13.9806 8.26989 13.9432C14.6183 11.183 13.9868 4.25533 13.9795 4.18513ZM8 12.6323C3.50024 10.5057 3.28752 5.96725 3.32408 4.66283L8 2.37702L12.6726 4.66153C12.6972 5.95425 12.4546 10.5226 8 12.6323Z" fill="#00FFFF"/>
<path d="M7.36265 9.01432L5.90121 7.4043L5 8.39714L7.36265 11L11 6.99284L10.0988 6L7.36265 9.01432Z" fill="#00FFFF"/>
</svg>
