<?xml version="1.0" encoding="UTF-8"?>
<!DOCTYPE svg PUBLIC "-//W3C//DTD SVG 1.1//EN" "http://www.w3.org/Graphics/SVG/1.1/DTD/svg11.dtd">
<!-- Creator: CorelDRAW 2021 (64-Bit) -->
<svg xmlns="http://www.w3.org/2000/svg" xml:space="preserve" width="257.203mm" height="59.0104mm" version="1.1" style="shape-rendering:geometricPrecision; text-rendering:geometricPrecision; image-rendering:optimizeQuality; fill-rule:evenodd; clip-rule:evenodd"
viewBox="0 0 25706.01 5897.77"
 xmlns:xlink="http://www.w3.org/1999/xlink"
 xmlns:xodm="http://www.corel.com/coreldraw/odm/2003">
 <defs>
  <style type="text/css">
   <![CDATA[
    .fil0 {fill:#340842}
    .fil2 {fill:black;fill-rule:nonzero}
    .fil3 {fill:white;fill-rule:nonzero}
    .fil1 {fill:url(#id0)}
   ]]>
  </style>
  <linearGradient id="id0" gradientUnits="userSpaceOnUse" x1="19813.76" y1="3604.36" x2="19813.76" y2="108.9">
   <stop offset="0" style="stop-opacity:1; stop-color:#9900CC"/>
   <stop offset="1" style="stop-opacity:1; stop-color:#00CCFF"/>
  </linearGradient>
 </defs>
 <g id="Layer_x0020_1">
  <metadata id="CorelCorpID_0Corel-Layer"/>
  <g id="_2366775940832">
   <polygon class="fil0" points="19815.02,4499.56 25706.01,4324.19 19815.02,4148.77 13921.47,4324.19 "/>
   <polygon class="fil0" points="19815.02,5198.66 23866.86,5023.3 19815.02,4847.88 15760.7,5023.3 "/>
   <polygon class="fil0" points="19815.02,5897.77 21839.64,5722.35 19815.02,5546.98 17787.9,5722.35 "/>
   <path class="fil1" d="M23310.69 3604.32l0 -6.59c-0.27,-138.2 -8.58,-270.71 -23.89,-403.24l-41.06 -264c-35.01,-179.99 -83.5,-354.92 -144.82,-523.65l-52.44 -143.95 -73.68 -157.87c-150.36,-317.24 -346.94,-607.85 -581.17,-863.31l-2407.62 -104.2 2208.91 -95.52c-624.3,-579.68 -1461.13,-933.03 -2381.17,-933.03 -747.65,0 -1440.46,233.39 -2008.91,631.97l2181.17 94.36 -2439.77 105.63c-202.68,172.36 -385.32,367.38 -543.94,581.43l-99.17 136.36 -89.66 157.94c-127.55,201.99 -229.55,420.9 -308.22,650.81l-37.49 124.5 -44.53 151.31c-69.31,275.46 -106.38,565.8 -106.38,861.05l6993.81 0z"/>
   <path class="fil2" d="M20909.52 2046.34c400.47,-247.73 690.48,-340.53 1153.03,-199.93 462.47,140.6 499.91,1139.94 693.98,1568.4 -275.67,-387.51 -433.48,-1127.97 -915.69,-1161.64 -482.29,-33.6 -970.24,158.62 -1282.44,505.16 73.54,67.6 147.09,135.2 220.57,202.73 -621.2,410.33 -1461.28,502.5 -2179.56,239.21 257.98,-31.07 503.46,-138.69 694.79,-304.61 -290.34,-485.29 -968.66,-631.43 -1532.97,-533.02 -564.37,98.47 -586.48,890.83 -1129.21,1063.87 467.27,-606.29 709.13,-1370.8 1409.72,-1598.32 269.11,-87.47 411.55,-103.11 673.9,13.37 316.62,140.68 757.67,644.75 1099.77,699.85 304.63,49.16 838.26,-336.77 1094.12,-495.07z"/>
   <path class="fil3" d="M958.98 2982.57l0 -522.03c0,-64.51 -24.18,-136.22 -72.32,-215.16 -48.27,-79 -100.99,-118.46 -158.08,-118.46l-225 0 0 855.66c0,78.94 22.27,154.26 66.99,226.02 44.6,71.83 95.47,107.69 152.69,107.69 57.08,0 110.62,-36.74 160.73,-110.35 49.92,-73.47 74.99,-147.98 74.99,-223.37zm0 -1675.34l0 -525.03c0,-71.42 -25.07,-144.63 -74.99,-219.6 -50.11,-75.04 -103.65,-112.53 -160.73,-112.53 -57.22,0 -108.09,35.78 -152.69,107.13 -44.73,71.5 -66.99,146.47 -66.99,225l0 857.23 225 0c57.09,0 109.81,-39.33 158.08,-117.85 48.14,-78.53 72.32,-150.03 72.32,-214.35zm487.53 1675.75c0,228.9 -68.82,417.56 -206.28,565.95 -137.52,148.52 -309.87,222.73 -516.97,222.73 -260.79,0 -453.61,-85.82 -578.63,-257.49 -96.44,-132.34 -144.63,-295.13 -144.63,-488.3l0 -2280.06c0,-196.73 48.19,-359.44 144.63,-488.29 125.02,-171.53 317.84,-257.52 578.63,-257.52 207.11,0 379.45,74.31 516.97,222.75 137.45,148.45 206.28,335.26 206.28,560.55l0 525.77c0,239.69 -66.15,431.08 -198.28,574.08 132.13,146.66 198.28,339.83 198.28,579.44l0 520.39z"/>
   <path class="fil3" d="M2590.27 2287.63c37.5,-60.71 56.27,-117.86 56.27,-171.45 0,-71.35 -39.33,-107.14 -117.85,-107.14l-74.97 0c-71.56,0 -127.83,33.04 -168.81,99.15 -41.11,66.09 -61.67,143.81 -61.67,232.98l5.41 219.68c67.8,-42.82 135.68,-83.85 203.62,-123.18 67.75,-39.28 120.53,-89.25 158,-150.03zm409.85 1154.54c-157.19,219.68 -337.53,329.48 -541.08,329.48 -207.17,0 -379.54,-75.2 -517.04,-225.55 -137.52,-150.28 -206.22,-338.34 -206.22,-563.96l0 -639c0,-229.08 66.97,-417.96 200.88,-566.55 133.98,-148.58 304.49,-222.87 511.66,-222.87 289.25,0 469.59,112.81 541.08,338.47 21.44,64.53 32.16,127.21 32.16,188.13 0,171.93 -94.71,324.13 -283.99,456.75 -60.72,39.41 -230.33,127.15 -508.92,263.29 0,7.19 -1.84,26.99 -5.41,59.08l0 59.21c0,64.45 7.19,118.18 21.45,161.14 14.21,53.73 41.04,104 80.37,150.5 46.37,57.37 91.09,85.97 133.99,85.97 107.13,0 192.82,-23.83 257.09,-71.5 46.43,-47.65 91.16,-93.41 133.96,-137.44l150.04 334.85z"/>
   <path class="fil3" d="M4162.56 2982.74l0 -640.16c0,-68.21 -23.48,-140.74 -70.45,-217.84 -47.05,-77.09 -99.43,-115.73 -157.19,-115.73 -57.84,0 -110.29,39.53 -157.19,118.4 -47.05,78.94 -70.55,150.71 -70.55,215.16l0 640.16c0,64.51 24.39,136.29 73.21,215.09 48.83,79.01 102.08,118.39 159.99,118.39 54.14,0 106.52,-41.17 157.19,-123.72 43.36,-71.63 64.99,-141.63 64.99,-209.76zm648.29 147.56l-187.5 641.31c-85.77,0 -169.7,-48.19 -251.76,-144.62 -125.1,96.43 -267.95,144.62 -428.7,144.62 -207.09,0 -379.45,-74.28 -516.96,-222.81 -137.52,-148.57 -206.22,-337.45 -206.22,-566.61l0 -639.08c0,-232.72 64.24,-422.41 192.82,-569.22 128.59,-146.79 301.82,-220.21 519.71,-220.21 103.59,0 180.34,44.73 230.31,133.91l0 -133.91 503.61 0 0 1464.42c0,74.85 48.27,112.19 144.68,112.19z"/>
   <path class="fil3" d="M7157.32 2273.32l0 1498.29 -487.55 0 0 -1429.38c0,-222.07 -53.66,-333.24 -160.87,-333.24 -114.19,0 -171.27,111.17 -171.27,333.24l0 1429.38 -487.54 0 0 -1429.38c0,-222.07 -54.43,-333.24 -163.48,-333.24 -116,0 -173.97,111.17 -173.97,333.24l0 1429.38 -487.56 0 0 -2217.92 487.56 0 0 133.91c53.39,-89.18 131.65,-133.91 234.89,-133.91 78.34,0 156.57,26.29 234.9,78.88 78.4,52.57 131.78,117.29 160.25,194.33 67.67,-182.12 201.17,-273.21 400.56,-273.21 156.58,0 295.47,60.84 416.54,182.53 131.72,139.63 197.54,318.67 197.54,537.1z"/>
   <path class="fil3" d="M11161.52 3053.72c0,217.89 -69.66,394.69 -208.94,530.36 -125.04,125.1 -269.73,187.58 -433.95,187.58 -207.19,0 -344.71,-92.87 -412.51,-278.59 -67.86,185.72 -205.39,278.59 -412.5,278.59 -164.35,0 -308.98,-62.48 -433.94,-187.58 -139.3,-135.66 -208.94,-312.47 -208.94,-530.36l0 -1499.97 487.54 0 0 1420.63c0,220.83 55.32,331.18 166.07,331.18 114.25,0 171.4,-110.35 171.4,-331.18l0 -1420.63 460.7 0 0 1420.63c0,220.83 57.09,331.18 171.45,331.18 110.68,0 166.06,-110.35 166.06,-331.18l0 -1420.63 487.56 0 0 1499.97z"/>
   <path class="fil3" d="M12404.39 2982.74l0 -640.16c0,-68.21 -23.56,-140.74 -70.48,-217.84 -47.03,-77.09 -99.48,-115.73 -157.18,-115.73 -57.9,0 -110.28,39.53 -157.25,118.4 -47.05,78.94 -70.47,150.71 -70.47,215.16l0 640.16c0,64.51 24.39,136.29 73.12,215.09 48.84,79.01 102.16,118.39 160,118.39 54.21,0 106.59,-41.17 157.19,-123.72 43.36,-71.63 65.07,-141.63 65.07,-209.76zm648.21 147.56l-187.51 641.31c-85.7,0 -169.69,-48.19 -251.76,-144.62 -125.02,96.43 -267.88,144.62 -428.62,144.62 -207.17,0 -379.51,-74.28 -516.97,-222.81 -137.52,-148.57 -206.28,-337.45 -206.28,-566.61l0 -639.08c0,-232.72 64.31,-422.41 192.9,-569.22 128.58,-146.79 301.81,-220.21 519.62,-220.21 103.6,0 180.34,44.73 230.4,133.91l0 -133.91 503.58 0 0 1464.42c0,74.85 48.21,112.19 144.63,112.19z"/>
   <path class="fil3" d="M14220.51 2982.74l0 -640.16c0,-75.32 -24.45,-149.68 -73.26,-223.22 -48.84,-73.48 -102.08,-110.35 -159.86,-110.35 -57.84,0 -109.33,35.98 -154.52,107.68 -45.19,71.77 -67.74,147.01 -67.74,225.88l0 640.16c0,68.13 23.42,140.88 70.47,217.9 46.98,77.09 99.35,115.59 157.19,115.59 54.16,0 105.62,-39.39 154.46,-118.39 48.81,-78.8 73.26,-150.58 73.26,-215.09zm487.48 -0.54c0,236.26 -64.26,426.97 -192.9,571.93 -128.5,144.98 -303.6,217.48 -524.97,217.48 -100.03,0 -175,-44.65 -225,-133.9l0 1071.45 -503.59 0 0 -2410.77c0,-192.89 48.22,-353.63 144.69,-482.21 124.9,-174.94 317.8,-262.48 578.57,-262.48 203.57,0 375.02,75.26 514.25,225.55 139.3,150.36 208.94,338.4 208.94,563.88l0 639.08z"/>
   <path class="fil3" d="M8287.89 1789.58l-84.53 0c-201.3,0 -301.87,84.53 -301.87,253.6 0,68.48 25.13,129.75 75.45,184.16 50.32,54.29 119.77,81.46 208.32,81.46 164.98,-40.14 247.53,-146.87 247.53,-319.97 0,-132.82 -48.28,-199.25 -144.9,-199.25zm567.52 1098.82c0,253.6 -77.58,464.87 -232.45,633.95 -155,169 -351.18,253.53 -588.67,253.53 -225.46,0 -426.62,-123.73 -603.7,-371.25l164.16 -377.34c52.57,49.64 103.25,101.19 151.93,154.86 77.04,53.75 176.31,80.58 297.93,80.58 56.67,0 114.45,-33.6 173.23,-100.78 58.73,-67.12 88.14,-135.41 88.14,-204.65 0,-142.44 -119.48,-213.79 -358.55,-213.79 -170.16,0 -310,-76.42 -419.4,-229.44 -89.18,-132.81 -133.7,-271.63 -133.7,-416.52 0,-253.61 74.43,-453.83 223.43,-600.76 148.85,-146.89 342.02,-220.35 579.52,-220.35 326.05,0 529.27,126.1 609.85,378.14 15.97,56.07 24.18,110.15 24.18,162.1 0,132.07 -53.48,243.18 -160.08,333.16 -106.65,90.15 -238.44,151.2 -395.42,183.15l102.62 0c148.87,0 265.62,54.35 350.18,163 84.52,108.7 126.8,239.53 126.8,392.42z"/>
  </g>
 </g>
</svg>
