<svg width="64" height="64" viewBox="0 0 64 64" fill="none" xmlns="http://www.w3.org/2000/svg">
<rect width="64" height="64" rx="32" fill="#3375BB"/>
<path d="M31.9887 12.5844L32.9482 11.3313C32.6735 11.1165 32.336 11 31.9887 11C31.6414 11 31.304 11.1165 31.0293 11.3313L31.9887 12.5844ZM48.4306 17.4664L49.9998 17.4922C50.0031 17.2819 49.9649 17.073 49.8875 16.8777C49.8101 16.6824 49.695 16.5046 49.5489 16.3547C49.4029 16.2048 49.2288 16.0857 49.0368 16.0045C48.8448 15.9232 48.6387 15.8814 48.4306 15.8814V17.4664ZM31.9887 51.4142L31.1199 52.7341C31.3772 52.9075 31.6795 53 31.9887 53C32.2979 53 32.6003 52.9075 32.8575 52.7341L31.9887 51.4142ZM15.5714 17.4664V15.8814C15.3633 15.8815 15.1573 15.9235 14.9655 16.0048C14.7736 16.0861 14.5996 16.2052 14.4537 16.3551C14.3078 16.505 14.1928 16.6827 14.1154 16.8779C14.0381 17.0731 13.9999 17.282 14.0032 17.4922L15.5714 17.4664ZM31.0293 13.8375C38.1473 19.4112 46.292 19.0524 48.4316 19.0524V15.8814C46.2185 15.8814 39.1217 16.1637 32.9503 11.3313L31.0293 13.8375ZM46.8635 17.4405C46.7462 24.8039 46.437 29.9984 45.8475 33.846C45.2644 37.6538 44.4318 39.9348 43.3593 41.5381C42.273 43.2028 40.9074 44.1908 38.8915 45.4105C36.8542 46.6431 34.2818 47.9717 31.1209 50.0943L32.8586 52.7341C35.866 50.7084 38.3733 49.4176 40.5023 48.1311C42.6483 46.8306 44.5352 45.3997 45.9584 43.3138C47.3954 41.1653 48.3293 38.366 48.9433 34.3309C49.5531 30.3357 49.8772 24.9257 49.9977 17.4922L46.8635 17.4405ZM32.8575 50.0943C29.6967 47.9717 27.1253 46.6464 25.0913 45.4105C23.0743 44.1919 21.714 43.2039 20.6309 41.5392C19.5648 39.937 18.7312 37.6603 18.1502 33.8471C17.5617 29.9984 17.2547 24.8039 17.1364 17.4405L14 17.4922C14.1205 24.9268 14.4424 30.3357 15.0501 34.3298C15.6652 38.365 16.5969 41.1642 18.035 43.3127C19.454 45.3987 21.3398 46.8306 23.4837 48.1311C25.6094 49.4165 28.1157 50.7084 31.1241 52.7341L32.8575 50.0943ZM15.5682 19.0524C17.6864 19.0524 25.8311 19.4112 32.945 13.8375L31.0261 11.3313C24.8536 16.1637 17.7568 15.8814 15.5682 15.8814V19.0524Z" fill="white"/>
</svg>
