<svg width="64" height="64" viewBox="0 0 64 64" fill="none" xmlns="http://www.w3.org/2000/svg">
<rect width="64" height="64" rx="32" fill="#3A99FB"/>
<path d="M19.6033 23.2764C26.4505 16.2412 37.5495 16.2412 44.4056 23.2764L45.2294 24.1221C45.5748 24.4753 45.5748 25.0422 45.2294 25.3953L42.4125 28.2949C42.2442 28.4715 41.9608 28.4715 41.7925 28.2949L40.6586 27.1332C35.8842 22.2262 28.1335 22.2262 23.3591 27.1332L22.1455 28.3785C21.9772 28.5551 21.6938 28.5551 21.5255 28.3785L18.6998 25.479C18.3543 25.1258 18.3543 24.5589 18.6998 24.2057L19.6033 23.2764ZM50.2341 29.2614L52.7409 31.8357C53.0864 32.1889 53.0864 32.7558 52.7409 33.1089L41.4293 44.7351C41.0838 45.0883 40.5346 45.0883 40.1892 44.7351L32.155 36.4825C32.0664 36.3988 31.9336 36.3988 31.845 36.4825L23.8197 44.7351C23.4742 45.0883 22.925 45.0883 22.5796 44.7351L11.2591 33.1182C10.9136 32.7651 10.9136 32.1982 11.2591 31.845L13.7659 29.2707C14.1114 28.9176 14.6606 28.9176 15.006 29.2707L23.0402 37.5234C23.1288 37.607 23.2616 37.607 23.3502 37.5234L31.3755 29.2707C31.721 28.9176 32.2702 28.9176 32.6156 29.2707L40.6498 37.5234C40.7384 37.607 40.8712 37.607 40.9598 37.5234L48.994 29.2707C49.3306 28.9083 49.8886 28.9083 50.2341 29.2614Z" fill="white"/>
</svg>
